<svg width="10" height="10" viewBox="0 0 10 10" fill="none" xmlns="http://www.w3.org/2000/svg">
<path fill-rule="evenodd" clip-rule="evenodd" d="M4.99988 9.37549C6.1602 9.37549 7.273 8.91455 8.09347 8.09408C8.91394 7.27361 9.37488 6.16081 9.37488 5.00049C9.37488 3.84017 8.91394 2.72737 8.09347 1.9069C7.273 1.08642 6.1602 0.625488 4.99988 0.625488C3.83956 0.625488 2.72676 1.08642 1.90629 1.9069C1.08581 2.72737 0.624878 3.84017 0.624878 5.00049C0.624878 6.16081 1.08581 7.27361 1.90629 8.09408C2.72676 8.91455 3.83956 9.37549 4.99988 9.37549ZM4.99988 10.0005C6.32596 10.0005 7.59773 9.4737 8.53541 8.53602C9.47309 7.59834 9.99988 6.32657 9.99988 5.00049C9.99988 3.67441 9.47309 2.40264 8.53541 1.46495C7.59773 0.527273 6.32596 0.000488281 4.99988 0.000488281C3.6738 0.000488281 2.40203 0.527273 1.46434 1.46495C0.526662 2.40264 -0.00012207 3.67441 -0.00012207 5.00049C-0.00012207 6.32657 0.526662 7.59834 1.46434 8.53602C2.40203 9.4737 3.6738 10.0005 4.99988 10.0005Z" fill="white"/>
<path d="M5.5811 4.11768L4.14985 4.29705L4.0986 4.53455L4.37985 4.58643C4.5636 4.63018 4.59985 4.69643 4.55985 4.87955L4.0986 7.04705C3.97735 7.60768 4.16422 7.87143 4.6036 7.87143C4.94422 7.87143 5.33985 7.71393 5.51922 7.49768L5.57422 7.23768C5.44922 7.34768 5.26672 7.39143 5.14547 7.39143C4.9736 7.39143 4.9111 7.2708 4.95547 7.0583L5.5811 4.11768Z" fill="white"/>
<path d="M4.99988 3.43799C5.34506 3.43799 5.62488 3.15817 5.62488 2.81299C5.62488 2.46781 5.34506 2.18799 4.99988 2.18799C4.6547 2.18799 4.37488 2.46781 4.37488 2.81299C4.37488 3.15817 4.6547 3.43799 4.99988 3.43799Z" fill="white"/>
</svg>
