<svg width="60" height="30" viewBox="0 0 60 30" fill="none" xmlns="http://www.w3.org/2000/svg">
<path d="M40.6249 9.16017H43.4249V13.8002C42.7849 14.2588 42.0489 14.6108 41.2169 14.8562C40.3849 15.1015 39.5529 15.2242 38.7209 15.2242C37.5476 15.2242 36.4916 14.9788 35.5529 14.4882C34.6143 13.9868 33.8783 13.2935 33.3449 12.4082C32.8116 11.5228 32.5449 10.5202 32.5449 9.40017C32.5449 8.28017 32.8116 7.27751 33.3449 6.39217C33.8783 5.50684 34.6196 4.81884 35.5689 4.32817C36.5183 3.82684 37.5903 3.57617 38.7849 3.57617C39.8303 3.57617 40.7689 3.75217 41.6009 4.10417C42.4329 4.45617 43.1263 4.96284 43.6809 5.62417L41.6649 7.44817C40.9076 6.61617 40.0009 6.20017 38.9449 6.20017C37.9849 6.20017 37.2116 6.49351 36.6249 7.08017C36.0383 7.65617 35.7449 8.42951 35.7449 9.40017C35.7449 10.0188 35.8783 10.5735 36.1449 11.0642C36.4116 11.5442 36.7849 11.9228 37.2649 12.2002C37.7449 12.4668 38.2943 12.6002 38.9129 12.6002C39.5209 12.6002 40.0916 12.4775 40.6249 12.2322V9.16017Z" fill="#FFF"/>
<path d="M50.4414 15.1442C49.5134 15.1442 48.6761 14.9522 47.9294 14.5682C47.1828 14.1842 46.5961 13.6508 46.1694 12.9682C45.7534 12.2855 45.5454 11.5122 45.5454 10.6482C45.5454 9.79484 45.7534 9.02684 46.1694 8.34417C46.5961 7.66151 47.1774 7.13351 47.9134 6.76017C48.6601 6.37617 49.5028 6.18417 50.4414 6.18417C51.3801 6.18417 52.2228 6.37617 52.9694 6.76017C53.7161 7.13351 54.2974 7.66151 54.7134 8.34417C55.1294 9.01617 55.3374 9.78417 55.3374 10.6482C55.3374 11.5122 55.1294 12.2855 54.7134 12.9682C54.2974 13.6508 53.7161 14.1842 52.9694 14.5682C52.2228 14.9522 51.3801 15.1442 50.4414 15.1442ZM50.4414 12.7282C50.9748 12.7282 51.4121 12.5468 51.7534 12.1842C52.0948 11.8108 52.2654 11.2988 52.2654 10.6482C52.2654 10.0082 52.0948 9.50684 51.7534 9.14417C51.4121 8.78151 50.9748 8.60017 50.4414 8.60017C49.9081 8.60017 49.4708 8.78151 49.1294 9.14417C48.7881 9.50684 48.6174 10.0082 48.6174 10.6482C48.6174 11.2988 48.7881 11.8108 49.1294 12.1842C49.4708 12.5468 49.9081 12.7282 50.4414 12.7282Z" fill="#FFF"/>
<path fill-rule="evenodd" clip-rule="evenodd" d="M7.44562 8.61116L1.05712 18.2522C0.789088 18.9717 1.531 19.1772 1.90197 18.8278L8.68211 11.6535L10.5162 13.9148C10.7223 14.182 11.0108 14.182 11.3406 13.812L17.1315 7.56278L17.0285 10.5846C17.0285 10.9752 17.4406 11.1602 17.791 10.9135L21.6241 7.85057L23.1491 10.9135L26.5701 12.6814L33.1441 18.828C33.8448 19.3419 34.2363 18.5813 33.8448 18.1497L19.4808 1.23134C19.2129 0.902681 18.9244 0.943773 18.6977 1.23134L11.0315 10.9135L8.08447 8.50838C7.87834 8.34393 7.58982 8.4056 7.44562 8.61116ZM34.7645 22.4364H37.4765V29.0004H34.7645V22.4364ZM36.1205 21.9084C35.6325 21.9084 35.2365 21.7804 34.9325 21.5244C34.6365 21.2604 34.4885 20.9284 34.4885 20.5284C34.4885 20.1284 34.6365 19.8004 34.9325 19.5444C35.2365 19.2804 35.6325 19.1484 36.1205 19.1484C36.6165 19.1484 37.0125 19.2724 37.3085 19.5204C37.6045 19.7684 37.7525 20.0884 37.7525 20.4804C37.7525 20.8964 37.6045 21.2404 37.3085 21.5124C37.0125 21.7764 36.6165 21.9084 36.1205 21.9084ZM3.62766 28.6404C4.33966 29.0084 5.13966 29.1924 6.02766 29.1924C6.84366 29.1924 7.57166 29.0484 8.21166 28.7604C8.85166 28.4724 9.37966 28.0564 9.79566 27.5124L8.00766 25.9164C7.48766 26.5724 6.87566 26.9004 6.17166 26.9004C5.57966 26.9004 5.10366 26.7124 4.74366 26.3364C4.38366 25.9524 4.20366 25.4404 4.20366 24.8004C4.20366 24.1604 4.38366 23.6524 4.74366 23.2764C5.10366 22.8924 5.57966 22.7004 6.17166 22.7004C6.87566 22.7004 7.48766 23.0284 8.00766 23.6844L9.79566 22.0884C9.37966 21.5444 8.85166 21.1284 8.21166 20.8404C7.57166 20.5524 6.84366 20.4084 6.02766 20.4084C5.13966 20.4084 4.33966 20.5964 3.62766 20.9724C2.91566 21.3404 2.35566 21.8604 1.94766 22.5324C1.54766 23.1964 1.34766 23.9524 1.34766 24.8004C1.34766 25.6484 1.54766 26.4084 1.94766 27.0804C2.35566 27.7444 2.91566 28.2644 3.62766 28.6404ZM18.1016 26.3484C18.1256 25.9644 18.1376 25.7524 18.1376 25.7124C18.1376 25.0004 17.9736 24.3884 17.6456 23.8764C17.3256 23.3644 16.8896 22.9764 16.3376 22.7124C15.7936 22.4484 15.1896 22.3164 14.5256 22.3164C13.8216 22.3164 13.1856 22.4604 12.6176 22.7484C12.0576 23.0364 11.6136 23.4404 11.2856 23.9604C10.9656 24.4724 10.8056 25.0564 10.8056 25.7124C10.8056 26.3604 10.9696 26.9444 11.2976 27.4644C11.6256 27.9844 12.0896 28.3924 12.6896 28.6884C13.2896 28.9764 13.9856 29.1204 14.7776 29.1204C16.0496 29.1204 17.0056 28.7684 17.6456 28.0644L16.2296 26.6364C15.9976 26.8124 15.7816 26.9364 15.5816 27.0084C15.3896 27.0804 15.1496 27.1164 14.8616 27.1164C14.5256 27.1164 14.2456 27.0524 14.0216 26.9244C13.7976 26.7884 13.6376 26.5964 13.5416 26.3484H18.1016ZM13.8536 24.3924C14.0376 24.2404 14.2696 24.1644 14.5496 24.1644C14.8296 24.1644 15.0616 24.2444 15.2456 24.4044C15.4296 24.5564 15.5496 24.7684 15.6056 25.0404H13.4936C13.5496 24.7604 13.6696 24.5444 13.8536 24.3924ZM22.3734 23.1444C22.8534 22.5924 23.5614 22.3164 24.4974 22.3164V24.7164C24.2814 24.6844 24.0814 24.6684 23.8974 24.6684C22.9694 24.6684 22.5054 25.1404 22.5054 26.0844V29.0004H19.7934V22.4364H22.3734V23.1444ZM30.9098 29.0004L33.5498 22.4364H30.9818L29.5658 25.9524L28.2458 22.4364H25.4618L28.1018 29.0004H30.9098ZM45.9826 23.0484C45.4946 22.5604 44.8466 22.3164 44.0386 22.3164C43.6466 22.3164 43.2826 22.3804 42.9466 22.5084C42.6106 22.6364 42.3146 22.8284 42.0586 23.0844V22.4364H39.4786V29.0004H42.1906V25.9164C42.1906 25.4604 42.2826 25.1284 42.4666 24.9204C42.6586 24.7044 42.9066 24.5964 43.2106 24.5964C43.7466 24.5964 44.0146 24.9724 44.0146 25.7244V29.0004H46.7266V25.2564C46.7266 24.2724 46.4786 23.5364 45.9826 23.0484ZM48.7043 22.4364H51.4163V29.0004H48.7043V22.4364ZM50.0603 21.9084C49.5723 21.9084 49.1763 21.7804 48.8723 21.5244C48.5763 21.2604 48.4283 20.9284 48.4283 20.5284C48.4283 20.1284 48.5763 19.8004 48.8723 19.5444C49.1763 19.2804 49.5723 19.1484 50.0603 19.1484C50.5563 19.1484 50.9523 19.2724 51.2483 19.5204C51.5443 19.7684 51.6923 20.0884 51.6923 20.4804C51.6923 20.8964 51.5443 21.2404 51.2483 21.5124C50.9523 21.7764 50.5563 21.9084 50.0603 21.9084ZM58.9984 23.0964C58.3904 22.5764 57.5104 22.3164 56.3584 22.3164C55.8304 22.3164 55.2984 22.3844 54.7624 22.5204C54.2344 22.6484 53.7824 22.8284 53.4064 23.0604L54.2704 24.8484C54.4864 24.6884 54.7464 24.5644 55.0504 24.4764C55.3544 24.3804 55.6544 24.3324 55.9504 24.3324C56.6864 24.3324 57.0984 24.5884 57.1864 25.1004H56.0944C55.0864 25.1004 54.3344 25.2684 53.8384 25.6044C53.3424 25.9404 53.0944 26.4324 53.0944 27.0804C53.0944 27.4644 53.1864 27.8124 53.3704 28.1244C53.5624 28.4284 53.8384 28.6724 54.1984 28.8564C54.5664 29.0324 55.0104 29.1204 55.5304 29.1204C56.4584 29.1204 57.0784 28.7924 57.3904 28.1364V29.0004H59.9104V25.4724C59.9104 24.4004 59.6064 23.6084 58.9984 23.0964ZM56.8624 27.3324C56.7104 27.4364 56.5384 27.4884 56.3464 27.4884C56.1464 27.4884 55.9864 27.4404 55.8664 27.3444C55.7544 27.2404 55.6984 27.1124 55.6984 26.9604C55.6984 26.5924 55.9744 26.4084 56.5264 26.4084H57.1984V26.8644C57.1264 27.0724 57.0144 27.2284 56.8624 27.3324Z" fill="#FFF"/>
</svg>
