<svg width="60" height="60" viewBox="0 0 60 60" fill="none" xmlns="http://www.w3.org/2000/svg">
<g clip-path="url(#clip0)">
<g filter="url(#filter0_d)">
<path fill-rule="evenodd" clip-rule="evenodd" d="M46.6313 11.3346C42.0522 7.25451 36.1331 5 29.9999 5V9C41.5979 9 50.9999 18.402 50.9999 30C50.9999 41.598 41.5979 51 29.9999 51C18.402 51 8.99994 41.598 8.99994 30C8.99994 21.755 13.7515 14.6198 20.6657 11.1833L18.8902 7.60417C13.3959 10.3297 9.09521 14.9798 6.80627 20.6698C4.51732 26.3598 4.39984 32.6926 6.47618 38.4636C8.55253 44.2346 12.6778 49.041 18.0672 51.9684C23.4566 54.8958 29.7341 55.7399 35.7054 54.3403C41.6767 52.9406 46.9251 49.3947 50.4522 44.3772C53.9793 39.3598 55.539 33.2208 54.8345 27.1283C54.1299 21.0357 51.2104 15.4147 46.6313 11.3346Z" fill="#AFE434"/>
<path d="M29.9999 5H28.9999C28.9999 4.44772 29.4477 4 29.9999 4V5ZM46.6313 11.3346L45.9661 12.0812L45.9661 12.0812L46.6313 11.3346ZM29.9999 9V10C29.4477 10 28.9999 9.55228 28.9999 9H29.9999ZM20.6657 11.1833L21.5615 10.7389C21.8068 11.2334 21.6051 11.8332 21.1108 12.0788L20.6657 11.1833ZM18.8902 7.60417L18.4458 6.70833C18.9405 6.4629 19.5406 6.66502 19.786 7.15978L18.8902 7.60417ZM6.80627 20.6698L7.73401 21.043L7.73401 21.043L6.80627 20.6698ZM18.0672 51.9684L17.5899 52.8471L17.5899 52.8471L18.0672 51.9684ZM50.4522 44.3772L51.2703 44.9523L51.2703 44.9523L50.4522 44.3772ZM29.9999 4C36.3784 4 42.5343 6.34469 47.2966 10.588L45.9661 12.0812C41.5701 8.16432 35.8878 6 29.9999 6V4ZM28.9999 9V5H30.9999V9H28.9999ZM49.9999 30C49.9999 18.9543 41.0456 10 29.9999 10V8C42.1502 8 51.9999 17.8497 51.9999 30H49.9999ZM29.9999 50C41.0456 50 49.9999 41.0457 49.9999 30H51.9999C51.9999 42.1503 42.1502 52 29.9999 52V50ZM9.99994 30C9.99994 41.0457 18.9542 50 29.9999 50V52C17.8497 52 7.99994 42.1503 7.99994 30H9.99994ZM21.1108 12.0788C14.5234 15.3529 9.99994 22.1491 9.99994 30H7.99994C7.99994 21.3609 12.9796 13.8868 20.2206 10.2878L21.1108 12.0788ZM19.786 7.15978L21.5615 10.7389L19.7698 11.6277L17.9944 8.04856L19.786 7.15978ZM5.87852 20.2965C8.25902 14.3789 12.7317 9.54286 18.4458 6.70833L19.3346 8.5C14.0601 11.1165 9.9314 15.5806 7.73401 21.043L5.87852 20.2965ZM5.53523 38.8022C3.37584 32.8003 3.49801 26.2141 5.87852 20.2965L7.73401 21.043C5.53662 26.5054 5.42384 32.5849 7.41713 38.1251L5.53523 38.8022ZM17.5899 52.8471C11.9849 49.8026 7.69463 44.804 5.53523 38.8022L7.41713 38.1251C9.41042 43.6652 13.3707 48.2793 18.5445 51.0897L17.5899 52.8471ZM35.9336 55.3139C29.7235 56.7695 23.1949 55.8916 17.5899 52.8471L18.5445 51.0897C23.7184 53.9 29.7447 54.7103 35.4772 53.3666L35.9336 55.3139ZM51.2703 44.9523C47.6021 50.1705 42.1437 53.8582 35.9336 55.3139L35.4772 53.3666C41.2096 52.0229 46.2481 48.6189 49.6341 43.8021L51.2703 44.9523ZM55.8278 27.0134C56.5605 33.3496 54.9385 39.7342 51.2703 44.9523L49.6341 43.8021C53.0201 38.9854 54.5174 33.092 53.8411 27.2431L55.8278 27.0134ZM47.2966 10.588C52.0589 14.8313 55.0951 20.6772 55.8278 27.0134L53.8411 27.2431C53.1647 21.3943 50.362 15.9981 45.9661 12.0812L47.2966 10.588Z" fill="#AFE434"/>
</g>
</g>
<defs>
<filter id="filter0_d" x="-6.10352e-05" y="4" width="60.0001" height="60" filterUnits="userSpaceOnUse" color-interpolation-filters="sRGB">
<feFlood flood-opacity="0" result="BackgroundImageFix"/>
<feColorMatrix in="SourceAlpha" type="matrix" values="0 0 0 0 0 0 0 0 0 0 0 0 0 0 0 0 0 0 127 0"/>
<feOffset dy="4"/>
<feGaussianBlur stdDeviation="2"/>
<feColorMatrix type="matrix" values="0 0 0 0 0.854902 0 0 0 0 0.854902 0 0 0 0 0.854902 0 0 0 0.2 0"/>
<feBlend mode="normal" in2="BackgroundImageFix" result="effect1_dropShadow"/>
<feBlend mode="normal" in="SourceGraphic" in2="effect1_dropShadow" result="shape"/>
</filter>
<clipPath id="clip0">
<rect width="60" height="60" fill="white"/>
</clipPath>
</defs>
</svg>
