<svg width="60" height="60" viewBox="0 0 60 60" fill="none" xmlns="http://www.w3.org/2000/svg">
<g clip-path="url(#clip0)">
<g filter="url(#filter0_d)">
<path fill-rule="evenodd" clip-rule="evenodd" d="M13.3687 11.3346C17.9478 7.25451 23.8669 5 30.0001 5V9C18.4021 9 9.00006 18.402 9.00006 30C9.00006 41.598 18.4021 51 30.0001 51C41.598 51 51.0001 41.598 51.0001 30C51.0001 21.755 46.2485 14.6198 39.3343 11.1833L41.1098 7.60417C46.6041 10.3297 50.9048 14.9798 53.1937 20.6698C55.4827 26.3598 55.6002 32.6926 53.5238 38.4636C51.4475 44.2346 47.3222 49.041 41.9328 51.9684C36.5434 54.8958 30.2659 55.7399 24.2946 54.3403C18.3233 52.9406 13.0749 49.3947 9.54779 44.3772C6.02069 39.3598 4.46104 33.2208 5.16554 27.1283C5.87005 21.0357 8.78956 15.4147 13.3687 11.3346Z" fill="#1473DA"/>
<path d="M30.0001 5H31.0001C31.0001 4.44772 30.5523 4 30.0001 4V5ZM13.3687 11.3346L12.7034 10.588L12.7034 10.588L13.3687 11.3346ZM30.0001 9V10C30.5523 10 31.0001 9.55228 31.0001 9H30.0001ZM39.3343 11.1833L38.4385 10.7389C38.1932 11.2334 38.3949 11.8332 38.8892 12.0788L39.3343 11.1833ZM41.1098 7.60417L41.5542 6.70833C41.0594 6.4629 40.4594 6.66502 40.214 7.15978L41.1098 7.60417ZM53.1937 20.6698L54.1215 20.2965L54.1215 20.2965L53.1937 20.6698ZM41.9328 51.9684L42.4101 52.8471L42.4101 52.8471L41.9328 51.9684ZM24.2946 54.3403L24.5228 53.3666L24.5228 53.3666L24.2946 54.3403ZM9.54779 44.3772L10.3659 43.8021L10.3659 43.8021L9.54779 44.3772ZM30.0001 4C23.6216 4 17.4657 6.34469 12.7034 10.588L14.0339 12.0812C18.4299 8.16433 24.1122 6 30.0001 6V4ZM31.0001 9V5H29.0001V9H31.0001ZM10.0001 30C10.0001 18.9543 18.9544 10 30.0001 10V8C17.8498 8 8.00006 17.8497 8.00006 30H10.0001ZM30.0001 50C18.9544 50 10.0001 41.0457 10.0001 30H8.00006C8.00006 42.1503 17.8498 52 30.0001 52V50ZM50.0001 30C50.0001 41.0457 41.0458 50 30.0001 50V52C42.1503 52 52.0001 42.1503 52.0001 30H50.0001ZM38.8892 12.0788C45.4766 15.3529 50.0001 22.1491 50.0001 30H52.0001C52.0001 21.3609 47.0204 13.8868 39.7794 10.2878L38.8892 12.0788ZM40.214 7.15978L38.4385 10.7389L40.2301 11.6277L42.0056 8.04856L40.214 7.15978ZM54.1215 20.2965C51.741 14.3789 47.2682 9.54286 41.5542 6.70833L40.6654 8.5C45.9399 11.1165 50.0686 15.5806 52.266 21.043L54.1215 20.2965ZM54.4648 38.8022C56.6242 32.8003 56.502 26.2141 54.1215 20.2965L52.266 21.043C54.4634 26.5054 54.5762 32.5849 52.5829 38.1251L54.4648 38.8022ZM42.4101 52.8471C48.0151 49.8026 52.3054 44.804 54.4648 38.8022L52.5829 38.1251C50.5896 43.6652 46.6293 48.2793 41.4555 51.0897L42.4101 52.8471ZM24.0664 55.3139C30.2765 56.7695 36.8051 55.8916 42.4101 52.8471L41.4555 51.0897C36.2816 53.9 30.2553 54.7103 24.5228 53.3666L24.0664 55.3139ZM8.7297 44.9523C12.3979 50.1705 17.8563 53.8582 24.0664 55.3139L24.5228 53.3666C18.7904 52.0229 13.7519 48.6189 10.3659 43.8021L8.7297 44.9523ZM4.17216 27.0134C3.43947 33.3496 5.06151 39.7342 8.7297 44.9523L10.3659 43.8021C6.97986 38.9854 5.4826 33.092 6.15892 27.2431L4.17216 27.0134ZM12.7034 10.588C7.94115 14.8313 4.90485 20.6772 4.17216 27.0134L6.15892 27.2431C6.83525 21.3943 9.63798 15.9981 14.0339 12.0812L12.7034 10.588Z" fill="#1473DA"/>
</g>
<g filter="url(#filter1_d)">
<path fill-rule="evenodd" clip-rule="evenodd" d="M31.9353 5.07501C34.5587 5.2787 37.1335 5.89528 39.5647 6.90199L38.0364 10.5926C36.0367 9.76358 33.881 9.23466 31.6257 9.06199L31.9353 5.07501Z" fill="#B3E342"/>
<path d="M39.5647 6.90199L40.4886 7.28457C40.5901 7.03953 40.59 6.76422 40.4885 6.51921C40.387 6.27419 40.1923 6.07953 39.9473 5.97807L39.5647 6.90199ZM31.9353 5.07501L32.0127 4.07801C31.4621 4.03526 30.981 4.44697 30.9383 4.9976L31.9353 5.07501ZM38.0364 10.5926L37.6535 11.5164C37.8985 11.618 38.1739 11.618 38.419 11.5165C38.6641 11.415 38.8589 11.2203 38.9603 10.9752L38.0364 10.5926ZM31.6257 9.06199L30.6287 8.98458C30.6082 9.24918 30.6937 9.5111 30.8664 9.71264C31.039 9.91418 31.2848 10.0388 31.5494 10.0591L31.6257 9.06199ZM39.9473 5.97807C37.4189 4.9311 34.7411 4.28985 32.0127 4.07801L31.8579 6.07201C34.3764 6.26755 36.8482 6.85947 39.1821 7.82591L39.9473 5.97807ZM38.9603 10.9752L40.4886 7.28457L38.6407 6.5194L37.1125 10.21L38.9603 10.9752ZM31.5494 10.0591C33.6976 10.2235 35.7498 10.7272 37.6535 11.5164L38.4194 9.66882C36.3235 8.79997 34.0645 8.24578 31.7021 8.06491L31.5494 10.0591ZM30.9383 4.9976L30.6287 8.98458L32.6227 9.1394L32.9323 5.15242L30.9383 4.9976Z" fill="#B3E342"/>
</g>
</g>
<defs>
<filter id="filter0_d" x="0" y="4" width="60.0001" height="60" filterUnits="userSpaceOnUse" color-interpolation-filters="sRGB">
<feFlood flood-opacity="0" result="BackgroundImageFix"/>
<feColorMatrix in="SourceAlpha" type="matrix" values="0 0 0 0 0 0 0 0 0 0 0 0 0 0 0 0 0 0 127 0"/>
<feOffset dy="4"/>
<feGaussianBlur stdDeviation="2"/>
<feColorMatrix type="matrix" values="0 0 0 0 0.854902 0 0 0 0 0.854902 0 0 0 0 0.854902 0 0 0 0.2 0"/>
<feBlend mode="normal" in2="BackgroundImageFix" result="effect1_dropShadow"/>
<feBlend mode="normal" in="SourceGraphic" in2="effect1_dropShadow" result="shape"/>
</filter>
<filter id="filter1_d" x="26.6257" y="4.07495" width="17.9389" height="15.5176" filterUnits="userSpaceOnUse" color-interpolation-filters="sRGB">
<feFlood flood-opacity="0" result="BackgroundImageFix"/>
<feColorMatrix in="SourceAlpha" type="matrix" values="0 0 0 0 0 0 0 0 0 0 0 0 0 0 0 0 0 0 127 0"/>
<feOffset dy="4"/>
<feGaussianBlur stdDeviation="2"/>
<feColorMatrix type="matrix" values="0 0 0 0 0.854902 0 0 0 0 0.854902 0 0 0 0 0.854902 0 0 0 0.2 0"/>
<feBlend mode="normal" in2="BackgroundImageFix" result="effect1_dropShadow"/>
<feBlend mode="normal" in="SourceGraphic" in2="effect1_dropShadow" result="shape"/>
</filter>
<clipPath id="clip0">
<rect width="60" height="60" fill="white"/>
</clipPath>
</defs>
</svg>
