<svg version="1.1" xmlns="http://www.w3.org/2000/svg" xmlns:xlink="http://www.w3.org/1999/xlink">
  <symbol id="hotel" viewBox="0 0 50 50">
    <path xmlns="http://www.w3.org/2000/svg" fill-rule="evenodd" clip-rule="evenodd" d="M16.1855 5C16.1855 4.58579 16.5213 4.25 16.9355 4.25H32.6903C33.1045 4.25 33.4403 4.58579 33.4403 5V7.07178H35.7474C36.1616 7.07178 36.4974 7.40756 36.4974 7.82178V10.0698H40.5683C40.9825 10.0698 41.3183 10.4056 41.3183 10.8198V44.8571C41.3183 45.2713 40.9825 45.6071 40.5683 45.6071H9C8.58579 45.6071 8.25 45.2713 8.25 44.8571V10.8198C8.25 10.4056 8.58579 10.0698 9 10.0698H13.1289V7.82178C13.1289 7.40756 13.4647 7.07178 13.8789 7.07178H16.1855V5ZM17.6855 5.75V6.95417H31.9403V5.75H17.6855ZM14.6289 9.95231V8.57178H34.9974V9.95231H14.6289ZM9.75 11.5698V44.1071H20.4785V34.981C20.4785 32.6269 22.4015 30.7039 24.7557 30.7039C27.1099 30.7039 29.0329 32.6269 29.0329 34.981V44.1071H39.8183V11.5698H9.75ZM27.5329 34.981V44.1071H21.9785V34.981C21.9785 33.4553 23.23 32.2039 24.7557 32.2039C26.2814 32.2039 27.5329 33.4553 27.5329 34.981ZM12.4102 13.5383C11.9959 13.5383 11.6602 13.8741 11.6602 14.2883V19.8142C11.6602 20.2285 11.9959 20.5642 12.4102 20.5642H15.2895L15.291 20.5643L15.2925 20.5642H18.1124C18.5266 20.5642 18.8624 20.2285 18.8624 19.8142V14.2883C18.8624 13.8741 18.5266 13.5383 18.1124 13.5383H15.291H12.4102ZM14.541 15.0383H13.1602V19.0642H14.541V15.0383ZM16.041 19.0642V15.0383H17.3624V19.0642H16.041ZM22.1094 13.5383C21.6952 13.5383 21.3594 13.8741 21.3594 14.2883V19.8142C21.3594 20.2285 21.6952 20.5642 22.1094 20.5642H24.9888L24.9902 20.5643L24.9917 20.5642H27.8117C28.2259 20.5642 28.5617 20.2285 28.5617 19.8142V14.2883C28.5617 13.8741 28.2259 13.5383 27.8117 13.5383H24.9902H22.1094ZM24.2402 15.0383H22.8594V19.0642H24.2402V15.0383ZM25.7402 19.0642V15.0383H27.0617V19.0642H25.7402ZM31.1172 14.2883C31.1172 13.8741 31.453 13.5383 31.8672 13.5383H34.748H37.5695C37.9837 13.5383 38.3195 13.8741 38.3195 14.2883V19.8142C38.3195 20.2285 37.9837 20.5642 37.5695 20.5642H34.7495L34.748 20.5643L34.7466 20.5642H31.8672C31.453 20.5642 31.1172 20.2285 31.1172 19.8142V14.2883ZM32.6172 15.0383H33.998V19.0642H32.6172V15.0383ZM35.498 15.0383V19.0642H36.8195V15.0383H35.498ZM12.2324 22.1211C11.8182 22.1211 11.4824 22.4569 11.4824 22.8711V28.397C11.4824 28.8112 11.8182 29.147 12.2324 29.147H15.0547H17.9347C18.3489 29.147 18.6847 28.8112 18.6847 28.397V22.8711C18.6847 22.4569 18.3489 22.1211 17.9347 22.1211H15.0547H12.2324ZM14.3047 23.6211H12.9824V27.647H14.3047V23.6211ZM15.8047 27.647V23.6211H17.1847V27.647H15.8047ZM11.6602 31.395C11.6602 30.9808 11.9959 30.645 12.4102 30.645H15.291H18.1124C18.5266 30.645 18.8624 30.9808 18.8624 31.395V36.9209C18.8624 37.3352 18.5266 37.6709 18.1124 37.6709H15.5826C15.493 37.7088 15.3944 37.7297 15.291 37.7297C15.1876 37.7297 15.0891 37.7088 14.9994 37.6709H12.4102C11.9959 37.6709 11.6602 37.3352 11.6602 36.9209V31.395ZM13.1602 32.145H14.541V36.1709H13.1602V32.145ZM16.041 32.145V36.1709H17.3624V32.145H16.041ZM21.9336 22.1211C21.5194 22.1211 21.1836 22.4569 21.1836 22.8711V28.397C21.1836 28.8112 21.5194 29.147 21.9336 29.147H24.8145H27.6359C28.0501 29.147 28.3859 28.8112 28.3859 28.397V22.8711C28.3859 22.4569 28.0501 22.1211 27.6359 22.1211H24.8145H21.9336ZM24.0645 23.6211H22.6836V27.647H24.0645V23.6211ZM25.5645 27.647V23.6211H26.8859V27.647H25.5645ZM30.9414 22.8711C30.9414 22.4569 31.2772 22.1211 31.6914 22.1211H34.5137H37.3937C37.8079 22.1211 38.1437 22.4569 38.1437 22.8711V28.397C38.1437 28.8112 37.8079 29.147 37.3937 29.147H34.5137H31.6914C31.2772 29.147 30.9414 28.8112 30.9414 28.397V22.8711ZM32.4414 23.6211H33.7637V27.647H32.4414V23.6211ZM35.2637 23.6211V27.647H36.6437V23.6211H35.2637ZM31.6914 30.645C31.2772 30.645 30.9414 30.9808 30.9414 31.395V36.9209C30.9414 37.3352 31.2772 37.6709 31.6914 37.6709H34.2221C34.3117 37.7088 34.4103 37.7297 34.5137 37.7297C34.6171 37.7297 34.7156 37.7088 34.8053 37.6709H37.3937C37.8079 37.6709 38.1437 37.3352 38.1437 36.9209V31.395C38.1437 30.9808 37.8079 30.645 37.3937 30.645H34.5137H31.6914ZM33.7637 32.145H32.4414V36.1709H33.7637V32.145ZM35.2637 36.1709V32.145H36.6437V36.1709H35.2637Z" />
  </symbol>
  <symbol id="hotel-big" viewBox="0 0 71 70">
    <path xmlns="http://www.w3.org/2000/svg" fill-rule="evenodd" clip-rule="evenodd" d="M47.2084 5.10321C47.4463 4.96356 47.7416 4.96577 47.9774 5.10897L66.9056 16.6051C67.1931 16.7797 67.3292 17.1244 67.2385 17.4483C67.1478 17.7722 66.8526 17.9962 66.5163 17.9962H63.2512V63.6356C63.2512 64.0498 62.9154 64.3856 62.5012 64.3856H32.8422C32.8411 64.3856 32.8399 64.3856 32.8388 64.3856H3.75C3.33579 64.3856 3 64.0498 3 63.6356V34.4904C3 34.0762 3.33579 33.7404 3.75 33.7404H32.0069V17.9962H28.0043C27.6659 17.9962 27.3694 17.7695 27.2806 17.4429C27.1918 17.1163 27.3328 16.7707 27.6247 16.5994L47.2084 5.10321ZM33.5888 62.8856V34.4904C33.5888 34.3676 33.5592 34.2516 33.5069 34.1492V17.9748C33.5069 17.8658 33.4836 17.7623 33.4419 17.6689L47.4997 9.53473L61.4605 17.8897C61.5497 17.9431 61.6487 17.9772 61.7512 17.9902V62.8856H45.7201V51.087C45.7201 50.5347 45.2724 50.087 44.7201 50.087H38.083C37.5307 50.087 37.083 50.5347 37.083 51.087V62.8856H33.5888ZM32.0069 35.2404H4.5V62.8856H32.0069V35.2404ZM30.7635 16.4962H32.4736L47.1305 8.01536C47.3663 7.87893 47.6575 7.88107 47.8913 8.02096L62.0529 16.4962H63.8366L47.5815 6.62352L30.7635 16.4962ZM37.7552 16.9223H44.6382C45.0479 16.9223 45.2937 17.2462 45.3757 17.651V24.3705C45.3757 24.7753 45.0479 25.0992 44.6382 25.0992H37.7552C37.3455 25.0992 37.0178 24.7753 37.0178 24.3705V17.651C37.0178 17.2462 37.3455 16.9223 37.7552 16.9223ZM40.5412 18.3796H38.4927V23.7229H40.5412V18.3796ZM41.8522 23.6419H43.9007V18.2986H41.8522V23.6419ZM44.7201 28.0137H37.8372C37.4274 28.0137 37.0997 28.3375 37.0997 28.7423V35.4619C37.0997 35.8667 37.4274 36.1906 37.8372 36.1906H44.7201C45.1298 36.1906 45.4576 35.8667 45.4576 35.4619V28.7423C45.4576 28.2566 45.1298 28.0137 44.7201 28.0137ZM38.5746 29.39H40.6231V34.7333H38.5746V29.39ZM43.9827 34.7333H41.9342V29.39H43.9827V34.7333ZM56.6834 28.0137H49.8004C49.3907 28.0137 49.0629 28.3375 49.0629 28.7423V35.4619C49.0629 35.8667 49.3907 36.1906 49.8004 36.1906H56.6834C57.0931 36.1906 57.4208 35.8667 57.4208 35.4619V28.7423C57.4208 28.2566 57.0931 28.0137 56.6834 28.0137ZM50.5379 29.39H52.5864V34.7333H50.5379V29.39ZM56.0279 34.7333H53.9794V29.39H56.0279V34.7333ZM56.6014 16.9223H49.8004C49.3907 16.9223 49.0629 17.2462 49.0629 17.651V24.3705C49.0629 24.7753 49.3907 25.0992 49.8004 25.0992H56.6834C57.0931 25.0992 57.4208 24.7753 57.4208 24.3705V17.651C57.3389 17.2462 57.0111 16.9223 56.6014 16.9223ZM50.4559 18.3796H52.5044V23.7229H50.4559V18.3796ZM55.9459 23.6419H53.8974V18.2986H55.9459V23.6419ZM38.001 38.8622H44.884C45.2118 38.8622 45.5395 39.186 45.6215 39.5908V46.3104C45.6215 46.7152 45.2937 47.039 44.884 47.039H38.001C37.5913 47.039 37.2636 46.7152 37.2636 46.3104V39.5908C37.2636 39.186 37.5913 38.8622 38.001 38.8622ZM40.787 40.2385H38.7385V45.5818H40.787V40.2385ZM42.098 45.5818H44.1465V40.2385H42.098V45.5818ZM56.8473 38.8622H49.9643C49.5546 38.8622 49.2268 39.186 49.2268 39.5908V46.3104C49.2268 46.7152 49.5546 47.039 49.9643 47.039H56.8473C57.257 47.039 57.5847 46.7152 57.5847 46.3104V39.5908C57.5847 39.186 57.257 38.8622 56.8473 38.8622ZM50.7017 40.2385H52.7503V45.5818H50.7017V40.2385ZM56.1098 45.5818H54.0613V40.2385H56.1098V45.5818ZM8.50255 39.0241H15.3855C15.7952 39.0241 16.0411 39.3479 16.123 39.6718V46.3914C16.123 46.7962 15.7952 47.12 15.3855 47.12H8.50255C8.09285 47.12 7.76509 46.7962 7.76509 46.3914V39.7527C7.76509 39.3479 8.09285 39.0241 8.50255 39.0241ZM11.2885 40.4004H9.24002V45.7437H11.2885V40.4004ZM12.5996 45.7437H14.6481V40.4004H12.5996V45.7437ZM27.5946 39.0241H20.7116C20.3019 39.0241 19.9742 39.3479 19.9742 39.7527V46.3914C19.9742 46.7962 20.3019 47.12 20.7116 47.12H27.5946C28.0043 47.12 28.3321 46.7962 28.3321 46.3914V39.6718C28.3321 39.3479 28.0043 39.0241 27.5946 39.0241ZM21.4491 40.4004H23.4976V45.7437H21.4491V40.4004ZM26.8571 45.7437H24.8086V40.4004H26.8571V45.7437ZM8.50255 50.2774H15.3036C15.7133 50.2774 16.0411 50.6012 16.123 51.006V57.7256C16.123 58.1304 15.7952 58.4543 15.3855 58.4543H8.50255C8.09285 58.4543 7.76509 58.1304 7.76509 57.7256V51.006C7.76509 50.6012 8.09285 50.2774 8.50255 50.2774ZM11.2066 51.6537H9.15808V56.997H11.2066V51.6537ZM12.5996 56.997H14.6481V51.6537H12.5996V56.997ZM27.5127 50.2774H20.6297C20.22 50.2774 19.8922 50.6012 19.8922 51.006V57.7256C19.8922 58.1304 20.22 58.4543 20.6297 58.4543H27.5127C27.9224 58.4543 28.2501 58.1304 28.2501 57.7256V51.006C28.2501 50.6012 27.9224 50.2774 27.5127 50.2774ZM21.3672 51.6537H23.4157V56.997H21.3672V51.6537ZM26.8572 56.997H24.8087V51.6537H26.8572V56.997ZM49.9643 50.2774H56.8473C57.257 50.2774 57.5847 50.6012 57.5847 51.006V57.7256C57.5847 58.1304 57.257 58.4543 56.8473 58.4543H49.9643C49.5546 58.4543 49.2268 58.1304 49.2268 57.7256V51.006C49.2268 50.6012 49.5546 50.2774 49.9643 50.2774ZM52.7503 51.6537H50.7017V56.997H52.7503V51.6537ZM54.0613 56.997H56.1098V51.6537H54.0613V56.997ZM9.97748 33.1951H10.633C10.7969 33.1951 10.9608 33.1141 10.9608 32.8712V27.9327C10.9608 27.7708 10.7969 27.6089 10.633 27.6089H9.97748C9.8136 27.6089 9.64972 27.7708 9.64972 27.9327V29.7138H7.92898V27.9327C7.92898 27.7708 7.7651 27.6089 7.60122 27.6089H6.9457C6.78181 27.6089 6.61793 27.7708 6.61793 27.9327V32.8712C6.61793 33.0331 6.78181 33.1951 6.9457 33.1951H7.51928C7.68316 33.1951 7.84704 33.0331 7.84704 32.8712V30.8473H9.64972V32.8712C9.64972 33.0331 9.8136 33.1951 9.97748 33.1951ZM11.6982 30.4425C11.6982 32.1426 12.7635 33.276 14.2384 33.276C15.5494 33.276 16.8605 32.3855 16.8605 30.3615C16.8605 28.6614 15.7952 27.5279 14.3203 27.5279C12.7635 27.5279 11.6982 28.7423 11.6982 30.4425ZM13.0093 30.5234C13.0093 29.7138 13.337 28.7423 14.3203 28.7423C15.1397 28.7423 15.5494 29.6329 15.6314 30.4425C15.6314 31.333 15.2217 32.2236 14.3203 32.2236C13.419 32.2236 13.0093 31.333 13.0093 30.5234ZM18.6632 33.1951H19.3187C19.5645 33.1951 19.6465 33.1141 19.5645 32.8712V28.7423H20.7936C20.9575 28.7423 21.1214 28.5804 21.1214 28.4185V27.8518C21.1214 27.6899 20.9575 27.5279 20.7936 27.5279H17.1063C16.9424 27.5279 16.7785 27.6899 16.7785 27.8518V28.4185C16.7785 28.5804 16.9424 28.7423 17.1063 28.7423H18.3354V32.8712C18.3354 33.0331 18.4993 33.1951 18.6632 33.1951ZM22.2685 33.1951H25.0545C25.1505 33.1951 25.2464 33.1673 25.326 33.1443L25.326 33.1443L25.326 33.1443L25.326 33.1443C25.3823 33.128 25.4303 33.1141 25.4642 33.1141V32.5474C25.4642 32.3855 25.3003 32.2236 25.1364 32.2236H23.2518V31.0092H24.8906C25.0545 31.0092 25.2184 30.8473 25.2184 30.6853V30.1186C25.2184 29.9567 25.0545 29.7948 24.8906 29.7948H23.2518V28.8233H24.9726C25.1364 28.8233 25.3003 28.6614 25.3003 28.4995V27.9327C25.3003 27.7708 25.1364 27.6089 24.9726 27.6089H22.2685C22.1046 27.6089 21.9408 27.7708 21.9408 27.9327V32.8712C21.9408 33.0331 22.1046 33.1951 22.2685 33.1951ZM26.4475 33.1951H29.2334C29.3973 33.1951 29.4793 33.1141 29.5612 32.9522V32.3855C29.5612 32.2236 29.3973 32.0616 29.2334 32.0616H27.4307V27.9327C27.4307 27.7708 27.2669 27.6089 27.103 27.6089H26.4475C26.2836 27.6089 26.1197 27.7708 26.1197 27.9327V32.8712C26.1197 33.0331 26.2836 33.1951 26.4475 33.1951ZM39.083 52.087V62.3118H43.7201V52.087H39.083Z"/>
  </symbol>
  <symbol id="apartment-big" viewBox="0 0 70 70">
    <path xmlns="http://www.w3.org/2000/svg" fill-rule="evenodd" clip-rule="evenodd" d="M5 10.75C5 10.3358 5.33579 10 5.75 10H64.75C65.1642 10 65.5 10.3358 65.5 10.75V58.75C65.5 59.1642 65.1642 59.5 64.75 59.5H5.75C5.33579 59.5 5 59.1642 5 58.75V10.75ZM6.5 11.5V58H12.8759C12.8698 57.9616 12.8667 57.9222 12.8667 57.882C12.8667 57.4678 13.2025 57.132 13.6167 57.132H15.5763V37.453H10.1204C9.88567 37.453 9.66451 37.3431 9.52272 37.1561C9.38092 36.9691 9.33486 36.7265 9.39823 36.5005L11.3212 29.6433C11.412 29.3196 11.7071 29.0958 12.0433 29.0958H20.9589C21.3119 29.0958 21.6171 29.342 21.6919 29.687L23.1778 36.5441C23.2258 36.7658 23.171 36.9973 23.0286 37.1738C22.8862 37.3504 22.6716 37.453 22.4448 37.453H17.0763V57.132H18.8611C19.2753 57.132 19.6111 57.4678 19.6111 57.882C19.6111 57.9222 19.608 57.9616 19.6019 58H24.8207C24.0088 57.6419 23.443 56.835 23.443 55.8856V47.2057C23.443 45.9186 24.483 44.8933 25.7663 44.8933H26.3274V41.7373C26.3274 40.2766 27.4548 39.1646 28.913 39.1646H54.6982C56.1563 39.1646 57.2837 40.2766 57.2837 41.7373V44.8933H57.9322C59.2156 44.8933 60.2556 45.9186 60.2556 47.2057V55.8856C60.2556 56.835 59.6898 57.6419 58.8779 58H64V11.5H6.5ZM54.1895 58C54.0456 57.9365 53.9093 57.8589 53.7826 57.7688C53.7158 57.8509 53.6434 57.9281 53.566 58H54.1895ZM30.1667 58C30.0705 57.913 29.9812 57.8181 29.8999 57.716C29.7534 57.8288 29.593 57.9244 29.4216 58H30.1667ZM30.7993 47.8827C31.0989 47.7474 31.4353 47.6709 31.7974 47.6709H51.9011C52.2168 47.6709 52.5259 47.7339 52.8119 47.8505V47.2057C52.8119 45.9186 53.8518 44.8933 55.1352 44.8933H55.7837V41.7373C55.7837 41.1149 55.3378 40.6646 54.6982 40.6646H28.913C28.2733 40.6646 27.8274 41.1149 27.8274 41.7373V44.8933H28.4759C29.7593 44.8933 30.7993 45.9186 30.7993 47.2057V47.8827ZM54.3119 55.8856C54.3119 56.3345 54.6704 56.698 55.1352 56.698H57.9322C58.397 56.698 58.7556 56.3345 58.7556 55.8856V47.2057C58.7556 46.7568 58.397 46.3933 57.9322 46.3933H55.1352C54.6704 46.3933 54.3119 46.7568 54.3119 47.2057V55.8856ZM52.8119 50.0701C52.8119 49.5598 52.3919 49.1709 51.9011 49.1709H31.7974C31.2708 49.1709 30.8867 49.5954 30.8867 50.0701V56.2328C30.8867 56.7431 31.3066 57.132 31.7974 57.132H51.9011C52.4533 57.132 52.8119 56.7685 52.8119 56.2328V50.0701ZM32.883 19.8639C32.883 19.4497 33.2188 19.1139 33.633 19.1139H49.9781C50.3924 19.1139 50.7281 19.4497 50.7281 19.8639V29.8458C50.7281 30.2601 50.3924 30.5958 49.9781 30.5958H33.633C33.2188 30.5958 32.883 30.2601 32.883 29.8458V19.8639ZM34.383 20.6139V29.0958H49.2281V20.6139H34.383ZM12.6119 30.5958L11.1096 35.953H21.5149L20.354 30.5958H12.6119ZM25.7663 46.3933C25.3015 46.3933 24.943 46.7568 24.943 47.2057V55.8856C24.943 56.3345 25.3015 56.698 25.7663 56.698H28.4759C28.9407 56.698 29.2993 56.3345 29.2993 55.8856V47.2057C29.2993 46.7568 28.9407 46.3933 28.4759 46.3933H25.7663Z" />
  </symbol>
  <symbol id="bar" viewBox="0 0 50 50">
    <path xmlns="http://www.w3.org/2000/svg" fill-rule="evenodd" clip-rule="evenodd" d="M13.6636 5C13.6636 4.58579 13.9994 4.25 14.4136 4.25H18.7078C19.122 4.25 19.4578 4.58579 19.4578 5V16.7977C22.0294 17.981 23.6328 20.7113 23.6328 24.1379V44.8851C23.6328 45.2993 23.297 45.6351 22.8828 45.6351H10C9.80064 45.6351 9.60944 45.5556 9.46871 45.4144C9.32797 45.2731 9.24929 45.0816 9.25005 44.8822L10 44.8851C9.25005 44.8822 9.25005 44.8823 9.25005 44.8822L9.2525 44.2006C9.25401 43.763 9.25611 43.132 9.25844 42.3586C9.2631 40.8116 9.26869 38.6945 9.27242 36.414C9.27987 31.8509 9.27985 26.6406 9.2501 24.0315L9.25 24.023L9.25005 23.6207C9.25005 23.6109 9.25024 23.6011 9.25062 23.5913C9.37354 20.4525 11.1769 17.8932 13.6636 16.7429V5ZM10.7527 44.1351H22.1328V24.1379C22.1328 20.9964 20.6021 18.7932 18.4494 18.0029C18.1541 17.8945 17.9578 17.6134 17.9578 17.2989V15.4052H15.1636V17.2414C15.1636 17.5538 14.9699 17.8334 14.6775 17.9434C12.5253 18.7527 10.863 20.8905 10.75 23.6357V24.0187C10.7799 26.6409 10.7799 31.8585 10.7724 36.4165C10.7687 38.6978 10.7631 40.8156 10.7584 42.3631C10.7562 43.0961 10.7542 43.7012 10.7527 44.1351ZM15.1636 13.9052H17.9578V9.25575H15.1636V13.9052ZM15.1636 7.75575H17.9578V5.75H15.1636V7.75575ZM29.359 17.9844C29.4174 17.6208 29.7312 17.3534 30.0995 17.3534H38.6879C39.0614 17.3534 39.3779 17.6282 39.4305 17.9979L40.6175 26.3481C40.6781 26.5878 40.75 26.9298 40.75 27.2414V27.7011L40.7499 27.7158C40.6866 30.9513 38.1994 33.5438 35.0244 33.8751V41.4114C35.3248 41.4421 35.6218 41.4955 35.9103 41.5773L35.9221 41.5806C35.9502 41.5891 35.9792 41.5978 36.0091 41.6067C36.4611 41.7416 37.1122 41.9359 37.7102 42.3785C38.3763 42.8715 38.928 43.6285 39.235 44.8117C39.2933 45.0363 39.2442 45.2753 39.1022 45.4589C38.9602 45.6425 38.7411 45.75 38.509 45.75H29.9205C29.7071 45.75 29.5037 45.659 29.3614 45.4999C29.2191 45.3408 29.1514 45.1285 29.1752 44.9164L29.9205 45C29.1752 44.9164 29.1752 44.9168 29.1752 44.9164L29.1754 44.9148L29.1756 44.913L29.1761 44.9088L29.1774 44.898C29.1785 44.8898 29.1799 44.8795 29.1817 44.8673C29.1853 44.8428 29.1905 44.8104 29.1977 44.7711C29.2123 44.6927 29.2352 44.5858 29.2707 44.4584C29.3413 44.2051 29.4636 43.8623 29.673 43.4982C30.0993 42.7569 30.8841 41.9388 32.2586 41.6251L32.2684 41.6229C32.6639 41.5382 33.0882 41.4653 33.5244 41.4216V33.8631C30.3587 33.4862 27.8584 30.9267 27.8584 27.7011V27.3563C27.8584 26.8971 27.9241 26.4883 28.0567 26.084L29.359 17.9844ZM30.6658 45.0847C30.6653 45.0882 30.6651 45.0899 30.6651 45.0897L30.6653 45.0881L30.6656 45.0862L30.6658 45.0847ZM30.971 44.25C30.9717 44.2487 30.9725 44.2474 30.9732 44.2461C31.2323 43.7956 31.6988 43.2928 32.5877 43.0886C33.6195 42.8681 34.6623 42.7843 35.4958 43.0189L35.5279 43.0285C36.0135 43.1746 36.4364 43.3019 36.8178 43.5842C37.0207 43.7344 37.2269 43.9415 37.4094 44.25H30.971ZM30.7385 18.8534L29.5278 26.3834C29.5209 26.4263 29.5103 26.4685 29.4961 26.5096C29.4461 26.6541 29.4096 26.7979 29.3868 26.9511H39.2157C39.1997 26.8669 39.1789 26.7756 39.1548 26.6826C39.1477 26.6553 39.1422 26.6277 39.1382 26.5998L38.037 18.8534H30.7385ZM39.1741 28.4511C38.7647 30.7079 36.7707 32.4109 34.334 32.4109C31.824 32.4109 29.7951 30.6921 29.4204 28.4511H39.1741ZM12.0532 26.5517C12.0532 26.1375 12.389 25.8017 12.8032 25.8017H20.1392C20.5534 25.8017 20.8892 26.1375 20.8892 26.5517V38.7356C20.8892 39.1498 20.5534 39.4856 20.1392 39.4856H12.8032C12.389 39.4856 12.0532 39.1498 12.0532 38.7356V26.5517ZM13.5532 27.3017V37.9856H19.3892V27.3017H13.5532Z" />
  </symbol>
</svg>
