<svg version="1.1" xmlns="http://www.w3.org/2000/svg" xmlns:xlink="http://www.w3.org/1999/xlink">
  <symbol id="en" viewBox="0 0 32 20">
    <rect width="32" height="20" rx="2" fill="#0A17A7"/>
    <path fill-rule="evenodd" clip-rule="evenodd" d="M-1.46568 -1.91628L12.1905 6.14353V-1.33308H19.8095V6.14356L33.4657 -1.91623L35.1699 0.294541L24.3728 6.66692H32V13.3336H24.373L35.1699 19.7059L33.4657 21.9166L19.8095 13.8568V21.3336H12.1905V13.8569L-1.46567 21.9167L-3.16988 19.7059L7.62709 13.3336H8.59189e-06V6.66692H7.62726L-3.16989 0.294492L-1.46568 -1.91628Z" fill="white"/>
    <path fill-rule="evenodd" clip-rule="evenodd" d="M36.0984 -2.1663C36.1903 -2.00675 36.1354 -1.80295 35.9758 -1.71111L21.5011 6.62108C21.3416 6.71293 21.1378 6.65804 21.0459 6.49849C20.9541 6.33894 21.009 6.13515 21.1685 6.04331L35.6432 -2.28889C35.8028 -2.38073 36.0066 -2.32584 36.0984 -2.1663ZM36.1347 21.5198C36.2282 21.3612 36.1755 21.1568 36.0169 21.0633L23.0411 13.4105C22.8825 13.317 22.6782 13.3697 22.5847 13.5283C22.4911 13.6868 22.5439 13.8912 22.7024 13.9847L35.6783 21.6375C35.8368 21.7311 36.0412 21.6783 36.1347 21.5198ZM-4.21639 -1.95829C-4.37497 -2.0518 -4.57932 -1.99905 -4.67284 -1.84048C-4.76635 -1.6819 -4.7136 -1.47754 -4.55503 -1.38403L8.97985 6.59742C9.13843 6.69093 9.34279 6.63818 9.4363 6.47961C9.52981 6.32103 9.47706 6.11667 9.31849 6.02316L-4.21639 -1.95829ZM-4.67402 22.4776C-4.58162 22.6369 -4.37764 22.691 -4.21841 22.5986L10.7845 13.8931C10.9437 13.8007 10.9979 13.5967 10.9055 13.4375C10.8131 13.2782 10.6091 13.2241 10.4499 13.3165L-4.553 22.022C-4.71223 22.1144 -4.76641 22.3184 -4.67402 22.4776ZM13.7143 12H0V8H13.7143V0H18.2857V8H32V12H18.2857V20H13.7143V12Z" fill="#E6273E"/>
  </symbol>
  <symbol id="fr" viewBox="0 0 32 20">
    <rect width="32" height="20" rx="2" fill="white"/>
    <rect x="21.3333" width="10.6667" height="20" fill="#F44653"/>
    <path fill-rule="evenodd" clip-rule="evenodd" d="M0 20H10.6667V0H0V20Z" fill="#1035BB"/>
  </symbol>
  <symbol id="it" viewBox="0 0 32 20">
    <rect width="32" height="20" rx="2" fill="white"/>
    <rect x="21.3333" width="10.6667" height="20" fill="#E43D4C"/>
    <path fill-rule="evenodd" clip-rule="evenodd" d="M0 20H10.6667V0H0V20Z" fill="#1BB65D"/>
  </symbol>
  <symbol id="ru" viewBox="0 0 32 20">
    <rect width="32" height="20" rx="2" fill="white"/>
    <path fill-rule="evenodd" clip-rule="evenodd" d="M0 13.3332H32V6.66652H0V13.3332Z" fill="#0C47B7"/>
    <path fill-rule="evenodd" clip-rule="evenodd" d="M0 20.0001H32V13.3335H0V20.0001Z" fill="#E53B35"/>
  </symbol>
  <symbol id="se" viewBox="0 0 32 20">
    <rect width="32" height="20" rx="2" fill="#157CBB"/>
    <path fill-rule="evenodd" clip-rule="evenodd" d="M0 12H9.14286V20H13.7143V12H32V8H13.7143V0H9.14286V8H0V12Z" fill="#FFD34D"/>
  </symbol>
</svg>
