<svg version="1.1" xmlns="http://www.w3.org/2000/svg" xmlns:xlink="http://www.w3.org/1999/xlink">
  <symbol id="google" viewBox="0 0 512 512">
    <path d="m420.7 450.7c-44.4 37.5-101.999 61.3-164.7 61.3-93.3 0-175.201-51.4-219.6-126.4l16.622-76.622 73.678-13.678c17.1 55.199 68.699 95.7 129.3 95.7 29.399 0 56.7-9.3 79.2-25.8l70.8 10.8z" fill="#59c36a"/><path d="m420.7 450.7-14.7-74.7-70.8-10.8c-22.5 16.5-49.801 25.8-79.2 25.8v121c62.701 0 120.3-23.8 164.7-61.3z" fill="#00a66c"/><g id="Connected_Home_1_"><g><g><g><path d="m121 256c0 13.799 2.1 26.999 5.7 39.3l-90.3 90.3c-22.5-37.8-36.4-82.201-36.4-129.6 0-47.401 13.9-91.8 36.4-129.6l72.473 12.473 17.827 77.827c-3.6 12.299-5.7 25.499-5.7 39.3z" fill="#ffda2d"/></g></g></g></g><path d="m512 256c0 77.999-36.099 147.9-91.3 194.7l-85.5-85.5c17.399-12.601 32.1-29.401 41.7-49.2h-120.9c-8.401 0-15-6.601-15-15v-90c0-8.401 6.599-15 15-15h236.8c7.2 0 13.5 5.099 14.7 12.299 3 15.601 4.5 31.8 4.5 47.701z" fill="#4086f4"/><path d="m376.901 316c-9.6 19.799-24.302 36.599-41.7 49.2l85.499 85.5c55.201-46.8 91.3-116.7 91.3-194.7 0-15.901-1.5-32.1-4.501-47.701-1.199-7.2-7.5-12.299-14.7-12.299h-236.799v120z" fill="#4175df"/><path d="m424.9 71.499c.3 4.2-1.5 8.101-4.2 11.1l-64.2 63.9c-5.099 5.4-13.499 6-19.499 1.5-23.702-17.699-51.602-26.999-81.001-26.999-60.601 0-112.2 40.499-129.3 95.7l-90.3-90.3c44.399-75 126.3-126.4 219.6-126.4 59.7 0 117.9 22 163.5 60.399 3.3 2.701 5.1 6.9 5.4 11.1z" fill="#ff641a"/><path d="m337 147.999c6 4.501 14.399 3.9 19.499-1.5l64.2-63.9c2.701-2.999 4.501-6.899 4.2-11.1s-2.1-8.399-5.4-11.1c-45.599-38.399-103.799-60.399-163.499-60.399v121c29.399 0 57.299 9.3 81 26.999z" fill="#f03800"/>
  </symbol>
  <symbol id="facebook" viewBox="0 0 24 24">
    <path d="m21 0h-18c-1.655 0-3 1.345-3 3v18c0 1.654 1.345 3 3 3h18c1.654 0 3-1.346 3-3v-18c0-1.655-1.346-3-3-3z" fill="#3b5999"/><path d="m16.5 12v-3c0-.828.672-.75 1.5-.75h1.5v-3.75h-3c-2.486 0-4.5 2.014-4.5 4.5v3h-3v3.75h3v8.25h4.5v-8.25h2.25l1.5-3.75z" fill="#fff"/>
  </symbol>
  <symbol id="apple" viewBox="0 0 28 28">
    <path xmlns="http://www.w3.org/2000/svg" fill-rule="evenodd" clip-rule="evenodd" d="M14.9944 2.30299C16.0112 1.05874 17.7559 0.103249 19.2486 0C19.4989 1.70099 18.8077 3.36698 17.8942 4.54472C16.9177 5.80997 15.2324 6.78821 13.6014 6.73746C13.304 5.10822 14.0669 3.43173 14.9944 2.30299ZM19.7982 6.55371C21.7005 6.55371 23.7147 7.5967 25.148 9.39394C20.4492 11.9857 21.2105 18.7371 25.9582 20.5449C25.3055 22.0009 24.9922 22.6501 24.1505 23.9399C22.9762 25.7388 21.3225 27.9806 19.2697 27.9963C18.4259 28.0053 17.8724 27.7499 17.2755 27.4745C16.5837 27.1553 15.8337 26.8093 14.5063 26.8168C13.1862 26.8234 12.4242 27.1651 11.7229 27.4796C11.1106 27.7542 10.5446 28.008 9.6938 27.9998C7.64281 27.9823 6.07482 25.9593 4.90058 24.1604C1.61934 19.1326 1.27285 13.2299 3.29758 10.0904C4.73783 7.86095 7.00931 6.55721 9.14255 6.55721C10.2795 6.55721 11.1958 6.88576 12.069 7.19884C12.8638 7.4838 13.6228 7.75595 14.48 7.75595C15.2732 7.75595 15.9253 7.50749 16.6366 7.23647C17.49 6.91133 18.4286 6.55371 19.7982 6.55371Z" fill="black"/>
  </symbol>
</svg>
