<svg version="1.1" xmlns="http://www.w3.org/2000/svg" xmlns:xlink="http://www.w3.org/1999/xlink">
  <symbol id="feed" viewBox="0 0 20 20">
    <path xmlns="http://www.w3.org/2000/svg" fill-rule="evenodd" clip-rule="evenodd" d="M0.585938 4.6875C8.70621 4.6875 15.3125 11.2938 15.3125 19.4141V20H20V19.4141C20 14.1293 17.8606 9.26544 14.2976 5.70236C10.735 2.13989 5.87143 0 0.585938 0H0V4.6875H0.585938ZM1.17188 1.18118C10.7664 1.48514 18.5149 9.23355 18.8188 18.8281H16.4737C16.3283 14.8402 14.6736 11.0503 11.8117 8.18832C8.95569 5.33249 5.16846 3.67203 1.17188 3.52631V1.18118ZM8.28125 19.4141V20H12.9688V19.4141C12.9688 16.1261 11.6536 13.0022 9.32571 10.6743C7.00089 8.34946 3.87802 7.03125 0.585938 7.03125H0V11.7188H0.585938C4.75723 11.7188 8.28125 15.2428 8.28125 19.4141ZM1.17188 8.21823C6.88812 8.5141 11.4859 13.1119 11.7818 18.8281H9.43375C9.2926 16.6988 8.38409 14.7044 6.83975 13.1602C5.29556 11.6159 3.30124 10.7074 1.17188 10.5663V8.21823ZM5.9375 17.0312C5.9375 18.6571 4.58191 20 2.96875 20C1.34293 20 0 18.6444 0 17.0312C0 15.4054 1.35559 14.0625 2.96875 14.0625C4.59457 14.0625 5.9375 15.4181 5.9375 17.0312ZM4.76562 17.0312C4.76562 16.0573 3.94272 15.2344 2.96875 15.2344C1.99478 15.2344 1.17188 16.0573 1.17188 17.0312C1.17188 18.0052 1.99478 18.8281 2.96875 18.8281C3.94272 18.8281 4.76562 18.0052 4.76562 17.0312Z" />
  </symbol>
  <symbol id="home" viewBox="0 0 20 20">
    <path xmlns="http://www.w3.org/2000/svg" d="M18.5707 7.8213L10.2374 0.182392C9.9659 -0.0660068 9.54832 -0.0599521 9.28441 0.196064L1.41402 7.83493C1.2793 7.96571 1.20312 8.14559 1.20312 8.33329V19.3055C1.20312 19.6891 1.51398 20 1.89758 20H7.68461C8.06816 20 8.37906 19.6891 8.37906 19.3055V14.2129H11.6198V19.3055C11.6198 19.6891 11.9307 20 12.3143 20H18.1013C18.4848 20 18.7957 19.6893 18.7957 19.3055V8.33333C18.7957 8.13864 18.7143 7.95302 18.5707 7.8213ZM17.4068 18.6111H13.0087V13.5185C13.0087 13.135 12.6978 12.8241 12.3143 12.8241H7.68465C7.30109 12.8241 6.9902 13.135 6.9902 13.5185V18.6111H2.59203V8.62708L9.78164 1.64907L17.4069 8.63888V18.6111H17.4068Z"/>
  </symbol>
  <symbol id="reservations" viewBox="0 0 20 20">
    <path xmlns="http://www.w3.org/2000/svg" fill-rule="evenodd" clip-rule="evenodd" d="M16.5 0H3.5C2.535 0 1.75 0.785 1.75 1.75V18.25C1.75 19.2148 2.535 20 3.5 20H16.5C17.4648 20 18.25 19.2148 18.25 18.25V1.75C18.25 0.785 17.4648 0 16.5 0ZM16.75 18.25C16.75 18.3855 16.6355 18.5 16.5 18.5H3.5C3.36449 18.5 3.25 18.3855 3.25 18.25V1.75C3.25 1.61449 3.36449 1.5 3.5 1.5H6.25V4C6.25 4.41426 6.58574 4.75 7 4.75H13C13.4143 4.75 13.75 4.41426 13.75 4V1.5H16.5C16.6355 1.5 16.75 1.61449 16.75 1.75V18.25ZM12.25 1.5H7.75V3.25H12.25V1.5ZM12.25 8.49805H7.5C7.08574 8.49805 6.75 8.83379 6.75 9.24805C6.75 9.6623 7.08574 9.99805 7.5 9.99805H12.25C12.6642 9.99805 13 9.6623 13 9.24805C13 8.83379 12.6642 8.49805 12.25 8.49805ZM6 11.502H14C14.4143 11.502 14.75 11.8377 14.75 12.252C14.75 12.6662 14.4143 13.002 14 13.002H6C5.58574 13.002 5.25 12.6662 5.25 12.252C5.25 11.8377 5.58574 11.502 6 11.502ZM14 14.5H6C5.58574 14.5 5.25 14.8357 5.25 15.25C5.25 15.6643 5.58574 16 6 16H14C14.4143 16 14.75 15.6643 14.75 15.25C14.75 14.8357 14.4143 14.5 14 14.5Z"/>
  </symbol>
  <symbol id="village" viewBox="0 0 20 20">
    <path xmlns="http://www.w3.org/2000/svg" d="M17.0695 2.93052C13.1625 -0.976527 6.83812 -0.977151 2.93053 2.93052C-0.976551 6.83756 -0.977137 13.1619 2.93053 17.0695C6.8375 20.9765 13.1619 20.9771 17.0695 17.0695C20.9765 13.1624 20.9771 6.83815 17.0695 2.93052ZM16.6516 15.6443C16.1845 15.2266 15.6848 14.857 15.1581 14.5384C15.5062 13.3359 15.7125 12.0126 15.7612 10.6371H18.7006C18.5677 12.4912 17.8553 14.2304 16.6516 15.6443ZM1.29936 10.6371H4.23872C4.28747 12.0126 4.49371 13.3359 4.84182 14.5384C4.31514 14.857 3.81547 15.2266 3.34836 15.6443C2.14465 14.2304 1.4323 12.4912 1.29936 10.6371ZM3.34839 4.35568C3.81551 4.77339 4.31518 5.14305 4.84186 5.46162C4.49375 6.66411 4.28751 7.98737 4.23876 9.36288H1.29936C1.4323 7.50885 2.14465 5.76961 3.34839 4.35568ZM9.3629 5.5933C8.32382 5.51899 7.32195 5.26307 6.39314 4.84087C6.93332 3.44986 7.92915 1.78149 9.3629 1.36804V5.5933ZM9.3629 6.86992V9.36292H5.5135C5.55761 8.19934 5.72247 7.08201 5.99666 6.05968C7.05217 6.5211 8.18733 6.79666 9.3629 6.86992ZM9.3629 10.6371V13.1301C8.18733 13.2034 7.05217 13.4789 5.99666 13.9404C5.72247 12.918 5.55761 11.8007 5.5135 10.6371H9.3629ZM9.3629 14.4067V18.632C7.92922 18.2185 6.9334 16.5503 6.39314 15.1592C7.32195 14.737 8.32382 14.481 9.3629 14.4067ZM10.6371 14.4067C11.6762 14.481 12.678 14.737 13.6069 15.1592C13.0666 16.5502 12.0708 18.2185 10.6371 18.632V14.4067ZM10.6371 13.1301V10.6371H14.4865C14.4424 11.8007 14.2775 12.918 14.0033 13.9404C12.9478 13.4789 11.8127 13.2034 10.6371 13.1301ZM10.6371 9.36292V6.86992C11.8127 6.79666 12.9478 6.5211 14.0033 6.05968C14.2775 7.08201 14.4424 8.19934 14.4865 9.36292H10.6371ZM10.6371 5.5933V1.36808C12.0708 1.78153 13.0667 3.4499 13.6069 4.84091C12.678 5.26307 11.6762 5.51899 10.6371 5.5933ZM13.4988 2.00416C14.3144 2.36129 15.0752 2.84555 15.7573 3.44639C15.4326 3.73264 15.0901 3.99219 14.7323 4.22431C14.4147 3.43776 14.0089 2.67338 13.4988 2.00416ZM5.26761 4.22431C4.90989 3.99219 4.56736 3.73264 4.24266 3.44639C4.92472 2.84555 5.68559 2.36129 6.50113 2.00416C5.99108 2.67346 5.58528 3.43784 5.26761 4.22431ZM5.26765 15.7757C5.58528 16.5622 5.99116 17.3267 6.50117 17.9959C5.68563 17.6387 4.92476 17.1545 4.2427 16.5537C4.56736 16.2674 4.90993 16.0078 5.26765 15.7757ZM14.7323 15.7757C15.0901 16.0078 15.4326 16.2674 15.7573 16.5536C15.0752 17.1545 14.3144 17.6387 13.4988 17.9958C14.0088 17.3267 14.4147 16.5623 14.7323 15.7757ZM15.7613 9.36292C15.7125 7.9874 15.5063 6.66411 15.1582 5.46165C15.6848 5.14309 16.1845 4.77343 16.6516 4.35572C17.8553 5.76961 18.5677 7.50885 18.7006 9.36292H15.7613Z"/>    
  </symbol>
  <symbol id="dots" viewBox="0 0 20 20">
    <path xmlns="http://www.w3.org/2000/svg" fill-rule="evenodd" clip-rule="evenodd" d="M3 11.6C3.88366 11.6 4.6 10.8837 4.6 10C4.6 9.11634 3.88366 8.4 3 8.4C2.11634 8.4 1.4 9.11634 1.4 10C1.4 10.8837 2.11634 11.6 3 11.6ZM3 13C4.65685 13 6 11.6569 6 10C6 8.34315 4.65685 7 3 7C1.34315 7 0 8.34315 0 10C0 11.6569 1.34315 13 3 13ZM10 11.6C10.8837 11.6 11.6 10.8837 11.6 10C11.6 9.11634 10.8837 8.4 10 8.4C9.11634 8.4 8.4 9.11634 8.4 10C8.4 10.8837 9.11634 11.6 10 11.6ZM10 13C11.6569 13 13 11.6569 13 10C13 8.34315 11.6569 7 10 7C8.34315 7 7 8.34315 7 10C7 11.6569 8.34315 13 10 13ZM18.6 10C18.6 10.8837 17.8837 11.6 17 11.6C16.1163 11.6 15.4 10.8837 15.4 10C15.4 9.11634 16.1163 8.4 17 8.4C17.8837 8.4 18.6 9.11634 18.6 10ZM20 10C20 11.6569 18.6569 13 17 13C15.3431 13 14 11.6569 14 10C14 8.34315 15.3431 7 17 7C18.6569 7 20 8.34315 20 10Z"/>
  </symbol>
</svg>
