<svg version="1.1" xmlns="http://www.w3.org/2000/svg" xmlns:xlink="http://www.w3.org/1999/xlink">
  <symbol id="wifi" viewBox="0 0 30 30">
    <path xmlns="http://www.w3.org/2000/svg" fill-rule="evenodd" clip-rule="evenodd" d="M0.195292 11.6034C3.73215 6.8415 9.3659 4 15.2757 4C20.8791 4 26.2343 6.55463 29.7895 10.8784C30.1231 11.284 30.0535 11.8851 29.6311 12.1972C29.243 12.4841 28.6956 12.4211 28.3894 12.0479C25.1789 8.13599 20.3392 5.8243 15.2759 5.8243C9.92702 5.8243 4.82749 8.40401 1.63497 12.7249C1.45604 12.9669 1.18011 13.095 0.900536 13.095C0.696974 13.095 0.491437 13.0271 0.320104 12.8859C-0.0620864 12.5712 -0.0999407 12.0008 0.195292 11.6034ZM11.9473 22.7764C11.9473 20.941 13.4405 19.448 15.2757 19.448C17.1109 19.448 18.6041 20.941 18.6041 22.7764C18.6041 24.6118 17.1111 26.1049 15.2757 26.1049C13.4403 26.1049 11.9473 24.6118 11.9473 22.7764ZM13.7716 22.7763C13.7716 23.6057 14.4464 24.2804 15.2757 24.2804C16.105 24.2804 16.7798 23.6057 16.7798 22.7763C16.7798 21.9468 16.1051 21.2721 15.2757 21.2721C14.4463 21.2721 13.7716 21.9468 13.7716 22.7763ZM15.2769 9.05103C10.5943 9.05103 6.26407 11.4024 3.69332 15.3411C3.41801 15.7629 3.53674 16.3282 3.95861 16.6035C4.38017 16.8789 4.9457 16.7602 5.22102 16.3382C7.45366 12.9176 11.2129 10.8753 15.2769 10.8753C19.3408 10.8753 23.1001 12.9175 25.3327 16.3382C25.5077 16.6062 25.7996 16.7519 26.0974 16.7519C26.2684 16.7519 26.4413 16.704 26.5951 16.6035C27.017 16.3282 27.1357 15.7629 26.8604 15.3411C24.2897 11.4024 19.9592 9.05103 15.2769 9.05103ZM7.11376 18.9026C8.62382 15.8046 11.829 13.7976 15.2752 13.7976C18.7215 13.7976 21.9266 15.8046 23.4408 18.9108C23.6191 19.2766 23.5331 19.7188 23.2305 19.9911C23.0562 20.148 22.838 20.2252 22.6206 20.2252C22.371 20.2252 22.1224 20.1233 21.9423 19.9233C21.8711 19.8442 21.8164 19.7564 21.7778 19.6635C20.5526 17.2033 18.0085 15.6219 15.2752 15.6219C12.5389 15.6219 9.9925 17.2065 8.7728 19.6633C8.73404 19.7562 8.67931 19.8444 8.60816 19.9234C8.27097 20.2979 7.69419 20.3281 7.3199 19.9912C7.01494 19.7167 6.93026 19.2696 7.11376 18.9026Z" />
  </symbol>
  <symbol id="panorama" viewBox="0 0 30 30">
    <path xmlns="http://www.w3.org/2000/svg" fill-rule="evenodd" clip-rule="evenodd" d="M1.11226 25.0727C1.05348 25.084 0.993818 25.0897 0.934167 25.0897C0.694865 25.0897 0.455563 24.9989 0.273749 24.8157C-0.0178844 24.524 -0.0765031 24.0877 0.0978928 23.7377V5.98843C0.0978928 5.59469 0.345636 5.24223 0.717022 5.10901C10.2266 1.69902 19.8696 1.69902 29.3792 5.10901C29.7506 5.24223 29.9986 5.59469 29.9986 5.98843V21.5173C30 21.5472 30 21.5771 29.9986 21.607V24.0535C29.9986 24.4471 29.7506 24.7997 29.3792 24.933C24.6251 26.6386 19.8372 27.4907 15.0482 27.4907C10.3917 27.4907 5.73644 26.6839 1.11226 25.0727ZM28.1298 21.9487V23.3906C19.7083 26.2718 11.1847 26.3592 2.75724 23.6528L8.59616 17.8139C8.75425 17.6569 8.88519 17.6558 9.04328 17.8139L11.2734 20.044C11.6384 20.409 12.2304 20.409 12.5954 20.044L19.1859 13.4522C19.3442 13.2952 19.4749 13.2941 19.6332 13.4522L28.1298 21.9487ZM28.1298 19.305L20.955 12.1304C20.1328 11.3069 18.6877 11.308 17.8653 12.1304L11.935 18.0607L10.3653 16.4921C9.54288 15.6686 8.09771 15.6697 7.27555 16.4921L1.96669 21.8008V6.65135C10.6514 3.67981 19.4449 3.67981 28.1298 6.65135V19.305ZM6.32938 13.7758C4.95516 13.7758 3.83781 12.6583 3.83781 11.284C3.83781 9.90981 4.95516 8.79224 6.32938 8.79224C7.7036 8.79224 8.82118 9.90981 8.82118 11.284C8.82118 12.6583 7.7036 13.7758 6.32938 13.7758ZM6.32938 10.661C5.98674 10.661 5.7066 10.9403 5.7066 11.284C5.7066 11.6278 5.98674 11.907 6.32938 11.907C6.67203 11.907 6.95239 11.6278 6.95239 11.284C6.95239 10.9403 6.67203 10.661 6.32938 10.661Z" />
  </symbol>
  <symbol id="ski" viewBox="0 0 30 30">
    <path xmlns="http://www.w3.org/2000/svg" d="M15 10.1492L6.4861 1.6354C5.00139 0.150452 2.83718 -0.372437 0.837902 0.27079L0.408635 0.408879L0.270546 0.838147C-0.372681 2.83725 0.150208 5.00157 1.63515 6.48635L10.149 15.0003L0.000400852 25.1488L4.8514 29.9998L15.0004 19.8509L25.1486 29.9999L29.9996 25.1488L19.8513 14.9999L28.3649 6.48635C29.8498 5.00146 30.3727 2.83725 29.7294 0.838147L29.5913 0.408879L29.1621 0.27079C28.6094 0.0929781 28.0352 0.00281272 27.4555 0.00281272C25.9665 0.00281272 24.5666 0.58259 23.5139 1.6354L15 10.1492ZM15.7008 16.6648L13.3354 14.2995L16.5078 11.127C17.16 10.4761 18.2204 10.4764 18.8721 11.1281C19.5242 11.7803 19.5242 12.8414 18.8721 13.4935L15.7008 16.6648ZM12.0926 15.5423L14.458 17.9077L8.0915 24.2741L5.72611 21.9087L12.0926 15.5423ZM20.1149 9.88533C19.694 9.46438 19.1825 9.16723 18.6248 9.01004L22.6113 5.02355L24.9767 7.38894L20.9886 11.377C20.8349 10.8305 20.5442 10.3146 20.1149 9.88533ZM27.4554 1.76036C27.6965 1.76036 27.9363 1.78321 28.1722 1.82838C28.4105 3.0634 28.0276 4.33796 27.122 5.24354L26.2194 6.14613L23.854 3.78074L24.7566 2.87815C25.4775 2.15735 26.4359 1.76036 27.4554 1.76036ZM9.00979 11.3755L5.0233 7.389L7.38869 5.0236L11.3752 9.0101C10.8174 9.16723 10.306 9.46438 9.88502 9.88539C9.46402 10.3064 9.16692 10.8177 9.00979 11.3755ZM1.82785 1.82809C3.06315 1.58953 4.33777 1.97263 5.24335 2.87821L6.14594 3.7808L3.78055 6.14619L2.8779 5.24354C1.97226 4.3379 1.58934 3.06316 1.82785 1.82809ZM11.1278 13.4935C10.4758 12.8414 10.4758 11.7802 11.1278 11.1281C11.7799 10.4761 12.841 10.4759 13.4932 11.1281L13.7572 11.392L11.3917 13.7575L11.1278 13.4935ZM2.48601 25.1488L4.4833 23.1515L6.84869 25.5169L4.8514 27.5142L2.48601 25.1488ZM25.1486 27.5142L23.1514 25.5168L25.5167 23.1515L27.514 25.1488L25.1486 27.5142ZM24.274 21.9086L21.9087 24.274L16.2432 18.608L18.6085 16.2427L24.274 21.9086Z"/>
  </symbol>
  <symbol id="tv" viewBox="0 0 30 30">
    <path xmlns="http://www.w3.org/2000/svg" fill-rule="evenodd" clip-rule="evenodd" d="M16.5866 5.94174H26.7056C28.5221 5.94174 30 7.41972 30 9.23628V26.0582C30 27.8748 28.5221 29.3526 26.7056 29.3526H3.29444C1.47788 29.3526 0 27.8748 0 26.0582V9.23628C0 7.41972 1.47788 5.94174 3.29444 5.94174H13.4134L10.1759 2.70427C9.78606 2.31437 9.78606 1.68215 10.1759 1.29235C10.566 0.902551 11.1979 0.902551 11.5879 1.29235L15 4.70447L18.4121 1.29235C18.8022 0.902551 19.4341 0.902551 19.8241 1.29235C20.2139 1.68225 20.2139 2.31447 19.8241 2.70427L16.5866 5.94174ZM26.7055 27.3561C27.421 27.3561 28.0033 26.7738 28.0033 26.0582H28.0034V9.23628C28.0034 8.52063 27.4211 7.93841 26.7056 7.93841H3.29444C2.57889 7.93841 1.99657 8.52063 1.99657 9.23628V26.0582C1.99657 26.7738 2.57889 27.3561 3.29444 27.3561H26.7055ZM13.0303 9.60596L21.4433 9.60605C21.8315 9.67585 22.1422 9.96777 22.2363 10.351V24.9455C22.1423 25.3287 21.8316 25.6206 21.4433 25.6905H13.0303H4.61718C4.2289 25.6206 3.91819 25.3287 3.82425 24.9455L3.82425 17.2713L3.82425 10.351C3.91819 9.96777 4.2289 9.67585 4.61718 9.60605L13.0303 9.60596ZM13.0303 23.8368H20.4448V11.4597H13.0303H5.61577V23.8368H13.0303ZM25.6066 12.7046C26.2889 12.7046 26.842 12.1514 26.842 11.4691C26.842 10.7868 26.2889 10.2336 25.6066 10.2336C24.9242 10.2336 24.3711 10.7868 24.3711 11.4691C24.3711 12.1514 24.9242 12.7046 25.6066 12.7046ZM26.842 16.4125C26.842 17.0948 26.2889 17.6479 25.6066 17.6479C24.9242 17.6479 24.3711 17.0948 24.3711 16.4125C24.3711 15.7301 24.9242 15.177 25.6066 15.177C26.2889 15.177 26.842 15.7301 26.842 16.4125Z" />
  </symbol>
</svg>
