<svg version="1.1" xmlns="http://www.w3.org/2000/svg" xmlns:xlink="http://www.w3.org/1999/xlink">
  <symbol id="peoples" viewBox="0 0 80 50">
    <path xmlns="http://www.w3.org/2000/svg" fill-rule="evenodd" clip-rule="evenodd" d="M15.5122 21.6672H15.3913C13.1767 21.6294 11.3853 20.8509 10.0701 19.3619C7.16009 16.0815 7.64383 10.458 7.69674 9.92131C7.88571 5.86239 9.82068 3.93498 11.408 3.03551C12.9877 2.13605 14.6354 2 15.4744 2H15.5198H15.55H15.6029C17.1298 2.03023 18.4978 2.39304 19.6694 3.06575C21.2416 3.96521 23.1463 5.89263 23.3353 9.92131C23.3882 10.458 23.8719 16.0815 20.9619 19.3619C19.6392 20.8509 17.8478 21.6294 15.6332 21.6672H15.5576H15.5122ZM9.71921 10.0741C9.71716 10.0853 9.71486 10.0978 9.71486 10.1103C9.70731 10.1556 9.19333 15.3181 11.5894 18.0089C12.5342 19.0822 13.8116 19.6113 15.4744 19.6264H15.5122H15.55C17.2205 19.6113 18.4903 19.0822 19.4427 18.0089C21.8463 15.303 21.3172 10.1632 21.3096 10.1103C21.302 10.0952 21.302 10.0725 21.302 10.0498C21.0677 4.92514 17.5984 4.0937 15.5576 4.04835H15.4971H15.4669C13.8191 4.04835 9.97185 4.63036 9.72242 10.0498C9.72242 10.0566 9.7209 10.0649 9.71921 10.0741ZM31.0448 30.9717V30.9944C31.049 31.2134 31.0532 31.9371 30.9907 32.709C32.5365 31.9282 33.5326 31.2334 33.5515 31.2192C34.0694 30.8541 34.7826 30.9815 35.1477 31.4994C35.5128 32.0173 35.3855 32.7305 34.8675 33.0956C34.8611 33.0998 34.8481 33.1085 34.8288 33.1215C34.4184 33.3981 31.1544 35.598 27.1158 36.6361C25.1376 37.3408 24.9168 39.4549 24.8574 41.3907C24.8574 41.43 24.8551 41.4671 24.853 41.5031C24.8509 41.537 24.8489 41.57 24.8489 41.6029C24.8319 42.3671 24.8914 43.5472 25.0272 44.2264C26.4111 45.0076 31.8365 47.716 40.0042 47.716C48.2059 47.716 53.5973 45.0161 54.9727 44.2349C55.1086 43.5557 55.1595 42.3755 55.151 41.6114C55.1425 41.5435 55.1425 41.4756 55.1425 41.3992C55.0831 39.4633 54.8624 37.3492 52.8841 36.6445C48.6559 35.5578 45.2767 33.2059 45.1324 33.1041C44.6145 32.739 44.4871 32.0258 44.8522 31.5079C45.2173 30.99 45.9305 30.8626 46.4484 31.2277C46.4674 31.2419 47.4679 31.9361 49.0144 32.7165C48.9467 31.9382 48.9509 31.2072 48.9552 30.9868V30.9642C48.9627 30.9037 48.9627 30.8432 48.9627 30.7752L48.9631 30.7638C49.0086 29.2684 49.1147 25.7837 52.3867 24.6604L52.3868 24.6603C52.4095 24.6528 52.4321 24.6452 52.4623 24.6377C55.8863 23.7685 58.7056 21.8032 58.7359 21.7806C59.1969 21.4556 59.8319 21.5689 60.1569 22.03C60.4819 22.4911 60.3685 23.126 59.9074 23.451C59.9017 23.4547 59.8901 23.4625 59.873 23.4741C59.5076 23.7204 56.6018 25.6788 53.0065 26.6029C51.2454 27.2302 51.0489 29.1123 50.996 30.8357C50.996 30.8707 50.994 30.9037 50.992 30.9357L50.992 30.9359C50.9902 30.966 50.9884 30.9953 50.9884 31.0246C50.9733 31.7049 51.0262 32.7555 51.1471 33.3602C51.5346 33.5789 52.2777 33.9672 53.3407 34.3968C53.3922 34.4105 53.4437 34.4239 53.4954 34.437C53.5081 34.4413 53.523 34.4455 53.5379 34.4498C53.5527 34.454 53.5676 34.4583 53.5803 34.4625C53.835 34.5494 54.0725 34.649 54.2942 34.7597C56.6491 35.6026 60.1272 36.4667 64.4803 36.4667C71.7819 36.4667 76.5815 34.0631 77.806 33.3678C77.9269 32.7631 77.9723 31.7124 77.9647 31.0322C77.9571 30.9717 77.9571 30.9112 77.9571 30.8432C77.9042 29.1199 77.7077 27.2378 75.9466 26.6105C72.1825 25.643 69.1742 23.5493 69.0457 23.4586C68.5846 23.1335 68.4712 22.4986 68.7962 22.0376C69.1213 21.5765 69.7562 21.4631 70.2172 21.7881C70.2475 21.8108 73.0819 23.776 76.4908 24.6452C76.5021 24.649 76.5154 24.6528 76.5286 24.6566L76.5287 24.6566C76.5419 24.6604 76.5551 24.6642 76.5664 24.6679C79.839 25.7839 79.9445 29.2695 79.9901 30.772L79.9904 30.7827C79.9904 30.8178 79.9924 30.8508 79.9943 30.8828C79.9962 30.913 79.9979 30.9424 79.9979 30.9717V30.9944C80.0055 31.3874 80.0131 33.4055 79.6351 34.4108C79.5595 34.6073 79.4159 34.7736 79.2421 34.887L79.2389 34.8891C78.9685 35.0604 73.5417 38.5 64.4879 38.5C61.5291 38.5 58.9577 38.1334 56.827 37.6337C57.3561 39.0087 57.3999 40.4556 57.4261 41.3192L57.4265 41.3312C57.4265 41.3706 57.4287 41.4076 57.4309 41.4436C57.4329 41.4776 57.4349 41.5105 57.4349 41.5435V41.569C57.4434 42.0105 57.4519 44.2774 57.0274 45.4066C56.9425 45.6274 56.7812 45.8142 56.5859 45.9415L56.5823 45.9438C56.2786 46.1363 50.1827 49.9999 40.0127 49.9999C29.7988 49.9999 23.6942 46.1113 23.4395 45.9415C23.2357 45.8142 23.0829 45.6274 22.998 45.4066C22.548 44.2689 22.5565 42.002 22.565 41.5605V41.535C22.5735 41.4671 22.5735 41.3992 22.5735 41.3227L22.5739 41.3099C22.6 40.4519 22.6439 39.0108 23.1704 37.638C21.0447 38.1355 18.4819 38.5 15.5348 38.5C6.4419 38.5 1.00734 35.0382 0.780583 34.887C0.599179 34.7736 0.463126 34.6073 0.387541 34.4108C-0.0130597 33.398 -0.00550135 31.3799 0.00205716 30.9868V30.9642C0.00961566 30.9037 0.00961583 30.8432 0.00961583 30.7752L0.00996291 30.7638C0.0554872 29.2684 0.16157 25.7837 3.43362 24.6604L3.43367 24.6603C3.45633 24.6528 3.47899 24.6452 3.5092 24.6377C6.9332 23.7685 9.75252 21.8032 9.78276 21.7806C10.2438 21.4556 10.8787 21.5689 11.2038 22.03C11.5288 22.4911 11.4154 23.126 10.9543 23.451C10.9486 23.4547 10.9371 23.4624 10.9201 23.4739L10.9198 23.4741C10.5545 23.7204 7.64872 25.6788 4.05341 26.6029C2.29228 27.2302 2.09576 29.1123 2.04285 30.8357C2.04285 30.8707 2.04085 30.9037 2.03891 30.9357C2.03707 30.9659 2.03529 30.9953 2.03529 31.0246C2.02018 31.7049 2.07309 32.7555 2.19402 33.3602C3.42606 34.0556 8.25594 36.4667 15.5272 36.4667C19.8243 36.4667 23.2548 35.6342 25.6 34.8074C25.8515 34.6741 26.124 34.5555 26.4196 34.454C26.4451 34.4455 26.4706 34.437 26.5045 34.4286C26.601 34.4041 26.697 34.3788 26.7926 34.3528C27.7862 33.9441 28.4828 33.5779 28.8529 33.3678C28.9738 32.7631 29.0191 31.7124 29.0116 31.0322C29.004 30.9717 29.004 30.9112 29.004 30.8432C28.9511 29.1199 28.7546 27.2378 26.9935 26.6105C23.2293 25.643 20.221 23.5493 20.0926 23.4586C19.6315 23.1335 19.5181 22.4986 19.8431 22.0376C20.1681 21.5765 20.8031 21.4631 21.2641 21.7881C21.2944 21.8108 24.1288 23.776 27.5377 24.6452C27.549 24.649 27.5622 24.6528 27.5755 24.6566L27.5755 24.6566C27.5818 24.6584 27.588 24.6602 27.5941 24.662C27.6008 24.6639 27.6073 24.6659 27.6133 24.6679C30.8858 25.7839 30.9914 29.2695 31.0369 30.772L31.0373 30.7827C31.0373 30.8178 31.0393 30.8508 31.0412 30.8828V30.8829V30.8829C31.043 30.9131 31.0448 30.9424 31.0448 30.9717ZM64.4654 21.6672H64.3444C62.1298 21.6294 60.3384 20.8509 59.0232 19.3619C56.1132 16.0815 56.597 10.458 56.6499 9.92131C56.8388 5.86239 58.7738 3.93498 60.3611 3.03551C61.9408 2.13605 63.5886 2 64.4276 2H64.4729H64.5032H64.5561C66.0829 2.03023 67.451 2.39304 68.6225 3.06575C70.1947 3.96521 72.0994 5.89263 72.2884 9.92131C72.3413 10.458 72.8251 16.0815 69.915 19.3619C68.5923 20.8509 66.8009 21.6294 64.5863 21.6672H64.5107H64.4654ZM58.6723 10.0741C58.6703 10.0853 58.668 10.0978 58.668 10.1103C58.6604 10.1556 58.1465 15.3181 60.5425 18.0089C61.4873 19.0822 62.7647 19.6113 64.4276 19.6264H64.4654H64.5032C66.1736 19.6113 67.4434 19.0822 68.3958 18.0089C70.7994 15.303 70.2703 10.1632 70.2627 10.1103C70.2552 10.0952 70.2552 10.0725 70.2552 10.0498C70.0209 4.92514 66.5515 4.0937 64.5107 4.04835H64.4502H64.42C62.7723 4.04835 58.925 4.63036 58.6755 10.0498C58.6755 10.0566 58.674 10.0649 58.6724 10.074L58.6723 10.0741ZM39.8513 31.0919H39.9872H40.0381H40.123C42.6107 31.0495 44.6229 30.175 46.1087 28.5024C49.3775 24.8176 48.8341 18.5007 48.7747 17.8979C48.5624 13.3725 46.4229 11.2075 44.6569 10.1971C43.3409 9.4415 41.8041 9.03396 40.0891 9H40.0296H39.9957H39.9447C39.0023 9 37.1514 9.15283 35.3769 10.1632C33.5939 11.1735 31.4204 13.3386 31.2081 17.8979C31.1487 18.5007 30.6053 24.8176 33.8741 28.5024C35.3514 30.175 37.3636 31.0495 39.8513 31.0919ZM33.4799 18.0696L33.4799 18.0695C33.4818 18.0592 33.4835 18.0499 33.4835 18.0422C33.7637 11.9546 38.0853 11.3009 39.9362 11.3009H39.9702H40.0381C42.3305 11.3518 46.2276 12.2858 46.4908 18.0422C46.4908 18.0677 46.4908 18.0932 46.4993 18.1102C46.5078 18.1696 47.1021 23.9431 44.4022 26.9826C43.3324 28.1882 41.906 28.7826 40.0296 28.7995H39.9872H39.9447C38.0768 28.7826 36.642 28.1882 35.5807 26.9826C32.8892 23.96 33.4666 18.1611 33.4751 18.1102C33.4751 18.0962 33.4776 18.0822 33.4799 18.0696Z" />
  </symbol>
  <symbol id="people" viewBox="0 0 50 50">
    <path xmlns="http://www.w3.org/2000/svg" fill-rule="evenodd" clip-rule="evenodd" d="M24.9846 26.9414H24.8189C21.7851 26.8896 19.3312 25.8232 17.5296 23.7834C13.5433 19.2897 14.2059 11.5863 14.2784 10.8511C14.5373 5.29095 17.1879 2.65065 19.3623 1.41851C21.5263 0.186374 23.7835 0 24.9328 0H24.9949H25.0363H25.1088C27.2003 0.0414164 29.0744 0.538414 30.6793 1.45993C32.833 2.69207 35.4422 5.33237 35.7011 10.8511C35.7735 11.5863 36.4362 19.2897 32.4499 23.7834C30.6379 25.8232 28.184 26.8896 25.1502 26.9414H25.0467H24.9846ZM17.0489 11.0604C17.0461 11.0758 17.0429 11.0929 17.0429 11.11C17.0326 11.1721 16.3285 18.2439 19.6108 21.93C20.905 23.4003 22.6549 24.1251 24.9328 24.1458H24.9846H25.0363C27.3246 24.1251 29.0641 23.4003 30.3687 21.93C33.6613 18.2232 32.9365 11.1824 32.9262 11.11C32.9158 11.0893 32.9158 11.0582 32.9158 11.0271C32.5948 4.00704 27.8423 2.86809 25.0467 2.80596H24.9638H24.9224C22.6652 2.80596 17.395 3.60323 17.0533 11.0271C17.0533 11.0364 17.0512 11.0478 17.0489 11.0604ZM46.2622 39.6873V39.7184C46.2726 40.2568 46.2829 43.0213 45.7652 44.3984C45.6617 44.6676 45.4649 44.8954 45.2268 45.0507L45.2224 45.0535C44.852 45.2882 37.418 50 25.0156 50C12.5596 50 5.11496 45.2578 4.80434 45.0507C4.55584 44.8954 4.36947 44.6676 4.26592 44.3984C3.71716 43.011 3.72751 40.2464 3.73786 39.708V39.6769C3.74822 39.5941 3.74822 39.5113 3.74822 39.4181L3.74869 39.4025C3.81106 37.354 3.95638 32.5804 8.43863 31.0416C8.46969 31.0313 8.50076 31.0209 8.54217 31.0105C13.2326 29.8198 17.0947 27.1278 17.1361 27.0967C17.7677 26.6515 18.6374 26.8068 19.0827 27.4384C19.5279 28.07 19.3726 28.9397 18.741 29.385C18.7331 29.3901 18.7172 29.4007 18.6937 29.4166C18.1932 29.7539 14.2127 32.4367 9.28767 33.7026C6.87516 34.562 6.60595 37.1402 6.53347 39.5009C6.53347 39.5489 6.53073 39.5941 6.52807 39.638C6.52556 39.6794 6.52312 39.7196 6.52312 39.7598C6.50241 40.6916 6.57489 42.1309 6.74056 42.9592C8.42828 43.9118 15.0446 47.2147 25.0052 47.2147C35.0073 47.2147 41.5821 43.9221 43.2595 42.9696C43.4252 42.1412 43.4873 40.702 43.4769 39.7701C43.4666 39.6873 43.4666 39.6045 43.4666 39.5113C43.3941 37.1505 43.1249 34.5724 40.7124 33.713C35.556 32.3876 31.4351 29.5196 31.2591 29.3953C30.6275 28.9501 30.4722 28.0803 30.9174 27.4487C31.3626 26.8171 32.2324 26.6618 32.864 27.107C32.9054 27.1381 36.7882 29.8302 41.4579 31.0209C41.4685 31.0245 41.4804 31.028 41.4926 31.0315C41.5161 31.0384 41.541 31.0452 41.5614 31.052C46.0444 32.5807 46.1891 37.3555 46.2514 39.4138L46.2518 39.4284C46.2518 39.4764 46.2546 39.5216 46.2573 39.5655C46.2598 39.6069 46.2622 39.6471 46.2622 39.6873Z"/>
  </symbol>
  <symbol id="test" viewBox="0 0 51 50">
    <path xmlns="http://www.w3.org/2000/svg" fill-rule="evenodd" clip-rule="evenodd" d="M38.9043 26.8484V13.4746C38.9043 11.5439 38.1599 9.72256 36.8081 8.34502L30.8646 2.19863L30.856 2.18975C29.4875 0.798145 27.5833 0 25.6318 0H6.77539C4.35225 0 2.38086 1.97139 2.38086 4.39453V42.3828C2.38086 44.806 4.35225 46.7773 6.77539 46.7773H29.4153C31.5028 48.7728 34.3305 50 37.4395 50C43.9012 50 49.1582 44.7868 49.1582 38.3789C49.1582 32.4629 44.6772 27.5655 38.9043 26.8484ZM5.31055 42.3828V4.39453C5.31055 3.58682 5.96768 2.92969 6.77539 2.92969H25.6318C26.8012 2.92969 27.9422 3.40732 28.7633 4.24004L34.7058 10.3854L34.7142 10.3941C35.527 11.221 35.9746 12.3149 35.9746 13.4747V26.8499C30.2557 27.5724 25.8184 32.4672 25.8184 38.379C25.8184 40.3549 26.3146 42.2169 27.1882 43.8478H6.77539C5.96768 43.8477 5.31055 43.1905 5.31055 42.3828ZM37.4395 47.0703C32.647 47.0703 28.748 43.1714 28.748 38.3789C28.748 33.5864 32.647 29.6875 37.4395 29.6875C42.2857 29.6875 46.2285 33.5864 46.2285 38.3789C46.2285 43.1714 42.2857 47.0703 37.4395 47.0703ZM17.9082 14.1602H10.0957C9.28672 14.1602 8.63086 14.816 8.63086 15.625C8.63086 16.434 9.28672 17.0898 10.0957 17.0898H17.9082C18.7172 17.0898 19.373 16.434 19.373 15.625C19.373 14.816 18.7172 14.1602 17.9082 14.1602ZM17.9082 21.9727H10.0957C9.28672 21.9727 8.63086 22.6285 8.63086 23.4375C8.63086 24.2465 9.28672 24.9023 10.0957 24.9023H17.9082C18.7172 24.9023 19.373 24.2465 19.373 23.4375C19.373 22.6285 18.7172 21.9727 17.9082 21.9727ZM10.0957 29.7852H17.9082C18.7172 29.7852 19.373 30.441 19.373 31.25C19.373 32.059 18.7172 32.7148 17.9082 32.7148H10.0957C9.28672 32.7148 8.63086 32.059 8.63086 31.25C8.63086 30.441 9.28672 29.7852 10.0957 29.7852ZM38.7556 35.0975C39.2735 34.4761 40.1973 34.3922 40.8187 34.9099C41.4401 35.4278 41.5241 36.3514 41.0063 36.9731L37.1 41.6606C36.8199 41.9966 36.4066 42.1876 35.9748 42.1876C35.9187 42.1876 35.8623 42.1843 35.8058 42.1779C35.3148 42.1208 34.8856 41.8201 34.6645 41.3779L33.102 38.2529C32.7401 37.5293 33.0334 36.6493 33.757 36.2876C34.4807 35.9256 35.3606 36.2191 35.7224 36.9427L36.2832 38.0644L38.7556 35.0975ZM25.7207 17.0898H27.2832C28.0922 17.0898 28.748 16.434 28.748 15.625C28.748 14.816 28.0922 14.1602 27.2832 14.1602H25.7207C24.9117 14.1602 24.2559 14.816 24.2559 15.625C24.2559 16.434 24.9117 17.0898 25.7207 17.0898ZM27.2832 21.9727C28.0922 21.9727 28.748 22.6285 28.748 23.4375C28.748 24.2465 28.0922 24.9023 27.2832 24.9023H25.7207C24.9117 24.9023 24.2559 24.2465 24.2559 23.4375C24.2559 22.6285 24.9117 21.9727 25.7207 21.9727H27.2832Z" />
  </symbol>
</svg>
