<svg version="1.1" xmlns="http://www.w3.org/2000/svg" xmlns:xlink="http://www.w3.org/1999/xlink">
  <symbol id="bed-1" viewBox="0 0 30 30">
    <path xmlns="http://www.w3.org/2000/svg" d="M26.5884 13.4175V5.07611C26.5884 3.37994 25.2085 2 23.5123 2H6.48756C4.79139 2 3.41156 3.37994 3.41156 5.07611V13.4175C1.45711 13.8877 0 15.6494 0 17.7461V23.9677C0 24.4613 0.400137 24.8615 0.89373 24.8615H3.4115V27.0231C3.4115 27.5166 3.81164 27.9168 4.30523 27.9168C4.79883 27.9168 5.19896 27.5166 5.19896 27.0231V24.8615H24.8009V27.0231C24.8009 27.5166 25.2011 27.9168 25.6946 27.9168C26.1882 27.9168 26.5884 27.5166 26.5884 27.0231V24.8615H29.1062C29.5997 24.8615 29.9999 24.4613 29.9999 23.9677V17.7461C30 15.6494 28.5429 13.8877 26.5884 13.4175ZM5.19902 5.07611C5.19902 4.36561 5.77711 3.78752 6.48756 3.78752H23.5124C24.2229 3.78752 24.801 4.36561 24.801 5.07611V13.2934H21.8476V11.8834C21.8476 9.54729 19.947 7.64674 17.6109 7.64674H12.3892C10.0531 7.64674 8.15256 9.54734 8.15256 11.8834V13.2934H5.19902V5.07611ZM20.0601 11.8834V13.2934H9.9399V11.8834C9.9399 10.5329 11.0386 9.4342 12.3891 9.4342H17.6108C18.9613 9.43414 20.0601 10.5329 20.0601 11.8834ZM1.78746 23.074V17.7461C1.78746 16.2765 2.98307 15.0809 4.45266 15.0809H25.5472C27.0168 15.0809 28.2124 16.2765 28.2124 17.7461V23.074H1.78746Z" />
  </symbol>
  <symbol id="bed-2" viewBox="0 0 30 30">
    <path xmlns="http://www.w3.org/2000/svg" d="M27.2166 13.3519V6.67117C27.2166 5.1983 26.0183 4 24.5454 4H5.45461C3.98174 4 2.78344 5.1983 2.78344 6.67117V13.3519C1.18055 13.7956 0 15.2663 0 17.0085V22.0846C0 22.5764 0.398789 22.9752 0.890625 22.9752H2.78344V24.5774C2.78344 25.0693 3.18223 25.468 3.67406 25.468C4.1659 25.468 4.56469 25.0693 4.56469 24.5774V22.9752H25.4353V24.5774C25.4353 25.0693 25.8341 25.468 26.3259 25.468C26.8178 25.468 27.2166 25.0693 27.2166 24.5774V22.9752H29.1094C29.6012 22.9752 30 22.5764 30 22.0846V17.0085C30 15.2663 28.8194 13.7956 27.2166 13.3519ZM4.56469 6.67117C4.56469 6.18051 4.96395 5.78125 5.45461 5.78125H24.5454C25.0361 5.78125 25.4354 6.18051 25.4354 6.67117V13.2141H23.3486V11.4263C23.3486 9.8718 22.0839 8.60711 20.5293 8.60711H16.9287C16.1831 8.60711 15.5047 8.8985 15.0001 9.37281C14.4954 8.89855 13.817 8.60711 13.0714 8.60711H9.4708C7.91625 8.60711 6.65156 9.87185 6.65156 11.4263V13.2141H4.56469V6.67117ZM21.5673 11.4263V13.2141H15.8906V11.4263C15.8906 10.8539 16.3563 10.3884 16.9286 10.3884H20.5293C21.1017 10.3884 21.5673 10.854 21.5673 11.4263ZM14.1093 11.4263V13.2141H8.43264V11.4263C8.43264 10.8539 8.89834 10.3884 9.47062 10.3884H13.0713C13.6437 10.3884 14.1093 10.854 14.1093 11.4263ZM28.2188 21.194H1.78125V17.0085C1.78125 15.8985 2.6843 14.9954 3.79436 14.9954H26.2056C27.3156 14.9954 28.2188 15.8984 28.2188 17.0085V21.194Z"/>
  </symbol>
  <symbol id="bed-2-large" viewBox="0 0 30 30">
    <path xmlns="http://www.w3.org/2000/svg" d="M27.9208 13.2265V7.24165C27.9208 5.45409 26.4668 4 24.6794 4H5.32082C3.53325 4 2.07916 5.45409 2.07916 7.24165V13.2265C0.837479 13.9467 0 15.2896 0 16.8254V23.4401C0 23.9255 0.393448 24.319 0.878906 24.319H1.75323V24.8388C1.75323 25.3242 2.14691 25.7177 2.63214 25.7177C3.1176 25.7177 3.51105 25.3242 3.51105 24.8388V24.319H26.489V24.8388C26.489 25.3242 26.8824 25.7177 27.3679 25.7177C27.8531 25.7177 28.2468 25.3242 28.2468 24.8388V24.319H29.1211C29.6066 24.319 30 23.9255 30 23.4401V16.8254C30 15.2896 29.1625 13.9467 27.9208 13.2265ZM3.83698 7.24165C3.83698 6.4234 4.50256 5.75781 5.32082 5.75781H24.6792C25.4974 5.75781 26.163 6.4234 26.163 7.24165V7.26683C25.9769 7.21899 25.7817 7.19359 25.5807 7.19359H16.4882C15.9233 7.19359 15.4047 7.39455 15 7.72894C14.5953 7.39478 14.0765 7.19359 13.5118 7.19359H4.41925C4.21829 7.19359 4.02306 7.21899 3.83698 7.26683V7.24165ZM26.163 9.53368V12.0834C26.163 12.4043 25.9019 12.6657 25.5807 12.6657H16.4882C16.1671 12.6657 15.9059 12.4045 15.9059 12.0834V9.53368C15.9059 9.21255 16.1671 8.9514 16.4882 8.9514H25.5807C25.9019 8.9514 26.163 9.21255 26.163 9.53368ZM3.83698 9.53368C3.83698 9.21255 4.09813 8.9514 4.41925 8.9514H13.5118C13.8329 8.9514 14.0941 9.21255 14.0941 9.53368V12.0834C14.0941 12.4043 13.8329 12.6657 13.5118 12.6657H4.41925C4.09813 12.6657 3.83698 12.4045 3.83698 12.0834V9.53368ZM28.2422 22.5612H1.75781V17.8398C1.75781 15.5898 2.8347 14.4247 4.15855 14.4247H25.8414C27.1651 14.4247 28.2422 15.5018 28.2422 16.8254V22.5612Z"/>
  </symbol>
  <symbol id="bed-3" viewBox="0 0 18 17">
    <path d="M14.5938 1.875C13.8183 1.875 13.1875 2.50584 13.1875 3.28125V3.75H6.51534C6.29756 2.6815 5.35059 1.875 4.21875 1.875H2.8125V1.40625C2.8125 0.630844 2.18166 0 1.40625 0C0.630844 0 0 0.630844 0 1.40625V15.5312C0 15.7901 0.209875 16 0.46875 16H2.34375C2.60262 16 2.8125 15.7901 2.8125 15.5312V14.125H13.1875V15.5312C13.1875 15.7901 13.3974 16 13.6562 16H15.5312C15.7901 16 16 15.7901 16 15.5312V3.28125C16 2.50584 15.3692 1.875 14.5938 1.875ZM1.875 8.9375C1.875 10.9971 1.875 13.2621 1.875 15.0625H0.9375V1.40625C0.9375 1.14778 1.14778 0.9375 1.40625 0.9375C1.66472 0.9375 1.875 1.14778 1.875 1.40625C1.875 2.35962 1.875 7.61734 1.875 8.9375ZM2.8125 2.8125H4.21875C4.82987 2.8125 5.35122 3.20434 5.54469 3.75H2.8125V2.8125ZM2.8125 9.40625H4.21875C4.82987 9.40625 5.35122 9.79809 5.54469 10.3438H2.8125V9.40625ZM13.1875 13.1875H2.8125V11.2812C3.12497 11.2812 12.876 11.2812 13.1875 11.2812V13.1875ZM13.1875 10.3438H6.51534C6.29759 9.27525 5.35063 8.46875 4.21875 8.46875H2.8125V7.53125H13.1875V10.3438ZM13.1875 6.59375H2.8125V4.6875C3.12497 4.6875 12.876 4.6875 13.1875 4.6875V6.59375ZM15.0625 15.0625H14.125C14.125 14.2468 14.125 3.79781 14.125 3.28125C14.125 3.02278 14.3353 2.8125 14.5938 2.8125C14.8522 2.8125 15.0625 3.02278 15.0625 3.28125V15.0625Z"/>
  </symbol>
  <symbol id="sofa" viewBox="0 0 20 16">
    <path d="M18.5038 5.1718V3.01162C18.5038 1.41159 17.2021 0.109863 15.6021 0.109863H4.39788C2.79785 0.109863 1.49612 1.41159 1.49612 3.01162V5.1718C0.632476 5.42647 0 6.22618 0 7.17131L0.000152588 11.9501C0.000152588 12.8436 0.591735 13.6017 1.40365 13.8533V15.2757C1.40365 15.6007 1.66732 15.8644 1.99234 15.8644H4.22866C4.55382 15.8644 4.81734 15.6007 4.81734 15.2757V13.9421H15.0903V15.2757C15.0903 15.6007 15.3538 15.8644 15.6788 15.8644H17.9153C18.2403 15.8644 18.5038 15.6007 18.5038 15.2757V13.8795C19.3632 13.6586 20 12.8773 20 11.9501V7.17131C20 6.22618 19.3675 5.42647 18.5038 5.1718ZM17.3268 3.01162V5.1718C16.463 5.42647 15.8307 6.22618 15.8307 7.17131V7.36601C15.606 7.27278 15.3601 7.22106 15.1021 7.22106L10.4115 7.17131V1.28708H15.6021C16.553 1.28708 17.3268 2.0607 17.3268 3.01162ZM4.1693 9.12672C4.1693 8.72496 4.49615 8.39812 4.89791 8.39812H15.1021C15.5038 8.39812 15.8307 8.72496 15.8307 9.12672V9.77263H4.1693V9.12672ZM4.39788 1.28708H10.4115V7.17131L4.89791 7.22106C4.64004 7.22106 4.39391 7.27278 4.1693 7.36601V7.17131C4.1693 6.22634 3.53698 5.42663 2.67333 5.1718V3.01177C2.67318 2.0607 3.44695 1.28708 4.39788 1.28708ZM3.64013 14.6872H2.58087V13.9421H3.64013V14.6872ZM17.3268 14.6872H16.2674V13.9421H17.3268V14.6872ZM18.8227 11.9499C18.8227 12.3993 18.4571 12.7649 18.0079 12.7649H1.99234C1.54297 12.7649 1.17737 12.3993 1.17721 11.9501V7.17131C1.17721 6.67098 1.58432 6.26387 2.08465 6.26387C2.58514 6.26387 2.99224 6.67098 2.99224 7.17131V10.3613C2.99224 10.6863 3.25576 10.9498 3.58077 10.9498H16.4192C16.7442 10.9498 17.0077 10.6863 17.0077 10.3613V7.17131C17.0077 6.67083 17.4148 6.26372 17.9153 6.26372C18.4156 6.26372 18.8227 6.67083 18.8227 7.17131V11.9499Z"/>
  </symbol>
  <symbol id="sofa-large" viewBox="0 0 20 14">
    <path d="M19.4141 3.68086H18.2491V2.70098C18.2491 1.35059 17.1505 0.251953 15.8001 0.251953H11.8634C11.118 0.251953 10.4498 0.58707 10.0003 1.11406C9.55074 0.58707 8.88254 0.251953 8.13719 0.251953H4.20035C2.84996 0.251953 1.75133 1.35059 1.75133 2.70098V3.68086H0.585938C0.262344 3.68086 0 3.9432 0 4.2668V12.1914C0 12.515 0.262344 12.7773 0.585938 12.7773H2.57812V13.1612C2.57812 13.4848 2.84047 13.7471 3.16406 13.7471C3.48766 13.7471 3.75 13.4848 3.75 13.1612V12.7773H16.25V13.1612C16.25 13.4848 16.5123 13.7471 16.8359 13.7471C17.1595 13.7471 17.4219 13.4848 17.4219 13.1612V12.7773H19.4141C19.7377 12.7773 20 12.515 20 12.1914V4.2668C20 3.9432 19.7377 3.68086 19.4141 3.68086ZM3.81895 9.01082V7.84438H9.41434V9.01082H3.81895ZM10.5862 7.84434H16.1811V9.01078H10.5862V7.84434ZM11.8634 1.42383H15.8002C16.5044 1.42383 17.0773 1.99676 17.0773 2.70098V3.97301C16.5395 4.31113 16.1811 4.90949 16.1811 5.59031V6.67242H10.5862V2.70094C10.5862 1.99676 11.1591 1.42383 11.8634 1.42383ZM4.20035 1.42383H8.13715C8.84137 1.42383 9.4143 1.99676 9.4143 2.70098V6.67246H3.81895V5.59031C3.81895 4.90973 3.46074 4.31156 2.92324 3.97332V2.70098C2.9232 1.99676 3.49613 1.42383 4.20035 1.42383ZM18.8281 11.6055H16.8631C16.8541 11.6051 16.8451 11.6041 16.8359 11.6041C16.8268 11.6041 16.8178 11.6051 16.8088 11.6055H3.19125C3.18219 11.6051 3.17324 11.6041 3.16406 11.6041C3.15488 11.6041 3.14594 11.6051 3.13688 11.6055H1.17188V4.85277H1.90945C2.31617 4.85277 2.64703 5.18367 2.64703 5.59035V9.59676C2.64703 9.92035 2.90937 10.1827 3.23297 10.1827H16.767C17.0906 10.1827 17.3529 9.92035 17.3529 9.59676V5.59035C17.3529 5.18363 17.6838 4.85273 18.0905 4.85273H18.8281V11.6055Z"/>
  </symbol>
</svg>
