<svg version="1.1" xmlns="http://www.w3.org/2000/svg" xmlns:xlink="http://www.w3.org/1999/xlink">
    <symbol viewBox="0 0 20 20" id="good">
      <path fill-rule="evenodd" clip-rule="evenodd" d="M0 10C0 4.48578 4.48578 0 10 0C15.5142 0 20 4.48578 20 10C20 15.5142 15.5142 20 10 20C4.48578 20 0 15.5142 0 10ZM9.6525 13.2973L15.0692 7.88074C15.395 7.55481 15.395 7.02823 15.0692 6.70245C14.7433 6.37653 14.2167 6.37653 13.8909 6.70245L9.06335 11.5299L6.94421 9.41074C6.61829 9.08481 6.09171 9.08481 5.76593 9.41074C5.44 9.73651 5.44 10.2632 5.76593 10.589L8.47421 13.2973C8.63672 13.4598 8.85004 13.5416 9.06335 13.5416C9.27667 13.5416 9.48999 13.4598 9.6525 13.2973Z" />
    </symbol>
    <symbol viewBox="0 0 20 20" id="bad">
      <path fill-rule="evenodd" clip-rule="evenodd" d="M0 10C0 4.48578 4.48578 0 10 0C15.5142 0 20 4.48578 20 10C20 15.5142 15.5142 20 10 20C4.48578 20 0 15.5142 0 10ZM13.6817 13.6817C14.0075 13.3558 14.0075 12.8292 13.6817 12.5033L11.1774 9.99915L13.6817 7.49503C14.0075 7.16911 14.0075 6.64252 13.6817 6.3166C13.3558 5.99082 12.8292 5.99082 12.5033 6.3166L9.99915 8.82087L7.49503 6.3166C7.16911 5.99082 6.64252 5.99082 6.3166 6.3166C5.99082 6.64252 5.99082 7.16911 6.3166 7.49503L8.82087 9.99915L6.3166 12.5033C5.99082 12.8292 5.99082 13.3558 6.3166 13.6817C6.4791 13.8442 6.69242 13.9258 6.90589 13.9258C7.11921 13.9258 7.33253 13.8442 7.49503 13.6817L9.99915 11.1774L12.5033 13.6817C12.6658 13.8442 12.8791 13.9258 13.0924 13.9258C13.3059 13.9258 13.5192 13.8442 13.6817 13.6817Z" />
    </symbol>
    <symbol viewBox="0 0 20 20" id="lavastoviglie">
      <path fill-rule="evenodd" clip-rule="evenodd" d="M18.2422 0H1.75781C0.788555 0 0 0.788555 0 1.75781V18.2422C0 19.2114 0.788555 20 1.75781 20H18.2422C19.2114 20 20 19.2114 20 18.2422V1.75781C20 0.788555 19.2114 0 18.2422 0ZM18.8281 18.2422C18.8281 18.5653 18.5653 18.8281 18.2422 18.8281H1.75781C1.43473 18.8281 1.17188 18.5653 1.17188 18.2422V1.75781C1.17188 1.43473 1.43473 1.17188 1.75781 1.17188H18.2422C18.5653 1.17188 18.8281 1.43473 18.8281 1.75781V18.2422ZM2.96875 3.51562C3.29235 3.51562 3.55469 3.25329 3.55469 2.92969C3.55469 2.60608 3.29235 2.34375 2.96875 2.34375C2.64515 2.34375 2.38281 2.60608 2.38281 2.92969C2.38281 3.25329 2.64515 3.51562 2.96875 3.51562ZM5.3125 3.51562C5.6361 3.51562 5.89844 3.25329 5.89844 2.92969C5.89844 2.60608 5.6361 2.34375 5.3125 2.34375C4.9889 2.34375 4.72656 2.60608 4.72656 2.92969C4.72656 3.25329 4.9889 3.51562 5.3125 3.51562ZM8.24219 2.92969C8.24219 3.25329 7.97985 3.51562 7.65625 3.51562C7.33265 3.51562 7.07031 3.25329 7.07031 2.92969C7.07031 2.60608 7.33265 2.34375 7.65625 2.34375C7.97985 2.34375 8.24219 2.60608 8.24219 2.92969ZM2.96875 4.6875H17.0312C17.3548 4.6875 17.6172 4.94984 17.6172 5.27344V17.0312C17.6172 17.3548 17.3548 17.6172 17.0312 17.6172H2.96875C2.64516 17.6172 2.38281 17.3548 2.38281 17.0312V5.27344C2.38281 4.94984 2.64516 4.6875 2.96875 4.6875ZM6.48438 14.6875C6.48438 15.6568 7.27293 16.4453 8.24219 16.4453C9.21144 16.4453 10 15.6568 10 14.6875C10 13.7182 9.21144 12.9297 8.24219 12.9297C7.27293 12.9297 6.48438 13.7182 6.48438 14.6875ZM10.7803 16.1479C11.067 16.3397 11.4066 16.4453 11.7578 16.4453C12.7271 16.4453 13.5156 15.6568 13.5156 14.6875C13.5156 13.7182 12.7271 12.9297 11.7578 12.9297C11.4066 12.9297 11.067 13.0353 10.7803 13.2271C11.0288 13.6574 11.1719 14.1559 11.1719 14.6875C11.1719 15.2191 11.0288 15.7176 10.7803 16.1479ZM14.1 16.4453H16.4453V5.85938H3.55469V16.4453H5.90004C5.53137 15.9553 5.3125 15.3465 5.3125 14.6875C5.3125 13.0721 6.62676 11.7578 8.24219 11.7578C8.90102 11.7578 9.50961 11.9765 9.99953 12.345C10.5028 11.9675 11.1188 11.7578 11.7578 11.7578C13.3732 11.7578 14.6875 13.0721 14.6875 14.6875C14.6875 15.3465 14.4686 15.9553 14.1 16.4453ZM10 7.03125C9.67641 7.03125 9.41406 7.29359 9.41406 7.61719V8.78906C9.41406 9.11266 9.67641 9.375 10 9.375C10.3236 9.375 10.5859 9.11266 10.5859 8.78906V7.61719C10.5859 7.29359 10.3236 7.03125 10 7.03125ZM7.24193 7.20238C7.47076 6.97355 7.84178 6.97355 8.07056 7.20238C8.29939 7.43121 8.29939 7.80219 8.07056 8.03102L6.89869 9.20289C6.6699 9.43176 6.29885 9.43172 6.07006 9.20289C5.84123 8.97407 5.84123 8.60309 6.07006 8.37426L7.24193 7.20238ZM13.9299 8.37426L12.7581 7.20238C12.5293 6.97355 12.1583 6.97355 11.9294 7.20238C11.7006 7.43121 11.7006 7.80219 11.9294 8.03102L13.1013 9.20289C13.3301 9.43172 13.7011 9.43176 13.9299 9.20289C14.1588 8.97407 14.1588 8.60309 13.9299 8.37426ZM14.6875 2.34375H17.0312C17.3548 2.34375 17.6172 2.60609 17.6172 2.92969C17.6172 3.25328 17.3548 3.51562 17.0312 3.51562H14.6875C14.3639 3.51562 14.1016 3.25328 14.1016 2.92969C14.1016 2.60609 14.3639 2.34375 14.6875 2.34375Z" />
    </symbol>
    <symbol viewBox="0 0 20 20" id="cooking">
      <path fill-rule="evenodd" clip-rule="evenodd" d="M3.21318 6.97798C2.91857 7.11309 2.571 6.98337 2.43631 6.6897C2.30139 6.39556 2.43045 6.04775 2.72459 5.91283L6.98448 3.95882L6.98182 3.953C6.4414 2.7791 6.95679 1.38439 8.13072 0.843963C9.30462 0.303537 10.6994 0.818963 11.2398 1.99286L11.2451 2.00446L15.4984 0.0535002C15.7926 -0.0814206 16.1403 0.0476409 16.2753 0.341779C16.4102 0.635918 16.2812 0.983727 15.987 1.11865L3.21318 6.97798ZM8.62076 1.90845C8.03381 2.17864 7.77612 2.87602 8.04631 3.46297L8.04963 3.47023L10.18 2.49305L10.1753 2.4829C9.90504 1.89595 9.20771 1.63825 8.62076 1.90845ZM1.7578 8.20312H18.242C19.2113 8.20312 19.9998 8.99167 19.9998 9.96089C19.9998 11.3757 18.9917 12.5594 17.6561 12.8316V17.0702C17.6561 18.6857 16.3419 19.9999 14.7264 19.9999H5.2734C3.65798 19.9999 2.34373 18.6857 2.34373 17.0702V12.8316C1.00812 12.5594 0 11.3757 0 9.96092C0 8.99167 0.788549 8.20312 1.7578 8.20312ZM1.7578 9.37499C1.43472 9.37499 1.17187 9.63784 1.17187 9.96092C1.17187 10.7247 1.66174 11.376 2.34373 11.6179V9.37499H1.7578ZM14.7264 18.828C15.6957 18.828 16.4842 18.0395 16.4842 17.0702V9.37499H3.5156V17.0702C3.5156 18.0395 4.30415 18.828 5.2734 18.828H14.7264ZM17.6561 9.37495V11.6179C18.3381 11.376 18.828 10.7247 18.828 9.96089C18.828 9.6378 18.5651 9.37495 18.242 9.37495H17.6561ZM16.2442 3.13037C16.2442 2.80678 15.9819 2.54443 15.6583 2.54443C15.5486 2.54443 14.5705 2.56088 14.001 3.13037C13.4315 3.69986 13.4151 4.67799 13.4151 4.78768C13.4151 4.99197 13.3439 5.44482 13.1724 5.61631C13.0101 5.77861 12.5806 5.85709 12.3438 5.859C12.0202 5.859 11.7578 6.12135 11.7578 6.44494C11.7578 6.76853 12.0202 7.03088 12.3438 7.03088C12.4534 7.03088 13.4316 7.01443 14.001 6.44494C14.5705 5.87545 14.587 4.89732 14.587 4.78994C14.5889 4.55076 14.6674 4.12131 14.8297 3.959C14.9919 3.79678 15.4211 3.7183 15.6603 3.71631C15.983 3.71521 16.2442 3.4533 16.2442 3.13037ZM17.5166 6.44494C16.9471 7.01443 15.969 7.03088 15.8593 7.03088C15.5357 7.03088 15.2734 6.76853 15.2734 6.44494C15.2734 6.12135 15.5358 5.859 15.8594 5.859C16.0963 5.85709 16.5257 5.77861 16.688 5.61631C16.8595 5.44482 16.9307 4.99197 16.9307 4.78768C16.9307 4.67799 16.9471 3.69986 17.5166 3.13037C18.0861 2.56088 19.0643 2.54443 19.1739 2.54443C19.4975 2.54443 19.7598 2.80678 19.7598 3.13037C19.7598 3.4533 19.4986 3.71521 19.1759 3.71631C18.9367 3.7183 18.5075 3.79678 18.3453 3.959C18.183 4.12131 18.1045 4.55076 18.1025 4.78994C18.1025 4.89732 18.0861 5.87545 17.5166 6.44494Z"/>
    </symbol>
    <symbol viewBox="0 0 20 21" id="minibar">
      <path d="M17.3324 0H2.66753C1.19667 0 0 1.19663 0 2.66753V18.0773C0 19.5482 1.19663 20.7448 2.66753 20.7448H17.3325C18.8033 20.7448 20 19.5482 20 18.0773V2.66753C20 1.19663 18.8033 0 17.3324 0ZM7.39993 10.7642C7.73327 11.1246 7.91689 11.5934 7.91689 12.0844V12.5673H4.32752V12.0844C4.32752 11.5935 4.5111 11.1246 4.84448 10.7642C5.38672 10.178 5.68533 9.41546 5.68533 8.61695V6.15233H6.55908V8.61695C6.55908 9.4155 6.85769 10.178 7.39993 10.7642ZM7.91689 13.7854V16.4206H4.32752V13.7854H7.91689ZM7.91693 19.5268H4.32756V17.6385H7.91693V19.5268ZM15.6724 19.5268H12.0831V17.6385H15.6724V19.5268ZM15.1554 10.7642C15.4888 11.1246 15.6724 11.5935 15.6724 12.0844V12.5673H12.0831V12.0844C12.0831 11.5934 12.2667 11.1246 12.6001 10.7642C13.1423 10.178 13.4409 9.41542 13.4409 8.61695V6.15233H14.3146V8.61695C14.3147 9.4155 14.6133 10.178 15.1554 10.7642ZM15.6724 13.7854V16.4206H12.0831V13.7854H15.6724ZM18.782 18.0773C18.782 18.8766 18.1318 19.5268 17.3324 19.5268H16.8904V12.0844C16.8904 11.2859 16.5918 10.5234 16.0495 9.9372C15.7162 9.5768 15.5326 9.10793 15.5326 8.61699V5.5434C15.5326 5.20706 15.2599 4.93442 14.9236 4.93442H12.8319C12.4955 4.93442 12.2229 5.20706 12.2229 5.5434V8.61699C12.2229 9.10793 12.0393 9.5768 11.7059 9.9372C11.1637 10.5234 10.8651 11.2859 10.8651 12.0844V19.5268H9.13484V12.0844C9.13484 11.2859 8.83623 10.5233 8.29403 9.9372C7.96065 9.5768 7.77707 9.10793 7.77707 8.61699V5.5434C7.77707 5.20706 7.50439 4.93442 7.16809 4.93442H5.07635C4.74002 4.93442 4.46738 5.20706 4.46738 5.5434V8.61699C4.46738 9.10793 4.2838 9.5768 3.95042 9.9372C3.40822 10.5234 3.10957 11.2859 3.10957 12.0844V19.5268H2.66753C1.86821 19.5268 1.21795 18.8765 1.21795 18.0772V2.66753C1.21799 1.86825 1.86825 1.21795 2.66753 1.21795H17.3325C18.1318 1.21795 18.7821 1.86821 18.7821 2.66753V18.0773H18.782Z" />
    </symbol>
    <symbol viewBox="0 0 20 20" id="special_features">
      <path fill-rule="evenodd" clip-rule="evenodd" d="M3.22473 0H16.7753C18.5534 0 20 1.4466 20 3.22473V16.7753C20 18.5534 18.5534 20 16.7753 20H3.22473C1.4466 20 0 18.5534 0 16.7753V3.22473C0 1.4466 1.4466 0 3.22473 0ZM16.7753 18.8189C17.9021 18.8189 18.8189 17.9021 18.8189 16.7753V3.22473C18.8189 2.09785 17.9021 1.18109 16.7753 1.18109H3.22473C2.09785 1.18109 1.18109 2.09789 1.18109 3.22473V16.7753C1.18109 17.9021 2.09789 18.8189 3.22473 18.8189H16.7753ZM13.8384 10.2108C14.2768 10.3618 14.6786 10.6119 15.0161 10.9495L16.5312 12.4647C17.2514 13.1849 17.2504 14.3491 16.5311 15.0683C15.8133 15.7862 14.6453 15.786 13.9275 15.0685L13.3207 14.4617C12.5675 15.7059 11.0753 16.8628 9.06101 16.8628C6.3155 16.8628 4.08183 14.6292 4.08183 11.8837C4.08183 9.51448 5.74972 7.49597 8.02527 7.01276C8.09906 6.858 8.19519 6.71339 8.31156 6.58261C7.92941 6.21843 7.69054 5.70519 7.69054 5.1369C7.69054 4.03519 8.58687 3.13886 9.68859 3.13886C10.7903 3.13886 11.6866 4.03519 11.6866 5.1369C11.6866 5.70542 11.4476 6.21882 11.0652 6.583C11.297 6.84401 11.4559 7.17112 11.5096 7.5321H12.199C13.2142 7.5321 14.0401 8.35808 14.0401 9.37327C14.0401 9.67464 13.9673 9.95936 13.8384 10.2108ZM10.5147 5.1369C10.5147 4.68136 10.1441 4.31073 9.68855 4.31073C9.233 4.31073 8.86238 4.68136 8.86238 5.1369C8.86238 5.59245 9.233 5.96308 9.68855 5.96308C10.1441 5.96308 10.5147 5.59245 10.5147 5.1369ZM5.25363 11.8837C5.25363 13.983 6.9616 15.691 9.06093 15.691C10.6621 15.691 11.8354 14.7356 12.3941 13.7248H9.68851C8.67332 13.7248 7.84734 12.8989 7.84734 11.8837V8.27436C6.32144 8.78851 5.25363 10.2269 5.25363 11.8837ZM14.756 14.2397C15.0169 14.5006 15.4416 14.5007 15.7024 14.2397C15.9643 13.9779 15.9641 13.5549 15.7025 13.2933L14.1874 11.7781C13.824 11.4146 13.3407 11.2144 12.8266 11.2144H10.9437C10.6202 11.2144 10.3578 10.9521 10.3578 10.6285C10.3578 10.3049 10.6202 10.0425 10.9437 10.0425H12.199C12.568 10.0425 12.8683 9.7423 12.8683 9.37327C12.8683 9.00425 12.568 8.70398 12.199 8.70398H10.9438C10.6202 8.70398 10.3578 8.44163 10.3578 8.11804V7.80425C10.3578 7.43522 10.0576 7.13499 9.68859 7.13499C9.31839 7.13499 9.01929 7.43472 9.01929 7.80425V11.8837C9.01929 12.2546 9.3198 12.5529 9.68859 12.5529H12.8266C12.982 12.5529 13.131 12.6147 13.2409 12.7246L14.756 14.2397Z" />
    </symbol>
    <symbol viewBox="0 0 20 14" id="safe_box">
      <path fill-rule="evenodd" clip-rule="evenodd" d="M15.0391 12.5859H4.96094V13.25C4.96094 13.5736 4.69859 13.8359 4.375 13.8359C4.05141 13.8359 3.78906 13.5736 3.78906 13.25V12.5859H1.75781C0.788555 12.5859 0 11.7974 0 10.8281V1.92188C0 0.952617 0.788555 0.164062 1.75781 0.164062H18.2422C19.2114 0.164062 20 0.952656 20 1.92188V10.8281C20 11.7974 19.2114 12.5859 18.2422 12.5859H16.2109V13.25C16.2109 13.5736 15.9486 13.8359 15.625 13.8359C15.3014 13.8359 15.0391 13.5736 15.0391 13.25V12.5859ZM15.625 11.4141H18.2422C18.5653 11.4141 18.8281 11.1512 18.8281 10.8281V1.92188C18.8281 1.59879 18.5653 1.33594 18.2422 1.33594H1.75781C1.43473 1.33594 1.17188 1.59879 1.17188 1.92188V10.8281C1.17188 11.1512 1.43473 11.4141 1.75781 11.4141H4.375H15.625ZM5.9375 9.46057C4.2359 9.46057 2.85156 8.07627 2.85156 6.37463C2.85156 4.67303 4.2359 3.28869 5.9375 3.28869C7.6391 3.28869 9.02344 4.67303 9.02344 6.37463C9.02344 8.07623 7.6391 9.46057 5.9375 9.46057ZM5.9375 4.46056C4.88207 4.46056 4.02344 5.3192 4.02344 6.37463C4.02344 7.4301 4.88207 8.28869 5.9375 8.28869C6.99293 8.28869 7.85156 7.4301 7.85156 6.37463C7.85156 5.3192 6.99293 4.46056 5.9375 4.46056ZM11.8361 3.87454C11.8361 4.19819 11.5737 4.46056 11.2501 4.46056C10.9264 4.46056 10.6641 4.19819 10.6641 3.87454C10.6641 3.55089 10.9264 3.28852 11.2501 3.28852C11.5737 3.28852 11.8361 3.55089 11.8361 3.87454ZM13.7499 4.46056C14.0735 4.46056 14.3359 4.19819 14.3359 3.87454C14.3359 3.55089 14.0735 3.28852 13.7499 3.28852C13.4263 3.28852 13.1639 3.55089 13.1639 3.87454C13.1639 4.19819 13.4263 4.46056 13.7499 4.46056ZM16.8358 3.87454C16.8358 4.19819 16.5735 4.46056 16.2498 4.46056C15.9262 4.46056 15.6638 4.19819 15.6638 3.87454C15.6638 3.55089 15.9262 3.28852 16.2498 3.28852C16.5735 3.28852 16.8358 3.55089 16.8358 3.87454ZM11.2501 6.961C11.5737 6.961 11.8361 6.69863 11.8361 6.37499C11.8361 6.05134 11.5737 5.78897 11.2501 5.78897C10.9264 5.78897 10.6641 6.05134 10.6641 6.37499C10.6641 6.69863 10.9264 6.961 11.2501 6.961ZM14.3359 6.37499C14.3359 6.69863 14.0735 6.961 13.7499 6.961C13.4263 6.961 13.1639 6.69863 13.1639 6.37499C13.1639 6.05134 13.4263 5.78897 13.7499 5.78897C14.0735 5.78897 14.3359 6.05134 14.3359 6.37499ZM16.2498 6.961C16.5735 6.961 16.8358 6.69863 16.8358 6.37499C16.8358 6.05134 16.5735 5.78897 16.2498 5.78897C15.9262 5.78897 15.6638 6.05134 15.6638 6.37499C15.6638 6.69863 15.9262 6.961 16.2498 6.961ZM11.8361 8.87486C11.8361 9.19851 11.5737 9.46088 11.2501 9.46088C10.9264 9.46088 10.6641 9.19851 10.6641 8.87486C10.6641 8.55121 10.9264 8.28885 11.2501 8.28885C11.5737 8.28885 11.8361 8.55121 11.8361 8.87486ZM13.7499 9.46088C14.0735 9.46088 14.3359 9.19851 14.3359 8.87486C14.3359 8.55121 14.0735 8.28885 13.7499 8.28885C13.4263 8.28885 13.1639 8.55121 13.1639 8.87486C13.1639 9.19851 13.4263 9.46088 13.7499 9.46088ZM16.8358 8.87486C16.8358 9.19851 16.5735 9.46088 16.2498 9.46088C15.9262 9.46088 15.6638 9.19851 15.6638 8.87486C15.6638 8.55121 15.9262 8.28885 16.2498 8.28885C16.5735 8.28885 16.8358 8.55121 16.8358 8.87486Z"/>
    </symbol>
    <symbol viewBox="0 0 14 20" id="care_products">
      <path fill-rule="evenodd" clip-rule="evenodd" d="M7.1172 3.49398C7.64294 3.58488 8.05368 4.02781 8.08723 4.57703L8.9911 19.3784C9.01165 19.7151 8.74391 20 8.40626 20H0.906263C0.568958 20 0.300873 19.7154 0.321419 19.3784L1.22525 4.57691C1.25884 4.0277 1.66962 3.5848 2.19532 3.49395V0.585938C2.19532 0.262344 2.45767 0 2.78126 0H6.53126C6.85485 0 7.1172 0.262344 7.1172 0.585938V3.49398ZM7.08927 7.46094H2.22271L1.684 16.2891H7.62841L7.08927 7.46094ZM2.39441 4.6484C2.39441 4.64842 2.39445 4.64845 2.39431 4.64848L2.29423 6.28906H7.0177L6.91751 4.64844C2.42313 4.64844 2.39444 4.64775 2.39441 4.6484ZM5.94532 1.17188H3.3672V3.47656H5.94532V1.17188ZM1.61251 17.4609L1.52907 18.8281H7.78348L7.70001 17.4609H1.61251ZM10.2819 0H11.9225C12.8917 0 13.6803 0.788555 13.6803 1.75781V5.70312C13.6803 6.67238 12.8917 7.46094 11.9225 7.46094H11.1322C12.2012 10.4004 12.7428 13.4737 12.7428 16.6111V19.4141C12.7428 19.7377 12.4805 20 12.1569 20C11.8333 20 11.5709 19.7377 11.5709 19.4141V16.6111C11.5709 13.3454 10.9577 10.1517 9.74824 7.11863C9.74153 7.10368 9.73562 7.09482 9.73041 7.08557C9.67934 6.99481 9.69594 6.86597 9.69594 0.585938C9.69594 0.262344 9.95828 0 10.2819 0ZM11.9225 6.28906C12.2456 6.28906 12.5084 6.02621 12.5084 5.70312V1.75781C12.5084 1.43473 12.2456 1.17188 11.9225 1.17188H10.8678V6.28906H11.9225Z" />
    </symbol>
    <symbol viewBox="0 0 18 20" id="lavatrice">
      <path fill-rule="evenodd" clip-rule="evenodd" d="M0.601562 18.2422C0.601562 19.2114 1.39012 20 2.35938 20H15.6406C16.6099 20 17.3984 19.2114 17.3984 18.2422V4.99963V1.75781C17.3984 0.788594 16.6099 0 15.6406 0H5.5625H2.35938C1.39012 0 0.601562 0.788555 0.601562 1.75781V4.99963V18.2422ZM15.6406 1.17188H6.14844V4.41369H16.2266V1.75781C16.2266 1.43473 15.9637 1.17188 15.6406 1.17188ZM2.35938 1.17188H4.97656V4.41369H1.77344V1.75781C1.77344 1.43473 2.03629 1.17188 2.35938 1.17188ZM1.77344 5.58556H5.5414C5.5484 5.58581 5.55544 5.58594 5.5625 5.58594C5.56956 5.58594 5.5766 5.58581 5.5836 5.58556H16.2266V18.2422C16.2266 18.5653 15.9637 18.8281 15.6406 18.8281H2.35938C2.03629 18.8281 1.77344 18.5653 1.77344 18.2422V5.58556ZM13.6875 3.39844H14.3125C14.6361 3.39844 14.8984 3.13609 14.8984 2.8125C14.8984 2.48891 14.6361 2.22656 14.3125 2.22656H13.6875C13.3639 2.22656 13.1016 2.48891 13.1016 2.8125C13.1016 3.13609 13.3639 3.39844 13.6875 3.39844ZM11.1875 3.39844H10.5625C10.2389 3.39844 9.97656 3.13609 9.97656 2.8125C9.97656 2.48891 10.2389 2.22656 10.5625 2.22656H11.1875C11.5111 2.22656 11.7734 2.48891 11.7734 2.8125C11.7734 3.13609 11.5111 3.39844 11.1875 3.39844ZM3.72656 12.1875C3.72656 15.0953 6.09223 17.4609 9 17.4609C11.9078 17.4609 14.2734 15.0953 14.2734 12.1875C14.2734 9.27977 11.9078 6.91406 9 6.91406C6.09223 6.91406 3.72656 9.27977 3.72656 12.1875ZM4.89844 12.1875C4.89844 9.92594 6.7384 8.08594 9 8.08594C11.2616 8.08594 13.1016 9.9259 13.1016 12.1875C13.1016 14.4491 11.2616 16.2891 9 16.2891C6.7384 16.2891 4.89844 14.4491 4.89844 12.1875Z" />
    </symbol>
    <symbol viewBox="0 0 16 20" id="biancheria">
      <path fill-rule="evenodd" clip-rule="evenodd" d="M3.87891 18.8281V16.875V15.2734H14.582V18.8281H3.87891ZM14.582 14.1016H3.87891V12.7734H14.582V14.1016ZM14.582 11.6016H3.87891V1.81641C3.87891 1.76681 3.87691 1.71767 3.87299 1.66906C3.85898 1.49534 3.82043 1.32846 3.76082 1.17188H13.9961C14.3192 1.17188 14.582 1.43473 14.582 1.75781V11.6016ZM2.70703 17.4609H0.832031C0.508437 17.4609 0.246094 17.1986 0.246094 16.875V1.81641C0.246094 0.82999 1.03648 0.0246871 2.01719 0.000556845C2.02574 0.000186889 2.03433 0 2.04297 0H2.0625H13.9961C14.9654 0 15.7539 0.788555 15.7539 1.75781V12.1875V14.6875V19.4141C15.7539 19.7377 15.4916 20 15.168 20H3.29297C2.96938 20 2.70703 19.7377 2.70703 19.4141V17.4609ZM2.0625 1.17188C1.70711 1.17188 1.41797 1.46102 1.41797 1.81641V16.2891H2.70703V14.6875V12.1875V1.81641C2.70703 1.46102 2.41789 1.17188 2.0625 1.17188Z"/>
    </symbol>
    <symbol viewBox="0 0 20 20" id="bagno">
      <path fill-rule="evenodd" clip-rule="evenodd" d="M17.541 10.3467V3.021C17.541 2.621 17.385 2.24541 17.1018 1.96338C16.8196 1.68236 16.4456 1.52783 16.048 1.52783H16.0416C15.6995 1.52924 15.3654 1.64955 15.1008 1.86658L14.7988 2.11439C15.2244 2.92511 15.0968 3.9527 14.4161 4.63342L13.5322 5.51732C13.4224 5.62717 13.2733 5.68892 13.1179 5.68892C12.9625 5.68892 12.8134 5.6272 12.7036 5.51728L10.4939 3.30756C10.2651 3.07877 10.265 2.70776 10.4938 2.47893L11.3777 1.59502C12.0844 0.888436 13.1648 0.777877 13.9884 1.26341L14.3575 0.960605C14.8296 0.573223 15.426 0.358457 16.0368 0.355957H16.0481C16.7579 0.355957 17.4254 0.63166 17.9288 1.13307C18.4344 1.63658 18.7129 2.30705 18.7129 3.021V10.3467H19.4141C19.7377 10.3467 20 10.609 20 10.9326C20 11.2562 19.7377 11.5186 19.4141 11.5186H18.6142L18.1513 14.0645C17.7798 16.1079 16.2635 17.695 14.3359 18.2137V19.0576C14.3359 19.3812 14.0736 19.6436 13.75 19.6436C13.4264 19.6436 13.1641 19.3812 13.1641 19.0576V18.3908C13.0973 18.3933 13.0302 18.3946 12.9629 18.3946H7.03708C6.96977 18.3946 6.90271 18.3933 6.83594 18.3908V19.0576C6.83594 19.3812 6.57359 19.6436 6.25 19.6436C5.92641 19.6436 5.66406 19.3812 5.66406 19.0576V18.2137C3.7365 17.695 2.22024 16.1079 1.84872 14.0645L1.38582 11.5186H0.585938C0.262344 11.5186 0 11.2562 0 10.9326C0 10.609 0.262344 10.3467 0.585938 10.3467H17.541ZM3.00169 13.8548L2.57708 11.5196H17.4229L16.9984 13.8548C16.6436 15.8063 14.9464 17.2227 12.9629 17.2227H7.03708C5.0536 17.2227 3.35649 15.8063 3.00169 13.8548ZM11.7368 2.89326L13.1179 4.27436L13.5875 3.80479C13.9683 3.42401 13.9683 2.80447 13.5875 2.42369C13.2067 2.04291 12.5871 2.04291 12.2064 2.42369L11.7368 2.89326ZM7.71068 6.34645C7.82506 6.4609 7.97502 6.51809 8.12498 6.51809C8.27494 6.51809 8.4249 6.46087 8.53931 6.34645L8.85181 6.03395C9.08064 5.80512 9.08064 5.43414 8.85181 5.20531C8.62299 4.97648 8.25197 4.97648 8.02318 5.20531L7.71068 5.51781C7.48186 5.74664 7.48186 6.11762 7.71068 6.34645ZM10.625 6.8301C10.475 6.8301 10.3251 6.77292 10.2107 6.65846C9.98186 6.42963 9.98186 6.05866 10.2107 5.82983L10.5232 5.51732C10.752 5.2885 11.123 5.2885 11.3518 5.51732C11.5807 5.74615 11.5807 6.11713 11.3518 6.34596L11.0393 6.65846C10.9249 6.77288 10.7749 6.8301 10.625 6.8301ZM7.71068 8.84645C7.82506 8.9609 7.97502 9.01809 8.12498 9.01809C8.27494 9.01809 8.4249 8.96087 8.53931 8.84645L8.85181 8.53395C9.08064 8.30512 9.08064 7.93414 8.85181 7.70531C8.62299 7.47648 8.25197 7.47648 8.02318 7.70531L7.71068 8.01781C7.48186 8.24664 7.48186 8.61762 7.71068 8.84645Z"/>
    </symbol>
    <symbol viewBox="0 0 20 20" id="panorama">
      <path fill-rule="evenodd" clip-rule="evenodd" d="M0.740386 15.7152C0.701561 15.7226 0.662165 15.7263 0.622778 15.7263C0.463243 15.7263 0.303709 15.6657 0.182499 15.5436C-0.0114708 15.3497 -0.0508194 15.0596 0.0644531 14.8266V2.99245C0.0644531 2.72995 0.229615 2.49499 0.477206 2.40617C6.81693 0.13284 13.2456 0.13284 19.5853 2.40617C19.8329 2.49499 19.9982 2.72995 19.9982 2.99245V13.3309C20.0003 13.36 20.0003 13.3892 19.9982 13.4183V15.0359C19.9982 15.2982 19.8329 15.5333 19.5853 15.6221C16.4159 16.7593 13.224 17.3273 10.0313 17.3273C6.92688 17.3273 3.82328 16.7894 0.740386 15.7152ZM18.7524 13.6315V14.5939C13.1382 16.5147 7.45591 16.573 1.83772 14.7688L5.73077 10.8758C5.83617 10.7711 5.92346 10.7704 6.02886 10.8758L7.51562 12.3625C7.75895 12.6058 8.1536 12.6058 8.39693 12.3625L12.7906 7.96794C12.8961 7.8633 12.9833 7.86254 13.0888 7.96794L18.7524 13.6315ZM18.7524 11.869L13.97 7.08677C13.4219 6.53775 12.4585 6.53851 11.9102 7.08677L7.95665 11.0403L6.91017 9.99459C6.36192 9.44557 5.39847 9.44633 4.85037 9.99459L1.31032 13.5345V3.4344C7.10011 1.45337 12.9624 1.45337 18.7524 3.4344V11.869ZM4.21964 8.18372C3.30349 8.18372 2.55859 7.43867 2.55859 6.52253C2.55859 5.60638 3.30349 4.86133 4.21964 4.86133C5.13579 4.86133 5.88084 5.60638 5.88084 6.52253C5.88084 7.43867 5.13579 8.18372 4.21964 8.18372ZM4.21964 6.10719C3.99121 6.10719 3.80445 6.29334 3.80445 6.52253C3.80445 6.75171 3.99121 6.93786 4.21964 6.93786C4.44807 6.93786 4.63498 6.75171 4.63498 6.52253C4.63498 6.29334 4.44807 6.10719 4.21964 6.10719Z"/>
    </symbol>
    <symbol viewBox="0 0 20 20" id="ski">
      <path d="M10 6.76598L4.32407 1.0901C3.33426 0.100139 1.89146 -0.248454 0.558601 0.180364L0.272423 0.272424L0.180364 0.558602C-0.248454 1.89134 0.100138 3.33422 1.0901 4.32407L6.76601 10L0.000267235 16.7657L3.23427 19.9997L10.0002 13.2338L16.7658 19.9998L19.9998 16.7657L13.2342 9.99979L18.9099 4.32407C19.8999 3.33414 20.2484 1.89134 19.8196 0.558602L19.7275 0.272424L19.4414 0.180364C19.0729 0.0618227 18.6901 0.00171239 18.3037 0.00171239C17.311 0.00171239 16.3778 0.388231 15.676 1.0901L10 6.76598ZM10.4672 11.1097L8.89026 9.53281L11.0052 7.41785C11.44 6.98388 12.1469 6.98408 12.5814 7.4186C13.0162 7.85335 13.0162 8.56077 12.5814 8.99553L10.4672 11.1097ZM8.06172 10.3613L9.63869 11.9383L5.39433 16.1826L3.81741 14.6057L8.06172 10.3613ZM13.4099 6.59006C13.1293 6.30943 12.7883 6.11132 12.4165 6.00653L15.0742 3.34887L16.6511 4.9258L13.9924 7.58451C13.8899 7.22014 13.6961 6.87624 13.4099 6.59006ZM18.3036 1.17341C18.4644 1.17341 18.6242 1.18865 18.7815 1.21876C18.9404 2.0421 18.6851 2.89181 18.0813 3.49553L17.4796 4.09726L15.9027 2.52033L16.5044 1.9186C16.985 1.43807 17.6239 1.17341 18.3036 1.17341ZM6.00653 7.5835L3.34887 4.92584L4.92579 3.34891L7.58346 6.00657C7.21162 6.11132 6.87069 6.30943 6.59002 6.5901C6.30935 6.87077 6.11128 7.21167 6.00653 7.5835ZM1.21856 1.21856C2.0421 1.05952 2.89185 1.31492 3.49557 1.91864L4.0973 2.52037L2.52037 4.0973L1.9186 3.49553C1.31484 2.89177 1.05956 2.04195 1.21856 1.21856ZM7.41855 8.99553C6.98384 8.56077 6.98384 7.85331 7.41855 7.41856C7.85327 6.98388 8.56069 6.9838 8.99548 7.41856L9.17144 7.59451L7.59447 9.17148L7.41855 8.99553ZM1.65734 16.7657L2.98887 15.4342L4.5658 17.0111L3.23427 18.3427L1.65734 16.7657ZM16.7657 18.3426L15.4343 17.0111L17.0112 15.4342L18.3426 16.7657L16.7657 18.3426ZM16.1827 14.6056L14.6058 16.1825L10.8288 12.4052L12.4056 10.8283L16.1827 14.6056Z"/>
    </symbol>
    <symbol viewBox="0 0 20 20" id="parking">
      <path fill-rule="evenodd" clip-rule="evenodd" d="M16.7753 0H3.22473C1.4466 0 0 1.4466 0 3.22473V16.7753C0 18.5534 1.4466 20 3.22473 20H16.7753C18.5534 20 20 18.5534 20 16.7753V3.22473C20 1.4466 18.5534 0 16.7753 0ZM18.8189 16.7753C18.8189 17.9021 17.9021 18.8189 16.7753 18.8189H3.22473C2.09789 18.8189 1.18109 17.9021 1.18109 16.7753V3.22473C1.18109 2.09789 2.09785 1.18109 3.22473 1.18109H16.7753C17.9021 1.18109 18.8189 2.09785 18.8189 3.22473V16.7753ZM10.4123 3.28906H7.58765C6.50222 3.28906 5.61914 4.17215 5.61914 5.25758V16.1232C5.61914 16.4493 5.88355 16.7137 6.20969 16.7137H8.96558C9.29171 16.7137 9.55613 16.4493 9.55613 16.1232V12.7967H10.4123C13.0335 12.7967 15.166 10.6641 15.166 8.04285C15.166 5.4216 13.0335 3.28906 10.4123 3.28906ZM10.4123 11.6155H8.96562C8.63949 11.6155 8.37507 11.88 8.37507 12.2061V15.5326H6.80027V5.25754C6.80027 4.82336 7.15351 4.47016 7.58765 4.47016H10.4123C12.3823 4.47016 13.985 6.07285 13.985 8.04285C13.985 10.0129 12.3823 11.6155 10.4123 11.6155ZM8.96673 6.04472H10.4134C11.515 6.04472 12.4113 6.94097 12.4113 8.04261C12.4113 9.14425 11.515 10.0405 10.4134 10.0405H8.96673C8.6406 10.0405 8.37618 9.77609 8.37618 9.44995V6.63527C8.37618 6.30913 8.6406 6.04472 8.96673 6.04472ZM9.55728 8.85941H10.4134C10.8638 8.85941 11.2302 8.49296 11.2302 8.04261C11.2302 7.59222 10.8638 7.22581 10.4134 7.22581H9.55728V8.85941Z"/>  
    </symbol>
    <symbol viewBox="0 0 20 20" id="tv">
      <path fill-rule="evenodd" clip-rule="evenodd" d="M11.0577 3.84332H17.8037C19.0147 3.84332 20 4.82864 20 6.03968V17.2543C20 18.4653 19.0147 19.4506 17.8037 19.4506H2.1963C0.985253 19.4506 0 18.4653 0 17.2543V6.03968C0 4.82864 0.985253 3.84332 2.1963 3.84332H8.94229L6.78391 1.68501C6.52404 1.42507 6.52404 1.00359 6.78391 0.743727C7.04397 0.483862 7.46525 0.483862 7.72525 0.743727L10 3.01847L12.2747 0.743727C12.5348 0.483862 12.9561 0.483862 13.2161 0.743727C13.476 1.00366 13.476 1.42514 13.2161 1.68501L11.0577 3.84332ZM17.8036 18.1195C18.2807 18.1195 18.6689 17.7313 18.6689 17.2543H18.669V6.03968C18.669 5.56258 18.2807 5.17443 17.8037 5.17443H2.1963C1.71926 5.17443 1.33104 5.56258 1.33104 6.03968V17.2543C1.33104 17.7313 1.71926 18.1195 2.1963 18.1195H17.8036ZM8.68622 6.28711L14.2949 6.28717C14.5537 6.3337 14.7608 6.52832 14.8235 6.7838V16.5135C14.7609 16.7689 14.5538 16.9635 14.2949 17.0101H8.68622H3.07747C2.81861 16.9635 2.61148 16.7689 2.54885 16.5135V6.7838C2.61148 6.52832 2.81861 6.3337 3.07747 6.28717L8.68622 6.28711ZM8.68622 15.7743H13.6292V7.52293H8.68622H3.74319V15.7743H8.68622ZM17.0697 8.35235C17.5246 8.35235 17.8934 7.9836 17.8934 7.52872C17.8934 7.07383 17.5246 6.70508 17.0697 6.70508C16.6149 6.70508 16.2461 7.07383 16.2461 7.52872C16.2461 7.9836 16.6149 8.35235 17.0697 8.35235ZM17.8934 10.8236C17.8934 11.2785 17.5246 11.6473 17.0697 11.6473C16.6149 11.6473 16.2461 11.2785 16.2461 10.8236C16.2461 10.3688 16.6149 10 17.0697 10C17.5246 10 17.8934 10.3688 17.8934 10.8236Z"/>
    </symbol>
    <symbol id="wifi" viewBox="0 0 20 16">
      <path fill-rule="evenodd" clip-rule="evenodd" d="M0.130195 5.70173C2.4881 2.52715 6.24393 0.632812 10.1838 0.632812C13.9194 0.632812 17.4895 2.3359 19.8597 5.21839C20.0821 5.48879 20.0356 5.88953 19.7541 6.0976C19.4953 6.28885 19.1304 6.24689 18.9263 5.99808C16.786 3.39014 13.5595 1.84901 10.1839 1.84901C6.61801 1.84901 3.21833 3.56882 1.08998 6.44939C0.97069 6.61074 0.78674 6.69618 0.600357 6.69618C0.46465 6.69618 0.327624 6.65087 0.213403 6.55672C-0.041391 6.34692 -0.0666271 5.96666 0.130195 5.70173ZM7.96484 13.1506C7.96484 11.927 8.9603 10.9316 10.1838 10.9316C11.4073 10.9316 12.4028 11.927 12.4028 13.1506C12.4028 14.3742 11.4074 15.3695 10.1838 15.3695C8.9602 15.3695 7.96484 14.3742 7.96484 13.1506ZM9.18104 13.1505C9.18104 13.7035 9.63094 14.1532 10.1838 14.1532C10.7367 14.1532 11.1866 13.7035 11.1866 13.1505C11.1866 12.5975 10.7368 12.1477 10.1838 12.1477C9.63083 12.1477 9.18104 12.5975 9.18104 13.1505ZM10.1846 4C7.06289 4 4.17604 5.56758 2.46222 8.19336C2.27867 8.4746 2.35783 8.85142 2.63907 9.03497C2.92011 9.21861 3.29714 9.13946 3.48068 8.85811C4.96911 6.57774 7.47529 5.2162 10.1846 5.2162C12.8939 5.2162 15.4 6.57764 16.8885 8.85811C17.0051 9.03679 17.1997 9.13389 17.3983 9.13389C17.5123 9.13389 17.6275 9.10196 17.7301 9.03497C18.0113 8.85142 18.0905 8.4746 17.9069 8.19336C16.1931 5.56758 13.3062 4 10.1846 4ZM4.74185 10.5674C5.74856 8.50208 7.88532 7.16406 10.1828 7.16406C12.4803 7.16406 14.6171 8.50208 15.6265 10.5729C15.7454 10.8167 15.6881 11.1115 15.4864 11.293C15.3701 11.3976 15.2247 11.4491 15.0798 11.4491C14.9133 11.4491 14.7476 11.3812 14.6275 11.2478C14.5801 11.1951 14.5436 11.1366 14.5179 11.0746C13.7011 9.4345 12.005 8.38026 10.1828 8.38026C8.35863 8.38026 6.66102 9.43663 5.84788 11.0745C5.82204 11.1365 5.78555 11.1952 5.73812 11.2479C5.51333 11.4976 5.12881 11.5177 4.87928 11.2931C4.67597 11.1101 4.61952 10.812 4.74185 10.5674Z"/>
    </symbol>
    <symbol id="map" viewBox="0 0 16 16">
      <path xmlns="http://www.w3.org/2000/svg" fill-rule="evenodd" clip-rule="evenodd" d="M13.9762 9.09761L15.9762 15.3476C16.0315 15.5204 15.9889 15.7095 15.8648 15.8419C15.7691 15.944 15.6364 16 15.5 16C15.4596 16 15.4189 15.9951 15.3787 15.9851L11.5086 15.0175L8.13735 15.9807C8.04757 16.0064 7.95242 16.0064 7.86264 15.9807L4.49139 15.0175L0.621276 15.9851C0.445307 16.029 0.259277 15.9742 0.135214 15.8419C0.0111521 15.7096 -0.031504 15.5204 0.0238084 15.3476L2.0238 9.09761C2.07655 8.93276 2.21083 8.80689 2.37877 8.76492L4.41646 8.25561C3.7513 7.15392 3.25002 5.93164 3.25002 4.74999C3.25002 2.13084 5.38086 0 8.00001 0C10.6192 0 12.75 2.13084 12.75 4.74999C12.75 5.93164 12.2487 7.15392 11.5836 8.25561L13.6212 8.76492C13.7892 8.80689 13.9235 8.93276 13.9762 9.09761ZM7.50001 14.8371V11.971C7.1847 11.6783 6.48389 11.0002 5.74005 10.1004L5.06658 14.1418L7.50001 14.8371ZM10.26 10.1004C9.51613 11.0002 8.81535 11.6783 8.50001 11.971V14.8371L10.9334 14.1418L10.26 10.1004ZM11.75 4.74999C11.75 2.68224 10.0678 0.999998 8.00001 0.999998C5.93226 0.999998 4.25002 2.68224 4.25002 4.74999C4.25002 7.22902 7.02754 10.127 7.99982 11.0654C8.97166 10.1264 11.75 7.22527 11.75 4.74999ZM4.8813 9.1702L2.8914 9.66757L1.24993 14.7971L4.06074 14.0944L4.8813 9.1702ZM11.1188 9.1702L11.9393 14.0944L14.7501 14.7971L13.1087 9.66757L11.1188 9.1702ZM8 2C9.51634 2 10.75 3.23366 10.75 4.75C10.75 6.26638 9.51634 7.5 8 7.5C6.48366 7.5 5.25 6.26634 5.25 4.75C5.25 3.23366 6.48366 2 8 2ZM8 3C7.03506 3 6.25 3.78506 6.25 4.75C6.25 5.71497 7.03506 6.5 8 6.5C8.96494 6.5 9.75 5.71494 9.75 4.75C9.75 3.78506 8.96494 3 8 3Z"/>
    </symbol>
    <symbol id="star" viewBox="0 0 30 30">
      <path xmlns="http://www.w3.org/2000/svg" d="M28.3394 11.1152L19.27 10.2332L15.6675 1.46069C15.4152 0.846436 14.5847 0.846436 14.3325 1.46069L10.73 10.2332L1.66064 11.1152C1.02561 11.177 0.768961 12.0053 1.24808 12.4466L8.0909 18.7504L6.08835 28.0681C5.94813 28.7205 6.62002 29.2324 7.16838 28.891L15 24.0144L22.8316 28.891C23.38 29.2324 24.0519 28.7205 23.9117 28.0681L21.9091 18.7504L28.7519 12.4466C29.231 12.0053 28.9744 11.177 28.3394 11.1152Z" />
    </symbol>

    <symbol id="bell" viewBox="0 0 20 20">
      <path xmlns="http://www.w3.org/2000/svg" fill-rule="evenodd" clip-rule="evenodd" d="M10.0004 0C8.53343 0 7.33984 1.19359 7.33984 2.66055V3.07938C4.82394 4.13603 3.05052 6.64441 3.05052 9.56328V13.4667L1.09572 16.5075C0.959466 16.7192 0.949857 16.9885 1.07048 17.2094C1.19111 17.4302 1.42255 17.5679 1.67439 17.5679H6.84235C7.19935 18.9655 8.46897 20.0018 9.97613 20.0018H10.022C11.5292 20.0018 12.7988 18.9655 13.1558 17.5679H18.3258C18.5776 17.5679 18.809 17.4302 18.9294 17.2096C19.0502 16.9888 19.0406 16.7195 18.9044 16.5078L16.9496 13.4667V9.56328C16.9496 6.6448 15.1765 4.13669 12.6612 3.0798V2.66055C12.6612 1.19359 11.4674 0 10.0004 0ZM11.285 2.66519V2.66055C11.285 1.95227 10.7086 1.37613 10.0004 1.37613C9.29234 1.37613 8.71597 1.9523 8.71597 2.66055V2.66501C9.13224 2.58616 9.56146 2.54492 10.0001 2.54492C10.439 2.54492 10.8685 2.58623 11.285 2.66519ZM11.6985 17.5679H8.29963C8.59916 18.1929 9.23813 18.6256 9.97613 18.6256H10.022C10.76 18.6256 11.399 18.1929 11.6985 17.5679ZM4.31724 14.0408L2.93466 16.1917H17.0652L15.6826 14.0408C15.6113 13.9298 15.5735 13.8007 15.5735 13.6688V9.56328C15.5735 6.4523 13.0735 3.92109 10.0001 3.92109C6.92689 3.92109 4.42665 6.45226 4.42665 9.56328V13.6688C4.42665 13.8007 4.38857 13.93 4.31724 14.0408Z"/>
    </symbol>
    <symbol id="help" viewBox="0 0 20 20">
      <path xmlns="http://www.w3.org/2000/svg" fill-rule="evenodd" clip-rule="evenodd" d="M10 0C4.47328 0 0 4.47254 0 10C0 15.5267 4.47254 20 10 20C15.5267 20 20 15.5275 20 10C20 4.47328 15.5275 0 10 0ZM10 18.4375C5.33684 18.4375 1.5625 14.6638 1.5625 10C1.5625 5.33684 5.33621 1.5625 10 1.5625C14.6632 1.5625 18.4375 5.33621 18.4375 10C18.4375 14.6632 14.6638 18.4375 10 18.4375ZM10 15.7617C10.5393 15.7617 10.9766 15.3245 10.9766 14.7852C10.9766 14.2458 10.5393 13.8086 10 13.8086C9.46066 13.8086 9.02344 14.2458 9.02344 14.7852C9.02344 15.3245 9.46066 15.7617 10 15.7617ZM6.875 8.14453C6.875 6.42141 8.27687 5.01953 10 5.01953C11.7231 5.01953 13.125 6.42141 13.125 8.14453C13.125 9.59801 12.1276 10.8229 10.7812 11.1707V12.4414C10.7812 12.8729 10.4315 13.2227 10 13.2227C9.56852 13.2227 9.21875 12.8729 9.21875 12.4414V10.4883C9.21875 10.0568 9.56852 9.70703 10 9.70703C10.8616 9.70703 11.5625 9.00609 11.5625 8.14453C11.5625 7.28297 10.8616 6.58203 10 6.58203C9.13844 6.58203 8.4375 7.28297 8.4375 8.14453C8.4375 8.57602 8.08773 8.92578 7.65625 8.92578C7.22477 8.92578 6.875 8.57602 6.875 8.14453Z"/>
    </symbol>

    <symbol id="report" viewBox="0 0 24 24">
        <path xmlns="http://www.w3.org/2000/svg" fill-rule="evenodd" clip-rule="evenodd" d="M14.82 4H19C20.1 4 21 4.9 21 6V20C21 21.1 20.1 22 19 22H5C4.86 22 4.73 21.99 4.6 21.97C4.21 21.89 3.86 21.69 3.59 21.42C3.41 21.23 3.26 21.02 3.16 20.78C3.06 20.54 3 20.27 3 20V6C3 5.72 3.06 5.46 3.16 5.23C3.26 4.99 3.41 4.77 3.59 4.59C3.86 4.32 4.21 4.12 4.6 4.04C4.73 4.01 4.86 4 5 4H9.18C9.6 2.84 10.7 2 12 2C13.3 2 14.4 2.84 14.82 4ZM7 10V8H17V10H7ZM17 14V12H7V14H17ZM14 16H7V18H14V16ZM12 3.75C12.41 3.75 12.75 4.09 12.75 4.5C12.75 4.91 12.41 5.25 12 5.25C11.59 5.25 11.25 4.91 11.25 4.5C11.25 4.09 11.59 3.75 12 3.75ZM5 20H19V6H5V20Z"/>
    </symbol>
    <symbol id="settings" viewBox="0 0 24 24">
        <path xmlns="http://www.w3.org/2000/svg" id="icon/action/settings_24px_2" fill-rule="evenodd" clip-rule="evenodd" d="M19.5022 12C19.5022 12.34 19.4722 12.66 19.4321 12.98L21.5421 14.63C21.7322 14.78 21.7821 15.05 21.6621 15.27L19.6621 18.73C19.5721 18.89 19.4021 18.98 19.2322 18.98C19.1721 18.98 19.1122 18.97 19.0521 18.95L16.5621 17.95C16.0421 18.34 15.4822 18.68 14.8722 18.93L14.4922 21.58C14.4622 21.82 14.2522 22 14.0022 22H10.0022C9.7522 22 9.54211 21.82 9.51221 21.58L9.1322 18.93C8.52222 18.68 7.96216 18.35 7.44214 17.95L4.95215 18.95C4.9021 18.97 4.84216 18.98 4.7821 18.98C4.60217 18.98 4.43213 18.89 4.34216 18.73L2.34216 15.27C2.22217 15.05 2.27222 14.78 2.46216 14.63L4.57214 12.98C4.5321 12.66 4.5022 12.33 4.5022 12C4.5022 11.67 4.5321 11.34 4.57214 11.02L2.46216 9.37C2.27222 9.22 2.21216 8.95001 2.34216 8.73001L4.34216 5.26999C4.43213 5.10999 4.60217 5.01999 4.77222 5.01999C4.83215 5.01999 4.89221 5.03 4.95215 5.04999L7.44214 6.04999C7.96216 5.66 8.52222 5.32001 9.1322 5.07001L9.51221 2.42001C9.54211 2.17999 9.7522 2 10.0022 2H14.0022C14.2522 2 14.4622 2.17999 14.4922 2.42001L14.8722 5.07001C15.4822 5.32001 16.0421 5.64999 16.5621 6.04999L19.0521 5.04999C19.1022 5.03 19.1621 5.01999 19.2222 5.01999C19.4021 5.01999 19.5721 5.10999 19.6621 5.26999L21.6621 8.73001C21.7821 8.95001 21.7322 9.22 21.5421 9.37L19.4321 11.02C19.4722 11.34 19.5022 11.66 19.5022 12ZM17.5022 12C17.5022 11.79 17.4922 11.58 17.4521 11.27L17.3121 10.14L18.2021 9.44L19.2722 8.59L18.5721 7.38L17.3021 7.89001L16.2422 8.32001L15.3322 7.62C14.9321 7.32001 14.5322 7.09 14.1022 6.91L13.0421 6.48001L12.8822 5.35001L12.6921 4H11.3021L11.1022 5.35001L10.9421 6.48001L9.8822 6.91C9.47217 7.07999 9.06213 7.32001 8.6322 7.64001L7.73218 8.32001L6.69214 7.89999L5.42212 7.39001L4.72217 8.60001L5.80212 9.44L6.69214 10.14L6.55212 11.27C6.52222 11.57 6.5022 11.8 6.5022 12C6.5022 12.2 6.52222 12.43 6.55212 12.74L6.69214 13.87L5.80212 14.57L4.72217 15.41L5.42212 16.62L6.69214 16.11L7.7522 15.68L8.66211 16.38C9.06213 16.68 9.46216 16.91 9.89221 17.09L10.9521 17.52L11.1122 18.65L11.3021 20H12.7021L12.9022 18.65L13.0621 17.52L14.1222 17.09C14.5322 16.92 14.9421 16.68 15.3722 16.36L16.2722 15.68L17.3121 16.1L18.5822 16.61L19.2822 15.4L18.2021 14.56L17.3121 13.86L17.4521 12.73C17.4822 12.43 17.5022 12.21 17.5022 12ZM12.0022 8C9.79224 8 8.0022 9.79001 8.0022 12C8.0022 14.21 9.79224 16 12.0022 16C14.2122 16 16.0022 14.21 16.0022 12C16.0022 9.79001 14.2122 8 12.0022 8ZM10.0022 12C10.0022 13.1 10.9022 14 12.0022 14C13.1022 14 14.0022 13.1 14.0022 12C14.0022 10.9 13.1022 10 12.0022 10C10.9022 10 10.0022 10.9 10.0022 12Z"/>
    </symbol>
    <symbol id="alert" viewBox="0 0 24 24">
        <path xmlns="http://www.w3.org/2000/svg" fill-rule="evenodd" clip-rule="evenodd" d="M18 15.75V10.75C18 7.68 16.37 5.11 13.5 4.43V3.75C13.5 2.92 12.83 2.25 12 2.25C11.17 2.25 10.5 2.92 10.5 3.75V4.43C7.64 5.11 6 7.67 6 10.75V15.75L4 17.75V18.75H20V17.75L18 15.75ZM12 21.75C13.1 21.75 14 20.85 14 19.75H10C10 20.85 10.9 21.75 12 21.75ZM8 16.75H16V10.75C16 8.27 14.49 6.25 12 6.25C9.51 6.25 8 8.27 8 10.75V16.75Z"/>
    </symbol>
    <symbol id="info" viewBox="0 0 20 20">
      <path xmlns="http://www.w3.org/2000/svg" fill-rule="evenodd" clip-rule="evenodd" d="M9.99988 18.7505C12.3205 18.7505 14.5461 17.8286 16.1871 16.1877C17.828 14.5467 18.7499 12.3211 18.7499 10.0005C18.7499 7.67984 17.828 5.45425 16.1871 3.8133C14.5461 2.17236 12.3205 1.25049 9.99988 1.25049C7.67923 1.25049 5.45364 2.17236 3.81269 3.8133C2.17175 5.45425 1.24988 7.67984 1.24988 10.0005C1.24988 12.3211 2.17175 14.5467 3.81269 16.1877C5.45364 17.8286 7.67923 18.7505 9.99988 18.7505ZM9.99988 20.0005C12.652 20.0005 15.1956 18.9469 17.0709 17.0716C18.9463 15.1962 19.9999 12.6527 19.9999 10.0005C19.9999 7.34832 18.9463 4.80478 17.0709 2.92942C15.1956 1.05406 12.652 0.000488281 9.99988 0.000488281C7.34771 0.000488281 4.80417 1.05406 2.92881 2.92942C1.05345 4.80478 -0.00012207 7.34832 -0.00012207 10.0005C-0.00012207 12.6527 1.05345 15.1962 2.92881 17.0716C4.80417 18.9469 7.34771 20.0005 9.99988 20.0005ZM11.1623 8.23486L8.29982 8.59361L8.19732 9.06861L8.75982 9.17236C9.12732 9.25986 9.19982 9.39236 9.11982 9.75861L8.19732 14.0936C7.95482 15.2149 8.32857 15.7424 9.20732 15.7424C9.88857 15.7424 10.6798 15.4274 11.0386 14.9949L11.1486 14.4749C10.8986 14.6949 10.5336 14.7824 10.2911 14.7824C9.94732 14.7824 9.82232 14.5411 9.91107 14.1161L11.1623 8.23486ZM11.2499 5.62549C11.2499 6.31584 10.6902 6.87549 9.99988 6.87549C9.30952 6.87549 8.74988 6.31584 8.74988 5.62549C8.74988 4.93513 9.30952 4.37549 9.99988 4.37549C10.6902 4.37549 11.2499 4.93513 11.2499 5.62549Z"/>
    </symbol>
    <symbol id="info-2" viewBox="0 0 10 10">
      <path fill-rule="evenodd" clip-rule="evenodd" d="M5 0C2.23627 0 0 2.23646 0 5C0 7.76373 2.23646 10 5 10C7.76373 10 10 7.76354 10 5C10 2.23627 7.76352 0 5 0ZM5 9.21875C2.66811 9.21875 0.78125 7.33174 0.78125 5C0.78125 2.66811 2.66826 0.78125 5 0.78125C7.33189 0.78125 9.21875 2.66826 9.21875 5C9.21875 7.33189 7.33172 9.21875 5 9.21875ZM5 4.18604C4.78426 4.18604 4.60938 4.36092 4.60938 4.57666V7.09216C4.60938 7.3079 4.78426 7.48279 5 7.48279C5.21574 7.48279 5.39062 7.30789 5.39062 7.09214V4.57666C5.39062 4.36092 5.21574 4.18604 5 4.18604ZM5.52734 3.18066C5.52734 3.47191 5.29124 3.70801 5 3.70801C4.70876 3.70801 4.47266 3.47191 4.47266 3.18066C4.47266 2.88942 4.70876 2.65332 5 2.65332C5.29124 2.65332 5.52734 2.88942 5.52734 3.18066Z" />
    </symbol>

    <symbol id="save" viewBox="0 0 24 24">
        <path xmlns="http://www.w3.org/2000/svg" id="icon/content/save_24px_2" fill-rule="evenodd" clip-rule="evenodd" d="M5 3H17L21 7V19C21 20.1 20.1 21 19 21H5C3.89001 21 3 20.1 3 19V5C3 3.89999 3.89001 3 5 3ZM19 19V7.83L16.17 5H5V19H19ZM12 12C10.34 12 9 13.34 9 15C9 16.66 10.34 18 12 18C13.66 18 15 16.66 15 15C15 13.34 13.66 12 12 12ZM15 6H6V10H15V6Z"/>
    </symbol>
    <symbol id="sun" viewBox="0 0 24 24">
        <path xmlns="http://www.w3.org/2000/svg" id="icon/image/brightness_4_24px_2" fill-rule="evenodd" clip-rule="evenodd" d="M20 8.69V4H15.3099L12 0.690002L8.68994 4H4V8.69L0.689941 12L4 15.31V20H8.68994L12 23.31L15.3099 20H20V15.31L23.3099 12L20 8.69ZM17.9999 14.48V18H14.4799L11.9999 20.48L9.5199 18H5.99988V14.48L3.5199 12L5.99988 9.51999V6H9.5199L11.9999 3.51999L14.4799 6H17.9999V9.51999L20.4799 12L17.9999 14.48ZM10.21 7.45999C10.84 7.17001 11.5499 7 12.2899 7C15.0499 7 17.2899 9.23999 17.2899 12C17.2899 14.76 15.0499 17 12.2899 17C11.5499 17 10.84 16.83 10.21 16.54C11.9299 15.75 13.13 14.01 13.13 12C13.13 9.98999 11.9299 8.25 10.21 7.45999Z"/>
    </symbol>
    <symbol id="image" viewBox="0 0 24 24">
        <path xmlns="http://www.w3.org/2000/svg" fill-rule="evenodd" clip-rule="evenodd" d="M21 4H3C1.9 4 1 4.9 1 6V18C1 19.1 1.9 20 3 20H21C22.1 20 23 19.1 23 18V6C23 4.9 22.1 4 21 4ZM21 18H3V6H21V18ZM11 15.51L14.5 11L19 17H5L8.5 12.5L11 15.51Z"/>
    </symbol>

    <symbol id="filter" viewBox="0 0 24 24">
        <path xmlns="http://www.w3.org/2000/svg" id="icon/content/filter_list_24px_2" fill-rule="evenodd" clip-rule="evenodd" d="M3 6V8H21V6H3ZM10 18H14V16H10V18ZM18 13H6V11H18V13Z"/>
    </symbol>

    <symbol id="plus" viewBox="0 0 24 24">
        <path xmlns="http://www.w3.org/2000/svg" id="icon/content/add_24px_2" d="M19 13H13V19H11V13H5V11H11V5H13V11H19V13Z"/>
    </symbol>
    <symbol id="plus-sm" viewBox="0 0 10 10">
      <path xmlns="http://www.w3.org/2000/svg" fill-rule="evenodd" clip-rule="evenodd" d="M4 6L4 10H6V6H10V4H6V0H4L4 4H0V6H4Z" />
    </symbol>
    <symbol id="minus-sm" viewBox="0 0 10 10">
      <path xmlns="http://www.w3.org/2000/svg" d="M0 4H10V6H0V4Z" />
    </symbol>

    <symbol id="dots" viewBox="0 0 24 24">
        <path xmlns="http://www.w3.org/2000/svg" id="icon/navigation/more_horiz_24px_2" fill-rule="evenodd" clip-rule="evenodd" d="M6 10C4.90002 10 4 10.9 4 12C4 13.1 4.90002 14 6 14C7.09998 14 8 13.1 8 12C8 10.9 7.09998 10 6 10ZM18 10C16.9 10 16 10.9 16 12C16 13.1 16.9 14 18 14C19.1 14 20 13.1 20 12C20 10.9 19.1 10 18 10ZM10 12C10 10.9 10.9 10 12 10C13.1 10 14 10.9 14 12C14 13.1 13.1 14 12 14C10.9 14 10 13.1 10 12Z"/>
    </symbol>
    <symbol id="dots_vertical" viewBox="0 0 24 24">
        <path xmlns="http://www.w3.org/2000/svg" id="icon/navigation/more_vert_24px_2" fill-rule="evenodd" clip-rule="evenodd" d="M12 8C13.1 8 14 7.10001 14 6C14 4.89999 13.1 4 12 4C10.9 4 10 4.89999 10 6C10 7.10001 10.9 8 12 8ZM12 10C10.9 10 10 10.9 10 12C10 13.1 10.9 14 12 14C13.1 14 14 13.1 14 12C14 10.9 13.1 10 12 10ZM10 18C10 16.9 10.9 16 12 16C13.1 16 14 16.9 14 18C14 19.1 13.1 20 12 20C10.9 20 10 19.1 10 18Z"/>
    </symbol>
    <symbol id="check" viewBox="0 0 24 24">
        <path xmlns="http://www.w3.org/2000/svg" id="icon/action/done_24px_2" d="M8.79995 15.9L4.59995 11.7L3.19995 13.1L8.79995 18.7L20.8 6.7L19.4 5.3L8.79995 15.9Z"/>
    </symbol>

    <symbol id="go_back" viewBox="0 0 24 24">
        <path xmlns="http://www.w3.org/2000/svg" fill-rule="evenodd" clip-rule="evenodd" d="M3.29289 12.7497C2.90237 12.3592 2.90237 11.726 3.29289 11.3355L3.29656 11.3319L7.53553 7.09288C7.92606 6.70236 8.55922 6.70236 8.94975 7.09288C9.34027 7.48341 9.34027 8.11657 8.94975 8.50709L6.45684 11H20C20.5523 11 21 11.4477 21 12C21 12.5523 20.5523 13 20 13H6.37162L8.94976 15.5781C9.34028 15.9687 9.34028 16.6018 8.94976 16.9923C8.55923 17.3829 7.92607 17.3829 7.53554 16.9923L3.29783 12.7546L3.29289 12.7497Z"/>
    </symbol>
    <symbol id="arr_left" viewBox="0 0 24 24">
        <path xmlns="http://www.w3.org/2000/svg" fill-rule="evenodd" clip-rule="evenodd" d="M15.7071 5.29289C15.3166 4.90237 14.6834 4.90237 14.2929 5.29289L8.29289 11.2929C7.90237 11.6834 7.90237 12.3166 8.29289 12.7071L14.2929 18.7071C14.6834 19.0976 15.3166 19.0976 15.7071 18.7071C16.0976 18.3166 16.0976 17.6834 15.7071 17.2929L10.4142 12L15.7071 6.70711C16.0976 6.31658 16.0976 5.68342 15.7071 5.29289Z"/>
    </symbol>
    <symbol id="arr_right" viewBox="0 0 24 24">
        <path xmlns="http://www.w3.org/2000/svg" fill-rule="evenodd" clip-rule="evenodd" d="M8.29289 5.29289C8.68342 4.90237 9.31658 4.90237 9.70711 5.29289L15.7071 11.2929C16.0976 11.6834 16.0976 12.3166 15.7071 12.7071L9.70711 18.7071C9.31658 19.0976 8.68342 19.0976 8.29289 18.7071C7.90237 18.3166 7.90237 17.6834 8.29289 17.2929L13.5858 12L8.29289 6.70711C7.90237 6.31658 7.90237 5.68342 8.29289 5.29289Z"/>
    </symbol>
    <symbol id="arr_down" viewBox="0 0 24 24">
        <path xmlns="http://www.w3.org/2000/svg" id="icon/navigation/expand_more_24px_2" d="M16.59 8.29501L12 12.875L7.41 8.29501L6 9.70501L12 15.705L18 9.70501L16.59 8.29501Z"/>
    </symbol>
    <symbol id="arr_down_solid" viewBox="0 0 24 24">
        <path xmlns="http://www.w3.org/2000/svg" id="icon/navigation/arrow_drop_down_24px_2" d="M7 9.5L12 14.5L17 9.5H7Z"/>
    </symbol>

    <symbol id="copy" viewBox="0 0 24 24">
        <path xmlns="http://www.w3.org/2000/svg" id="icon/content/copy_24px_2" fill-rule="evenodd" clip-rule="evenodd" d="M16.5 1H4.5C3.4 1 2.5 1.9 2.5 3V17H4.5V3H16.5V1ZM19.5 5H8.5C7.4 5 6.5 5.9 6.5 7V21C6.5 22.1 7.4 23 8.5 23H19.5C20.6 23 21.5 22.1 21.5 21V7C21.5 5.9 20.6 5 19.5 5ZM8.5 21H19.5V7H8.5V21Z"/>
    </symbol>
    <symbol id="edit" viewBox="0 0 20 20">
      <path xmlns="http://www.w3.org/2000/svg" fill-rule="evenodd" clip-rule="evenodd" d="M15.5917 0.73295C16.4671 -0.142429 17.8863 -0.142429 18.7617 0.73295L19.3462 1.31744C20.2202 2.1934 20.2202 3.61144 19.3462 4.48741L10.4599 13.3741C10.399 13.435 10.3235 13.479 10.2406 13.5019L6.0217 14.6707C5.84873 14.7186 5.6635 14.6697 5.53644 14.5429C5.40958 14.4158 5.36074 14.2306 5.4088 14.0576L6.5774 9.83871C6.60036 9.75582 6.64433 9.68033 6.70523 9.61943L15.5917 0.73295ZM15.0635 2.67011L7.79056 9.9432L10.1359 12.2888L17.409 5.01567L15.0635 2.67011ZM9.19595 12.7575L7.32203 10.8834L6.60386 13.4756L9.19595 12.7575ZM18.1136 4.31132L18.6418 3.78306C19.1273 3.29643 19.1273 2.50861 18.6418 2.02179L18.0571 1.4373C17.5709 0.951065 16.7825 0.951065 16.2963 1.4373L15.7678 1.96556L18.1136 4.31132ZM17.9611 13.0619C17.9611 12.7868 18.1841 12.5638 18.4592 12.5638C18.7343 12.5638 18.9573 12.7868 18.9573 13.0619V17.4847C18.9558 18.8595 17.8416 19.9737 16.4668 19.9752H2.49052C1.11567 19.9737 0.00155657 18.8595 0 17.4847V4.50443C0.00155657 3.12959 1.11567 2.01547 2.49052 2.01392H6.91313C7.18826 2.01392 7.41124 2.23709 7.41124 2.51202C7.41124 2.78714 7.18826 3.01012 6.91313 3.01012H2.49052C1.66553 3.0111 0.99718 3.67964 0.996207 4.50443V17.4845C0.99718 18.3095 1.66553 18.978 2.49052 18.9788H16.4668C17.2918 18.978 17.9601 18.3095 17.9611 17.4845V13.0619Z"/>
    </symbol>
    <symbol id="upload" viewBox="0 0 24 24">
      <path xmlns="http://www.w3.org/2000/svg" id="icon/file/upload_24px_2" fill-rule="evenodd" clip-rule="evenodd" d="M15 16.5V10.5H19L12 3.5L5 10.5H9V16.5H15ZM12 6.33L14.17 8.5H13V14.5H11V8.5H9.82999L12 6.33ZM19 20.5V18.5H5V20.5H19Z"/>
    </symbol>
    <symbol id="delete" viewBox="0 0 20 20">
      <path xmlns="http://www.w3.org/2000/svg" fill-rule="evenodd" clip-rule="evenodd" d="M14.0715 2.87829H18.2327C18.5411 2.87829 18.7878 3.125 18.7878 3.43339C18.7878 3.74178 18.5411 3.98849 18.2327 3.98849H17.2294V17.0312C17.2294 18.6678 15.8972 20 14.2607 20H5.52714C3.89063 20 2.55839 18.6678 2.55839 17.0312V3.98849H1.5551C1.24671 3.98849 1 3.74178 1 3.43339C1 3.125 1.24671 2.87829 1.5551 2.87829H5.71628V2.19984C5.71628 0.986842 6.70313 0 7.91612 0H11.8717C13.0847 0 14.0715 0.986842 14.0715 2.19984V2.87829ZM7.91612 1.1102C7.31579 1.1102 6.82648 1.59951 6.82648 2.19984V2.87829H12.9613V2.19984C12.9613 1.59951 12.472 1.1102 11.8717 1.1102H7.91612ZM14.2607 18.8898C15.2845 18.8898 16.1192 18.0551 16.1192 17.0312H16.1234V3.98849H3.66859V17.0312C3.66859 18.0551 4.50329 18.8898 5.52714 18.8898H14.2607ZM10.45 16.3447C10.45 16.6531 10.2033 16.8998 9.89493 16.8998C9.58655 16.8998 9.33984 16.649 9.33984 16.3406V6.53386C9.33984 6.22547 9.58655 5.97876 9.89493 5.97876C10.2033 5.97876 10.45 6.22547 10.45 6.53386V16.3447ZM6.26994 16.288C6.57833 16.288 6.82504 16.0412 6.82504 15.7329V7.14323C6.82504 6.83485 6.57833 6.58813 6.26994 6.58813C5.96155 6.58813 5.71484 6.83485 5.71484 7.14323V15.7329C5.71484 16.0412 5.96567 16.288 6.26994 16.288ZM14.0711 15.7329C14.0711 16.0412 13.8244 16.288 13.516 16.288C13.2076 16.288 12.9609 16.0412 12.9609 15.7329V7.14323C12.9609 6.83485 13.2076 6.58813 13.516 6.58813C13.8244 6.58813 14.0711 6.83485 14.0711 7.14323V15.7329Z" />
    </symbol>
    <symbol id="close" viewBox="0 0 24 24">
        <path xmlns="http://www.w3.org/2000/svg" id="icon/content/clear_24px_2" d="M19 6.41L17.59 5L12 10.59L6.41 5L5 6.41L10.59 12L5 17.59L6.41 19L12 13.41L17.59 19L19 17.59L13.41 12L19 6.41Z"/>
    </symbol>
    <symbol id="marker" viewBox="0 0 22 28">
      <path xmlns="http://www.w3.org/2000/svg" d="M20.8031 7.33906C19.8188 4.15625 17.2266 1.56401 14.0437 0.579688C12.9281 0.235102 11.7797 0 10.6641 0C8.38359 0 6.18521 0.760156 4.34771 2.13834C1.62416 4.13984 0 7.33906 0 10.7188C0 13.0484 0.738281 15.2632 2.13281 17.1171L10.6641 28L19.1953 17.1171C21.2789 14.3281 21.8695 10.7679 20.8031 7.33906ZM10.6641 16.4609C7.49766 16.4609 4.92188 13.8852 4.92188 10.7188C4.92188 7.55234 7.49766 4.92188 10.6641 4.92188C13.8305 4.92188 16.4062 7.55234 16.4062 10.7188C16.4062 13.8852 13.8305 16.4609 10.6641 16.4609Z" fill="#f44336"/>
    </symbol>
    <symbol id="road" viewBox="0 0 70 70">
      <path d="M47.0296 69.9913H24.1383C16.8611 69.9913 10.9407 64.0709 10.9407 56.7937C10.9407 49.5164 16.8611 43.5959 24.1383 43.5959H31.7477C33.9923 43.5959 35.8182 41.7699 35.8182 39.5254C35.8182 37.2809 33.9923 35.455 31.7477 35.455H23.7914V31.3539H31.7477C36.2536 31.3539 39.9193 35.0196 39.9193 39.5254C39.9193 44.0313 36.2536 47.6969 31.7477 47.6969H24.1383C19.1225 47.6969 15.0417 51.7776 15.0417 56.7935C15.0417 61.8094 19.1223 65.8903 24.1383 65.8903H47.0296V69.9913Z" fill="#027DBD"/>
      <path fill-rule="evenodd" clip-rule="evenodd" d="M4.04468 23.5506C1.54822 21.0541 0.00402832 17.6051 0.00402832 13.7956C0.00402832 6.17649 6.18066 0 13.7996 0C21.4189 0 27.5954 6.17649 27.5952 13.7957C27.5952 17.6052 26.051 21.0542 23.5546 23.5507L13.7996 33.3055L4.04468 23.5506ZM13.7999 19.3883C10.7155 19.3883 8.20618 16.879 8.20618 13.7946C8.20618 10.7102 10.7155 8.20087 13.7998 8.20084C16.8841 8.20087 19.3934 10.7102 19.3934 13.7946C19.3934 16.879 16.8841 19.3883 13.7999 19.3883ZM48.1222 54.5318C48.1222 57.4531 49.2597 60.1996 51.3253 62.2653L59.0589 69.9989L66.7925 62.2655C68.8581 60.1996 69.9957 57.4531 69.9957 54.5319C69.9957 48.5013 65.0896 43.5951 59.0589 43.5951C53.0284 43.5951 48.1222 48.5013 48.1222 54.5318Z" fill="#E30E0E"/>
    </symbol>
    
    <!-- Alerts -->
    <symbol id="alert_info" viewBox="0 0 24 24">
      <path d="M11 7H13V9H11V7Z"/>
      <path d="M11 11H13V17H11V11Z"/>
      <path fill-rule="evenodd" clip-rule="evenodd" d="M2 12C2 6.48 6.47998 2 12 2C17.52 2 22 6.48 22 12C22 17.52 17.52 22 12 22C6.47998 22 2 17.52 2 12ZM4 12C4 16.41 7.58997 20 12 20C16.41 20 20 16.41 20 12C20 7.59 16.41 4 12 4C7.58997 4 4 7.59 4 12Z"/>
    </symbol>
    <symbol id="alert_success" viewBox="0 0 24 24">
      <path xmlns="http://www.w3.org/2000/svg" id="icon/action/check_circle_24px_2" fill-rule="evenodd" clip-rule="evenodd" d="M12 2C6.47998 2 2 6.48 2 12C2 17.52 6.47998 22 12 22C17.52 22 22 17.52 22 12C22 6.48 17.52 2 12 2ZM12 20C7.58997 20 4 16.41 4 12C4 7.59 7.58997 4 12 4C16.41 4 20 7.59 20 12C20 16.41 16.41 20 12 20ZM10 14.17L16.59 7.58L18 9L10 17L6 13L7.41003 11.59L10 14.17Z"/>
    </symbol>
    <symbol id="alert_warning" viewBox="0 0 24 24">
      <path xmlns="http://www.w3.org/2000/svg" id="icon/outlined/alert/error_outline_24px_2" fill-rule="evenodd" clip-rule="evenodd" d="M11.99 2C6.47 2 2 6.48 2 12C2 17.52 6.47 22 11.99 22C17.52 22 22 17.52 22 12C22 6.48 17.52 2 11.99 2ZM13 13V7H11V13H13ZM13 17V15H11V17H13ZM4 12C4 16.42 7.58 20 12 20C16.42 20 20 16.42 20 12C20 7.58 16.42 4 12 4C7.58 4 4 7.58 4 12Z"/>
    </symbol>
    <symbol id="alert_danger" viewBox="0 0 24 24">
      <path xmlns="http://www.w3.org/2000/svg" id="icon/outlined/alert/warning_amber_24px_2" fill-rule="evenodd" clip-rule="evenodd" d="M1 21.5L12 2.5L23 21.5H1ZM19.53 19.5L12 6.49L4.47 19.5H19.53ZM11 16.5V18.5H13V16.5H11ZM11 10.5H13V14.5H11V10.5Z"/>
    </symbol>

    <!-- Eyes -->
    <symbol id="eye" viewBox="0 0 24 24">
        <path xmlns="http://www.w3.org/2000/svg" id="icon/action/visibility_24px_2" fill-rule="evenodd" clip-rule="evenodd" d="M1 12C2.72998 7.60999 7 4.5 12 4.5C17 4.5 21.27 7.60999 23 12C21.27 16.39 17 19.5 12 19.5C7 19.5 2.72998 16.39 1 12ZM20.8201 12C19.17 8.63 15.79 6.5 12 6.5C8.21008 6.5 4.83008 8.63 3.18005 12C4.83008 15.37 8.21008 17.5 12 17.5C15.79 17.5 19.17 15.37 20.8201 12ZM12 9.5C13.38 9.5 14.5 10.62 14.5 12C14.5 13.38 13.38 14.5 12 14.5C10.62 14.5 9.5 13.38 9.5 12C9.5 10.62 10.62 9.5 12 9.5ZM7.5 12C7.5 9.52002 9.52002 7.5 12 7.5C14.48 7.5 16.5 9.52002 16.5 12C16.5 14.48 14.48 16.5 12 16.5C9.52002 16.5 7.5 14.48 7.5 12Z"/>
    </symbol>
    <symbol id="eye_hide" viewBox="0 0 18 18">
        <path xmlns="http://www.w3.org/2000/svg" fill-rule="evenodd" clip-rule="evenodd" d="M3.5175 4.89385L1.5075 2.88385L2.565 1.81885L15.8625 15.1238L14.805 16.1813L12.24 13.6163C11.235 14.0138 10.14 14.2313 9 14.2313C5.25 14.2313 2.0475 11.8988 0.75 8.60635C1.3275 7.12885 2.295 5.85385 3.5175 4.89385ZM9.00003 4.48135C11.8425 4.48135 14.3775 6.07885 15.615 8.60635C15.1725 9.52135 14.55 10.3088 13.8075 10.9463L14.865 12.0038C15.9075 11.0813 16.7325 9.92635 17.25 8.60635C15.9525 5.31385 12.75 2.98135 9.00003 2.98135C8.04753 2.98135 7.13253 3.13135 6.27003 3.40885L7.50753 4.64635C7.99503 4.54885 8.49003 4.48135 9.00003 4.48135ZM8.19746 5.33635L9.74996 6.88885C10.1775 7.07635 10.5225 7.42135 10.71 7.84885L12.2625 9.40135C12.3225 9.14635 12.3675 8.87635 12.3675 8.59885C12.375 6.73885 10.86 5.23135 8.99996 5.23135C8.72246 5.23135 8.45996 5.26885 8.19746 5.33635ZM7.1325 8.50885L9.09 10.4663L9.08999 10.4664C9.05999 10.4738 9.03 10.4813 9 10.4813C7.965 10.4813 7.125 9.64135 7.125 8.60635C7.125 8.5876 7.12687 8.5726 7.12875 8.5576L7.12875 8.55759C7.13063 8.54259 7.1325 8.52759 7.1325 8.50885ZM5.89496 7.27135L4.58246 5.95885C3.67496 6.64885 2.90996 7.53385 2.38496 8.60635C3.62246 11.1338 6.15746 12.7313 8.99996 12.7313C9.71246 12.7313 10.4025 12.6263 11.0625 12.4463L10.3275 11.7113C9.92246 11.8838 9.47246 11.9813 8.99996 11.9813C7.13996 11.9813 5.62496 10.4663 5.62496 8.60635C5.62496 8.13385 5.72246 7.68385 5.89496 7.27135Z"/>
    </symbol>
    <symbol id="invalid" viewBox="0 0 24 24">
        <path xmlns="http://www.w3.org/2000/svg" id="icon/action/accessible_forward_24px_2" fill-rule="evenodd" clip-rule="evenodd" d="M17.5 2.26999C16.3954 2.26999 15.5 3.16541 15.5 4.26999C15.5 5.37457 16.3954 6.26999 17.5 6.26999C18.6046 6.26999 19.5 5.37457 19.5 4.26999C19.5 3.16541 18.6046 2.26999 17.5 2.26999ZM14.5 16.73H12.5C12.5 18.38 11.15 19.73 9.5 19.73C7.84998 19.73 6.5 18.38 6.5 16.73C6.5 15.08 7.84998 13.73 9.5 13.73V11.73C6.73999 11.73 4.5 13.97 4.5 16.73C4.5 19.49 6.73999 21.73 9.5 21.73C12.26 21.73 14.5 19.49 14.5 16.73ZM15.64 13.23H17.5C18.6 13.23 19.5 14.13 19.5 15.23V20.73H17.5V15.73H12.52C11.0599 15.73 10.0699 14.16 10.6699 12.83L12.5 8.72998H10.2899L9.64001 10.26L7.71997 9.72998L8.39001 7.92999C8.71997 7.19998 9.44995 6.72998 10.26 6.72998H15.46C16.9399 6.72998 17.9199 8.22998 17.3099 9.55997L15.64 13.23Z"/>
    </symbol>

    <symbol id="logout" viewBox="0 0 24 24">
      <path xmlns="http://www.w3.org/2000/svg" id="icon/action/exit_to_app_24px_2" fill-rule="evenodd" clip-rule="evenodd" d="M5 3H19C20.1 3 21 3.9 21 5V19C21 20.1 20.1 21 19 21H5C3.89001 21 3 20.1 3 19V15H5V19H19V5H5V9H3V5C3 3.9 3.89001 3 5 3ZM11.5 17L10.09 15.59L12.67 13H3V11H12.67L10.09 8.41L11.5 7L16.5 12L11.5 17Z"/>
    </symbol>
    <symbol id="time" viewBox="0 0 24 24">
      <path xmlns="http://www.w3.org/2000/svg" id="icon/action/watch_later_24px_2" fill-rule="evenodd" clip-rule="evenodd" d="M12 2C6.5 2 2 6.5 2 12C2 17.5 6.5 22 12 22C17.5 22 22 17.5 22 12C22 6.5 17.5 2 12 2ZM12 20C7.58997 20 4 16.41 4 12C4 7.59003 7.58997 4 12 4C16.41 4 20 7.59003 20 12C20 16.41 16.41 20 12 20ZM11 7H12.5V12.2L17 14.9L16.2 16.2L11 13V7Z"/>
    </symbol>
    <symbol id="attach" viewBox="0 0 24 24">
      <path xmlns="http://www.w3.org/2000/svg" d="M19.0711 10.5858L10.9394 18.7175C9.37665 20.2802 6.8452 20.2802 5.2825 18.7175C3.71979 17.1548 3.71979 14.6234 5.2825 13.0607L14.1213 4.22185C15.0971 3.24604 16.6811 3.24604 17.6569 4.22185C18.6327 5.19766 18.6327 6.78158 17.6569 7.75738L10.2322 15.182C9.84334 15.5709 9.20694 15.5709 8.81803 15.182C8.42912 14.7931 8.42912 14.1567 8.81803 13.7678L15.5355 7.05028L14.4749 5.98962L7.75737 12.7071C6.78156 13.6829 6.78156 15.2669 7.75737 16.2427C8.73318 17.2185 10.3171 17.2185 11.2929 16.2427L18.7175 8.81804C20.2802 7.25534 20.2802 4.7239 18.7175 3.16119C17.1548 1.59848 14.6234 1.59848 13.0607 3.16119L4.22184 12C2.07223 14.1496 2.07223 17.6286 4.22184 19.7782C6.37144 21.9278 9.85041 21.9278 12 19.7782L20.1317 11.6465L19.0711 10.5858Z"/>
    </symbol>

    <symbol id="edit" viewBox="0 0 20 20">
      <path d="M18.4592 12.5635C18.1841 12.5635 17.9611 12.7865 17.9611 13.0616V17.4843C17.9601 18.3092 17.2918 18.9778 16.4668 18.9786H2.49052C1.66553 18.9778 0.99718 18.3092 0.996207 17.4843V4.50419C0.99718 3.6794 1.66553 3.01085 2.49052 3.00988H6.91313C7.18826 3.00988 7.41124 2.7869 7.41124 2.51178C7.41124 2.23685 7.18826 2.01367 6.91313 2.01367H2.49052C1.11567 2.01523 0.00155657 3.12935 0 4.50419V17.4845C0.00155657 18.8593 1.11567 19.9734 2.49052 19.975H16.4668C17.8416 19.9734 18.9558 18.8593 18.9573 17.4845V13.0616C18.9573 12.7865 18.7343 12.5635 18.4592 12.5635Z"/>
      <path d="M18.7601 0.733194C17.8847 -0.142184 16.4655 -0.142184 15.5901 0.733194L6.70365 9.61967C6.64275 9.68057 6.59877 9.75607 6.57581 9.83896L5.40721 14.0579C5.35916 14.2308 5.40799 14.4161 5.53485 14.5431C5.66191 14.67 5.84714 14.7188 6.02012 14.6709L10.239 13.5022C10.3219 13.4792 10.3974 13.4352 10.4583 13.3743L19.3446 4.48765C20.2186 3.61169 20.2186 2.19365 19.3446 1.31769L18.7601 0.733194ZM7.78897 9.94344L15.0619 2.67035L17.4074 5.01591L10.1343 12.289L7.78897 9.94344ZM7.32044 10.8836L9.19436 12.7577L6.60227 13.4759L7.32044 10.8836ZM18.6402 3.7833L18.112 4.31156L15.7662 1.96581L16.2947 1.43754C16.7809 0.951309 17.5693 0.951309 18.0555 1.43754L18.6402 2.02204C19.1257 2.50886 19.1257 3.29668 18.6402 3.7833Z"/>
    </symbol>

    <symbol id="export" viewBox="0 0 20 20">
      <path d="M12.5001 7.4H12.4001V7.5V8.39285V8.49285H12.5001H16.4002V19.0071H3.60001V8.49285H7.50007H7.60007V8.39285V7.5V7.4H7.50007H3.00001C2.67972 7.4 2.4 7.6344 2.4 7.94643V19.5535C2.4 19.8655 2.67972 20.1 3.00001 20.1H17.0002C17.3205 20.1 17.6002 19.8655 17.6002 19.5535V7.94643C17.6002 7.63444 17.3204 7.4 17.0002 7.4H12.5001Z"/>
      <path d="M6.5802 4.2557L6.58025 4.25565L9.57152 1.32968C9.80315 1.09373 10.1829 1.08947 10.4192 1.32098L13.4191 4.2559C13.4191 4.25591 13.4191 4.25591 13.4191 4.25592L13.4192 4.25597L13.3493 4.32745C13.5469 4.52042 13.5502 4.8368 13.3573 5.03445L6.5802 4.2557ZM6.5802 4.2557C6.34348 4.4876 6.33903 4.86715 6.57061 5.10435L6.57079 5.10453M6.5802 4.2557L6.57079 5.10453M6.57079 5.10453C6.80232 5.34047 7.18254 5.34503 7.4191 5.11332L6.57079 5.10453ZM12.5803 5.11328L12.6503 5.0418L7.41915 5.11327L9.39986 3.17584V13.6843C9.39986 14.0159 9.66866 14.2843 9.99987 14.2843C10.331 14.2843 10.5999 14.0163 10.5999 13.6843V3.17582L12.5802 5.11317L12.5803 5.11328Z"/>
    </symbol>

    <symbol id="like" viewBox="0 0 18 17">
      <path d="M6.26638 14.7724L6.26713 14.7731C6.86852 15.3079 7.54965 15.9138 8.25607 16.5585C8.46132 16.7461 8.72542 16.85 9 16.85C9.27444 16.85 9.53868 16.7461 9.7438 16.5588C10.4518 15.9126 11.134 15.3057 11.7365 14.77L11.7365 14.77L11.7425 14.7646C13.5006 13.2009 15.0281 11.8421 16.0928 10.5013C17.2876 8.9966 17.85 7.56132 17.85 5.98918C17.85 4.46687 17.35 3.0579 16.4368 2.02407L16.3619 2.09027L16.4368 2.02407C15.5122 0.977405 14.2419 0.4 12.8614 0.4C11.8275 0.4 10.8804 0.741718 10.049 1.41283C9.66388 1.72364 9.31292 2.09772 9.00002 2.52925C8.68719 2.09771 8.33613 1.72364 7.95118 1.41284L7.95117 1.41283C7.11977 0.741718 6.17267 0.4 5.13876 0.4C3.75811 0.4 2.48794 0.977406 1.56334 2.02407L1.56333 2.02407C0.650169 3.05789 0.15 4.46686 0.15 5.98918C0.15 7.56133 0.712549 8.9966 1.90737 10.5014L1.98569 10.4392L1.90737 10.5014C2.9723 11.8425 4.50051 13.2017 6.25946 14.7662L6.26331 14.7696L6.26405 14.7703L6.26638 14.7724ZM2.85321 9.69435L2.77489 9.75653L2.8532 9.69434C1.82593 8.40066 1.37499 7.26002 1.37499 5.98918C1.37499 4.77882 1.76489 3.67631 2.46678 2.88167C3.15763 2.0997 4.1059 1.66994 5.13876 1.66994C5.89261 1.66994 6.58482 1.91953 7.19843 2.41474C7.74714 2.85766 8.13126 3.41957 8.35736 3.81517L8.35737 3.8152C8.49247 4.05143 8.73262 4.19512 9 4.19512C9.26738 4.19512 9.50753 4.05143 9.64263 3.8152C9.86887 3.41957 10.253 2.85767 10.8016 2.41474C11.4152 1.91954 12.1074 1.66994 12.8614 1.66994C13.8941 1.66994 14.8425 2.0997 15.5332 2.88166C16.2351 3.67631 16.625 4.77882 16.625 5.98918C16.625 7.26003 16.1741 8.40067 15.1469 9.69435C14.151 10.9487 12.6675 12.2684 10.9387 13.8063C10.3529 14.3272 9.69112 14.9158 8.99866 15.5444C8.31017 14.9171 7.64951 14.3294 7.06495 13.8094L7.06411 13.8087L7.06174 13.8066C7.06159 13.8065 7.06145 13.8063 7.0613 13.8062C5.33254 12.2685 3.8491 10.9486 2.85321 9.69435Z"/>
    </symbol>

    <symbol id="geomap" viewBox="0 0 25 25">
      <path d="M16.7969 7.42188C16.7969 5.05259 14.8693 3.125 12.5 3.125C10.1307 3.125 8.20312 5.05259 8.20312 7.42188C8.20312 9.79116 10.1307 11.7188 12.5 11.7188C14.8693 11.7188 16.7969 9.79121 16.7969 7.42188ZM9.76563 7.42188C9.76563 5.91416 10.9923 4.6875 12.5 4.6875C14.0077 4.6875 15.2344 5.91416 15.2344 7.42188C15.2344 8.92959 14.0077 10.1562 12.5 10.1562C10.9923 10.1562 9.76563 8.92964 9.76563 7.42188Z"/>
      <path d="M24.962 23.9806L21.837 14.215C21.7546 13.9574 21.5447 13.7608 21.2823 13.6952L18.0985 12.8994C19.1378 11.178 19.921 9.26819 19.921 7.42186C19.921 3.32944 16.5916 0 12.4992 0C8.40674 0 5.0773 3.32944 5.0773 7.42186C5.0773 9.26819 5.86055 11.178 6.89986 12.8994L3.71598 13.6952C3.45358 13.7608 3.24376 13.9574 3.16134 14.215L0.0363461 23.9806C-0.0500795 24.2506 0.0165707 24.5462 0.210418 24.753C0.404265 24.9598 0.694938 25.0454 0.969889 24.9767L7.01695 23.4649L12.2845 24.9699C12.4248 25.01 12.5735 25.01 12.7138 24.9699L17.9813 23.4649L24.0284 24.9767C24.0912 24.9923 24.1548 25 24.2178 25C24.431 25 24.6383 24.9125 24.7879 24.753C24.9818 24.5461 25.0484 24.2506 24.962 23.9806ZM11.7179 18.7046V23.183L7.91568 22.0966L8.96797 15.7819C10.1302 17.1879 11.2252 18.2473 11.7179 18.7046ZM13.2804 18.7046C13.7731 18.2473 14.8681 17.1879 16.0304 15.7819L17.0826 22.0966L13.2804 23.183V18.7046ZM12.4992 1.5625C15.73 1.5625 18.3585 4.19101 18.3585 7.42186C18.3585 11.2895 14.0174 15.8226 12.4989 17.2897C10.9797 15.8235 6.6398 11.2953 6.6398 7.42186C6.6398 4.19101 9.26831 1.5625 12.4992 1.5625ZM4.51695 15.1056L7.62617 14.3284L6.34405 22.0225L1.95216 23.1205L4.51695 15.1056ZM18.6543 22.0225L17.3722 14.3284L20.4814 15.1056L23.0462 23.1205L18.6543 22.0225Z"/>
    </symbol>

    <symbol id="ski_lift" viewBox="0 0 25 25">
      <path d="M24.9885 0.604904C24.9183 0.206516 24.5383 -0.0593533 24.1401 0.010715L18.6633 0.976047C17.602 -0.611209 15.1596 -0.178885 14.7026 1.67414L10.0063 2.50188C8.94239 0.916623 6.50494 1.34699 6.04728 3.19968L0.605186 4.15886C0.206798 4.22907 -0.0592179 4.60896 0.0109969 5.0073C0.0810653 5.405 0.460216 5.67165 0.859434 5.60149L6.19347 4.66135C6.60646 5.53562 7.56695 6.06267 8.56212 5.88723C9.57867 5.70798 10.2832 4.86906 10.3688 3.92541L11.7673 3.67893V7.37268H10.5466C9.60431 7.37268 8.83766 8.13933 8.83766 9.08166V10.3024H6.64039C6.30377 10.3024 6.01051 10.5318 5.9295 10.8585L4.50709 16.5959C4.45113 16.7212 4.44322 16.8178 4.44322 16.9429C4.45729 19.9026 4.41236 19.8481 4.48004 20.0531L5.94488 24.4965C6.04386 24.7967 6.32433 24.9996 6.64044 24.9996H18.359C18.6752 24.9996 18.9557 24.7968 19.0546 24.4965C20.5853 19.8156 20.5563 20.0317 20.5563 19.8238V16.9429C20.5563 16.7995 19.0714 10.8644 19.0699 10.8585C18.9889 10.5318 18.6956 10.3024 18.359 10.3024H16.1617V9.08166C16.1617 8.13933 15.3951 7.37268 14.4527 7.37268H13.232V3.42072L14.849 3.13571C15.2613 4.00793 16.2207 4.53674 17.2174 4.36101C18.213 4.18547 18.9339 3.36125 19.0234 2.40002L24.3943 1.45339C24.7927 1.38313 25.0588 1.00329 24.9885 0.604904ZM7.21344 11.7672H11.7673V16.1617H6.12389L7.21344 11.7672ZM19.0915 19.0913H5.90802V17.6265H19.0915V19.0913H19.0915ZM17.8294 23.5347H7.17018L6.18824 20.5562H18.8113L17.8294 23.5347ZM18.8756 16.1617H13.2322V11.7672H17.7861L18.8756 16.1617ZM14.697 9.08161V10.3023H10.3025V9.08161C10.3025 8.94699 10.412 8.83747 10.5466 8.83747H14.4529C14.5875 8.83747 14.697 8.94699 14.697 9.08161ZM8.30773 4.44465C7.91002 4.51462 7.52936 4.24826 7.45924 3.85056C7.38912 3.45285 7.65563 3.07219 8.05333 3.00207C8.45191 2.932 8.8318 3.19914 8.90182 3.59616C8.97208 3.99475 8.70641 4.37434 8.30773 4.44465ZM16.9631 2.91843C16.5628 2.98874 16.1847 2.72146 16.1147 2.32434C16.0445 1.92663 16.311 1.54602 16.7088 1.47585C17.1104 1.40495 17.4875 1.67444 17.5572 2.06994C17.6276 2.46853 17.3618 2.84812 16.9631 2.91843Z" fill="#5B5A60"/>
    </symbol>
</svg>
