<svg version="1.1" xmlns="http://www.w3.org/2000/svg" xmlns:xlink="http://www.w3.org/1999/xlink">
  <symbol id="info" viewBox="0 0 24 24">
    <path xmlns="http://www.w3.org/2000/svg" fill-rule="evenodd" clip-rule="evenodd" d="M2.85002 12C2.85002 6.9466 6.94662 2.85001 12 2.85001C17.0534 2.85001 21.15 6.9466 21.15 12C21.15 17.0534 17.0534 21.15 12 21.15C6.94662 21.15 2.85002 17.0534 2.85002 12ZM12 1.15001C6.00773 1.15001 1.15002 6.00772 1.15002 12C1.15002 17.9923 6.00773 22.85 12 22.85C17.9923 22.85 22.85 17.9923 22.85 12C22.85 6.00772 17.9923 1.15001 12 1.15001ZM12.0312 9.125C11.4962 9.125 11.0625 9.55873 11.0625 10.0938V17.125C11.0625 17.66 11.4962 18.0938 12.0312 18.0938C12.5663 18.0938 13 17.66 13 17.125V10.0938C13 9.55873 12.5663 9.125 12.0312 9.125ZM13.2188 7.125C13.2188 7.7981 12.6731 8.34375 12 8.34375C11.3269 8.34375 10.7812 7.7981 10.7812 7.125C10.7812 6.4519 11.3269 5.90625 12 5.90625C12.6731 5.90625 13.2188 6.4519 13.2188 7.125Z" />
  </symbol>
  <symbol id="bar-chart" viewBox="0 0 24 24">
    <path xmlns="http://www.w3.org/2000/svg" fill-rule="evenodd" clip-rule="evenodd" d="M14.0357 2.59772C14.4747 2.59772 14.8323 2.94994 14.8393 3.38869L15.0949 19.7953H16.6607V9.45586C16.6607 9.012 17.0205 8.65228 17.4643 8.65228H21.5357C21.9795 8.65228 22.3393 9.01205 22.3393 9.45586V19.7953H23.1964C23.6403 19.7953 24 20.155 24 20.5989C24 21.0427 23.6403 21.4025 23.1964 21.4025H0.803578C0.359719 21.4025 0 21.0427 0 20.5989C0 20.155 0.359719 19.7953 0.803578 19.7953H1.66068V13.8743C1.66068 13.4304 2.0204 13.0707 2.46426 13.0707H6.53572C6.97954 13.0707 7.33925 13.4305 7.33925 13.8743V19.7953H9.1607V3.4013C9.1607 2.95744 9.52042 2.59772 9.96427 2.59772H14.0357ZM10.7679 19.7953H13.4873L13.2444 4.20483H10.7679V19.7953ZM5.7321 19.7953V14.6779H3.26784V19.7953H5.7321ZM20.7322 19.7953V10.2594H18.2679V19.7953H20.7322Z" />
  </symbol>
  <symbol id="calendar" viewBox="0 0 24 24">
    <path xmlns="http://www.w3.org/2000/svg" fill-rule="evenodd" clip-rule="evenodd" d="M7.05994 2C6.6607 2 6.33708 2.32362 6.33708 2.72286V3.92846H3.20475C2.54045 3.92846 2 4.4689 2 5.13321V20.7952C2 21.4596 2.54045 22 3.20475 22H20.3125C20.9768 22 21.5172 21.4596 21.5172 20.7952V5.13325C21.5172 4.46894 20.9768 3.92846 20.3125 3.92846H17.4209V2.72286C17.4209 2.32362 17.0973 2 16.698 2C16.2988 2 15.9752 2.32362 15.9752 2.72286V3.92846H7.7828V2.72286C7.7828 2.32362 7.45918 2 7.05994 2ZM15.9752 5.37418H7.7828V6.57813C7.7828 6.97737 7.45918 7.30099 7.05994 7.30099C6.6607 7.30099 6.33708 6.97737 6.33708 6.57813V5.37418H3.44572V8.74693H20.0715V5.37418H17.4209V6.57813C17.4209 6.97737 17.0973 7.30099 16.698 7.30099C16.2988 7.30099 15.9752 6.97737 15.9752 6.57813V5.37418ZM3.44572 20.5543H20.0715H20.0715V10.1926H3.44572V20.5543ZM14.5298 16.4565H9.22879C8.82955 16.4565 8.50593 16.7801 8.50593 17.1794C8.50593 17.5786 8.82955 17.9022 9.22879 17.9022H14.5298C14.929 17.9022 15.2526 17.5786 15.2526 17.1794C15.2526 16.7801 14.929 16.4565 14.5298 16.4565ZM9.22879 13.0846H14.5298C14.929 13.0846 15.2526 13.4082 15.2526 13.8075C15.2526 14.2068 14.929 14.5303 14.5298 14.5303H9.22879C8.82955 14.5303 8.50593 14.2067 8.50593 13.8075C8.50593 13.4082 8.82955 13.0846 9.22879 13.0846Z" />
  </symbol>
  <symbol id="home" viewBox="0 0 24 24">
    <path xmlns="http://www.w3.org/2000/svg" d="M23.7436 11.6284L12.6097 1.21115C12.3282 0.929605 11.8675 0.929605 11.5604 1.21115L0.247289 11.6284C-0.0598341 11.9099 -0.0854562 12.3962 0.196093 12.7034C0.349679 12.857 0.554411 12.9593 0.759192 12.9593C0.938351 12.9593 1.14313 12.8825 1.2711 12.7545L2.88358 11.27V21.5337C2.88358 21.9688 3.21632 22.3015 3.65141 22.3015H9.38474C9.81987 22.3015 10.1526 21.9688 10.1526 21.5337V16.6962H14.0174V21.5337C14.0174 21.9688 14.3502 22.3015 14.7853 22.3015H20.5442C20.9794 22.3015 21.3121 21.9688 21.3121 21.5337V11.4492L22.7198 12.7546C23.0269 13.0361 23.5133 13.0361 23.7948 12.729C24.0764 12.3963 24.0764 11.9099 23.7436 11.6284ZM19.7764 20.7658H15.5532V15.9283C15.5532 15.4932 15.2204 15.1605 14.7853 15.1605H9.38474C8.9496 15.1605 8.61691 15.4933 8.61691 15.9283V20.7658H4.41929V9.86232L12.0978 2.82368L19.7764 10.0159V20.7658H19.7764Z"/>
  </symbol>
  <symbol id="megaphone" viewBox="0 0 24 24">
    <path xmlns="http://www.w3.org/2000/svg" d="M20.9718 8.54154V2.4H16.5229V3.7537C15.1899 5.41447 13.4381 6.31315 12.1824 6.77714C10.7527 7.3065 9.62805 7.40812 9.60608 7.40995L8.96063 7.4625V7.47697H5.07092C3.90839 7.47697 2.92877 8.27476 2.65082 9.3516V9.35178H0V13.9558H2.65082V13.9562C2.90295 14.9339 3.73407 15.6816 4.75507 15.8105V22.3387H9.26202V15.8696L9.60699 15.8976C9.65021 15.9015 13.899 16.2816 16.5229 19.5544V20.9076H20.9718V14.766C22.6496 14.7206 24 13.3417 24 11.6536C24 9.96555 22.6496 8.58695 20.9718 8.54154V8.54154ZM1.40625 10.758H2.57153V12.5495H1.40625V10.758ZM3.97778 13.3312V9.97636C3.97778 9.37357 4.46814 8.88322 5.07092 8.88322H8.96063V14.4244H5.07092C4.46814 14.4244 3.97778 13.934 3.97778 13.3312V13.3312ZM6.16132 20.9325V15.8306H7.85577V20.9325H6.16132ZM10.3669 14.5838V8.72392C11.5847 8.51481 14.2804 7.84354 16.5229 5.80119V17.5064C14.2804 15.464 11.5847 14.7924 10.3669 14.5838V14.5838ZM19.5656 19.5013H17.9291V3.80625H19.5656V19.5013ZM20.9718 13.3585V9.94926C21.8738 9.9932 22.5938 10.7414 22.5938 11.6536C22.5938 12.5662 21.8738 13.3138 20.9718 13.3585Z" />
  </symbol>
  <symbol id="options" viewBox="0 0 24 24">
    <path xmlns="http://www.w3.org/2000/svg" fill-rule="evenodd" clip-rule="evenodd" d="M12 2.85C6.94662 2.85 2.85002 6.94659 2.85002 12C2.85002 17.0534 6.94662 21.15 12 21.15C17.0534 21.15 21.15 17.0534 21.15 12C21.15 6.94659 17.0534 2.85 12 2.85ZM1.15002 12C1.15002 6.00771 6.00773 1.15 12 1.15C17.9923 1.15 22.85 6.00771 22.85 12C22.85 17.9923 17.9923 22.85 12 22.85C6.00773 22.85 1.15002 17.9923 1.15002 12ZM15.0392 8.37462C15.3591 7.94578 15.9661 7.85747 16.3949 8.17738C16.8238 8.4973 16.9121 9.10429 16.5922 9.53313L12.0702 15.5948C11.9677 15.7322 11.8358 15.8346 11.6897 15.8999C11.336 16.0759 10.8953 16.0232 10.5918 15.7358L7.53197 12.8381C7.1435 12.4702 7.12681 11.8571 7.4947 11.4686C7.86259 11.0801 8.47574 11.0634 8.86421 11.4313L11.1465 13.5927L15.0392 8.37462Z" />
  </symbol>
  <symbol id="partners" viewBox="0 0 24 24">
    <path xmlns="http://www.w3.org/2000/svg" d="M23.9022 7.82438L19.8853 3.16386C19.7366 2.99149 19.4654 2.94897 19.2598 3.06573L16.6663 4.53889H13.2838C13.24 4.53889 13.1964 4.54723 13.1543 4.55819L10.5317 5.23246L7.81039 4.56767L5.16616 3.06573C4.96401 2.95093 4.69778 2.98985 4.54745 3.15633L0.104397 8.07165C-0.0552707 8.24827 -0.0289035 8.50617 0.163723 8.65418L2.49246 10.4441L4.58169 12.9587C3.97067 13.5401 3.98257 14.457 4.61831 15.025C4.90011 15.2765 5.25845 15.4186 5.62704 15.4517C5.61422 15.5262 5.60763 15.602 5.60763 15.6788C5.60763 16.0756 5.78066 16.4486 6.09469 16.7291C6.4089 17.0097 6.82656 17.1642 7.27077 17.1642C7.27682 17.1642 7.28268 17.1639 7.28854 17.1637C7.28835 17.1739 7.2878 17.1839 7.2878 17.194C7.2878 17.5907 7.46084 17.9638 7.77486 18.2444C8.08907 18.5249 8.50674 18.6794 8.95095 18.6794C9.03866 18.6794 9.12545 18.673 9.21059 18.6613C9.24666 18.9916 9.40615 19.3131 9.68886 19.5656C10.013 19.8553 10.4389 20 10.8648 20C11.2907 20 11.7166 19.8553 12.0409 19.5656L12.2952 19.3385L12.4019 19.4153C12.7235 19.6935 13.1409 19.8325 13.5584 19.8325C13.9843 19.8325 14.4102 19.6878 14.7343 19.3982C15.0652 19.1027 15.2273 18.7126 15.2205 18.3245C15.6548 18.3304 16.0917 18.1859 16.4226 17.8905C16.7531 17.5952 16.9151 17.2055 16.9087 16.8175C17.3612 16.8239 17.7904 16.6687 18.1106 16.3827C18.4415 16.0872 18.6035 15.6971 18.5968 15.3091C19.0314 15.3149 19.468 15.1704 19.7988 14.8749C20.3635 14.3705 20.4362 13.5909 20.0175 13.0154L21.5429 10.162L23.8363 8.39938C24.0258 8.25367 24.0548 8.00117 23.9022 7.82438ZM5.01565 3.97648L6.91702 5.05633L2.78085 9.55691L1.12338 8.28278L5.01565 3.97648ZM5.2839 13.5186L5.85775 13.0061C5.87515 12.9906 5.89346 12.9758 5.91213 12.9621C6.02438 12.8803 6.16024 12.8316 6.30416 12.82C6.30819 12.8197 6.3124 12.8197 6.31643 12.8195C6.33694 12.818 6.35745 12.8171 6.37814 12.8172C6.57479 12.8197 6.75753 12.8915 6.89303 13.0192C7.1589 13.2702 7.14462 13.6804 6.86117 13.9335L6.30471 14.4305C6.02328 14.6819 5.56533 14.6819 5.2839 14.4305C5.00247 14.179 5.00247 13.77 5.2839 13.5186ZM6.76028 16.1346C6.62386 16.0129 6.54879 15.851 6.54879 15.6788C6.54879 15.5066 6.62386 15.3447 6.76028 15.2229L7.87301 14.229C8.08614 14.0387 8.42123 13.9865 8.69369 14.1025C8.97457 14.222 9.13259 14.4943 9.09139 14.7682C9.06942 14.9144 8.99325 15.0521 8.87643 15.1566L7.78127 16.1346C7.64486 16.2564 7.46358 16.3235 7.27077 16.3235C7.07796 16.3235 6.89669 16.2564 6.76028 16.1346ZM8.44045 17.6498C8.30404 17.5281 8.22896 17.3662 8.22896 17.194C8.22896 17.0218 8.30404 16.8599 8.44045 16.7381L9.553 15.7442C9.78097 15.5408 10.1466 15.497 10.4257 15.642C10.6806 15.7745 10.814 16.0345 10.7703 16.2936C10.7463 16.436 10.6705 16.5699 10.5564 16.6718L9.46145 17.6498C9.32503 17.7716 9.14376 17.8387 8.95095 17.8387C8.75814 17.8387 8.57687 17.7716 8.44045 17.6498ZM10.3543 18.9712C10.0728 18.7198 10.0728 18.3108 10.3543 18.0595L10.9281 17.5469C10.9455 17.5314 10.9636 17.5168 10.9823 17.5031L10.9836 17.5021C11.077 17.4344 11.1867 17.3891 11.3037 17.3693C11.3064 17.369 11.3092 17.3687 11.3119 17.3683C11.3321 17.3651 11.3526 17.3624 11.3731 17.3608C11.3813 17.3602 11.3895 17.3602 11.398 17.3597C11.4148 17.3589 11.4315 17.3579 11.4485 17.358C11.645 17.3605 11.8279 17.4321 11.9634 17.56C11.9801 17.5757 11.9956 17.5921 12.0099 17.6089C12.2263 17.8616 12.1972 18.2369 11.9286 18.477L11.3751 18.9713C11.0936 19.2227 10.6357 19.2225 10.3543 18.9712ZM19.1333 14.2804C18.8518 14.5319 18.3939 14.5318 18.1124 14.2804C18.1022 14.2712 18.0914 14.2627 18.0804 14.2547L15.0544 11.5236C14.8715 11.3586 14.5736 11.3573 14.3888 11.5207C14.2041 11.6839 14.2026 11.95 14.3853 12.115L17.4441 14.8754L17.4452 14.8763C17.7266 15.1277 17.7266 15.5369 17.4452 15.7882C17.3088 15.9101 17.1275 15.9771 16.9347 15.9771C16.7417 15.9771 16.5604 15.9101 16.4242 15.7882L14.378 13.9417C14.1953 13.7767 13.8974 13.7754 13.7126 13.9386C13.5279 14.102 13.5264 14.3681 13.7091 14.5331L15.724 16.3513C15.7343 16.3627 15.7453 16.3737 15.757 16.3842C16.0384 16.6355 16.0384 17.0447 15.757 17.2961C15.4754 17.5474 15.0172 17.5472 14.7358 17.2959L13.619 16.288C13.4361 16.123 13.1382 16.1215 12.9534 16.2849C12.7687 16.4481 12.7672 16.7142 12.95 16.8792L14.0356 17.8588C14.0459 17.8702 14.0568 17.8814 14.0687 17.8918C14.3502 18.1432 14.3502 18.5524 14.0687 18.8037C13.7873 19.0552 13.3294 19.0551 13.0479 18.8037C13.0155 18.7748 12.9774 18.7525 12.9412 18.7277C12.9104 18.7067 12.9024 18.6922 12.9177 18.6588C12.9333 18.625 12.9566 18.5944 12.9721 18.5604C12.9893 18.5224 13.0033 18.4833 13.0168 18.4441C13.0889 18.2364 13.1102 18.013 13.0778 17.7975C13.0155 17.3839 12.7608 17.0107 12.3748 16.7745C12.1663 16.6471 11.9249 16.5636 11.6748 16.5322C11.796 16.0546 11.6505 15.5369 11.2718 15.1795C10.9602 14.8855 10.5392 14.7205 10.0864 14.7149C10.0699 14.7148 10.0534 14.7148 10.0368 14.7149C10.0468 14.329 9.88973 13.9455 9.59182 13.6643C9.27999 13.3703 8.85903 13.2053 8.40639 13.1997C8.27181 13.1981 8.13595 13.2109 8.00484 13.2378C7.94881 12.8897 7.75234 12.5675 7.4548 12.3371C7.15908 12.1084 6.78719 11.9815 6.39114 11.9766C5.97421 11.9712 5.5646 12.1086 5.25497 12.3583L3.43582 10.169L7.78786 5.43361L9.17489 5.77246L7.36343 8.62736C7.14443 8.97259 7.08913 9.37326 7.2076 9.75561C7.32607 10.1381 7.60403 10.4564 7.99056 10.652C8.01473 10.6642 8.03909 10.6758 8.0638 10.687C8.06564 10.6878 8.06747 10.6886 8.06948 10.6894C8.13448 10.7184 8.20132 10.7432 8.26906 10.7642C8.58456 10.8618 8.92531 10.8724 9.25399 10.7913C9.68209 10.6855 10.0384 10.4371 10.2574 10.092L11.4346 8.23666L13.5365 8.36978L19.1334 13.3685C19.4147 13.62 19.4147 14.029 19.1333 14.2804ZM19.3283 12.3537L14.0777 7.66444C14.0678 7.65545 14.0574 7.64694 14.0466 7.63893C13.971 7.58267 13.8772 7.54866 13.7783 7.54244L11.2048 7.37939C11.0268 7.36844 10.8499 7.45299 10.762 7.5915L9.43856 9.6776C9.34353 9.8274 9.1888 9.93518 9.00295 9.98113C8.81728 10.0271 8.62246 10.0055 8.45455 9.92062C8.28683 9.83574 8.16616 9.69755 8.11471 9.53156C8.06326 9.36557 8.08724 9.19157 8.18246 9.04176L9.94924 6.25686L10.6652 6.07288C10.6699 6.07157 10.6745 6.06994 10.6793 6.06863L13.3513 5.37948H16.5799L20.6104 9.95562L19.3283 12.3537ZM21.2269 9.2959L17.4996 5.06172L19.4019 3.98122L22.8847 8.02177L21.2269 9.2959Z" />
  </symbol>
  <symbol id="price" viewBox="0 0 24 24">
    <path xmlns="http://www.w3.org/2000/svg" fill-rule="evenodd" clip-rule="evenodd" d="M21.4075 5.44953L23.8594 8.71874C23.9506 8.84043 24 8.9885 24 9.14061V21.4219C24 22.8434 22.8434 24 21.4219 24H11.1094C9.68779 24 8.53124 22.8434 8.53124 21.4219V21.1368C8.35841 21.0319 8.1951 20.9054 8.04594 20.7562L0.753926 13.4642C-0.251309 12.459 -0.251309 10.8233 0.753926 9.81814L9.3718 1.20027C9.47938 1.09269 9.61893 1.02289 9.76954 1.00138L16.7301 0.00701952C16.9492 -0.0240117 17.1703 0.0493945 17.3268 0.20591L18.8183 1.69747L20.3098 0.20591C20.5844 -0.0686367 21.0297 -0.0686367 21.3042 0.20591C21.5788 0.480504 21.5788 0.925723 21.3042 1.20027L19.8127 2.69183L21.3043 4.18339C21.4608 4.33986 21.5344 4.56093 21.5031 4.78002L21.4075 5.44953ZM1.74829 10.8125C1.29135 11.2694 1.29135 12.0129 1.74829 12.4698L9.0403 19.7619C9.26164 19.9832 9.55593 20.1051 9.86896 20.1051C10.182 20.1051 10.4763 19.9832 10.6976 19.7619L19.1497 11.3098L20.0612 4.92922L18.8182 3.68624L17.8239 4.6806L18.3211 5.1778C18.5957 5.45239 18.5957 5.89761 18.3211 6.17216C18.1838 6.30946 18.0038 6.37813 17.8239 6.37813C17.644 6.37813 17.4641 6.30946 17.3268 6.17216L15.338 4.18339C15.0634 3.9088 15.0634 3.46358 15.338 3.18903C15.6126 2.91449 16.0578 2.91449 16.3324 3.18903L16.8296 3.68624L17.8239 2.69188L16.5809 1.44889L10.2004 2.36038L1.74829 10.8125ZM21.4219 22.5937C22.068 22.5937 22.5937 22.068 22.5937 21.4219V9.37499L21.1262 7.41828L20.5087 11.7406C20.4872 11.8912 20.4174 12.0308 20.3098 12.1384L11.6919 20.7562C11.2077 21.2405 10.577 21.4908 9.941 21.5084C9.98549 22.1143 10.4923 22.5937 11.1094 22.5937H21.4219ZM12.856 6.22846L9.54148 16.1722C9.44323 16.4669 9.16887 16.6532 8.8745 16.6532C8.80081 16.6532 8.72581 16.6415 8.65207 16.6169C8.28368 16.4941 8.08461 16.0959 8.20737 15.7275L11.5219 5.78376C11.6447 5.41537 12.043 5.21629 12.4113 5.33905C12.7797 5.46187 12.9788 5.86007 12.856 6.22846ZM16.6185 10.978C16.6185 12.1411 15.6723 13.0874 14.5092 13.0874C13.3461 13.0874 12.3998 12.1411 12.3998 10.978C12.3998 9.81492 13.3461 8.86865 14.5092 8.86865C15.6723 8.86865 16.6185 9.81492 16.6185 10.978ZM15.2123 10.978C15.2123 10.5903 14.8969 10.2749 14.5092 10.2749C14.1215 10.2749 13.806 10.5903 13.806 10.978C13.806 11.3657 14.1215 11.6812 14.5092 11.6812C14.8969 11.6812 15.2123 11.3657 15.2123 10.978ZM6.5541 8.86865C5.391 8.86865 4.44473 9.81492 4.44473 10.978C4.44473 12.1411 5.391 13.0874 6.5541 13.0874C7.71721 13.0874 8.66347 12.1411 8.66347 10.978C8.66347 9.81492 7.71726 8.86865 6.5541 8.86865ZM6.5541 11.6812C6.1664 11.6812 5.85098 11.3657 5.85098 10.978C5.85098 10.5903 6.1664 10.2749 6.5541 10.2749C6.9418 10.2749 7.25723 10.5903 7.25723 10.978C7.25723 11.3657 6.94185 11.6812 6.5541 11.6812Z" />
  </symbol>
  <symbol id="services" viewBox="0 0 24 24">
    <path xmlns="http://www.w3.org/2000/svg" fill-rule="evenodd" clip-rule="evenodd" d="M12.6646 0.373926C12.397 0.0948227 11.9539 0.0854231 11.6748 0.352931L8.74193 3.16398C8.46282 3.43149 8.45343 3.87461 8.72093 4.15371C8.98844 4.43281 9.43156 4.44221 9.71066 4.17471L11.3356 2.6173L11.3356 8.55927C11.3356 8.94587 11.649 9.25927 12.0356 9.25927C12.4222 9.25927 12.7356 8.94587 12.7356 8.55927L12.7356 2.54427C12.7356 2.51811 12.7341 2.49229 12.7313 2.46687L14.4065 4.21461C14.674 4.49372 15.1171 4.50312 15.3962 4.23561C15.6753 3.9681 15.6847 3.52499 15.4172 3.24588L12.6646 0.373926ZM12.1424 1.85236L12.1382 1.84802L12.1348 1.85125L12.1424 1.85236ZM2.30717 6.9298L2.88442 4.75787L5.96079 10.159C6.15213 10.4949 6.57957 10.6121 6.91549 10.4208C7.25142 10.2294 7.36864 9.80198 7.1773 9.46605L4.05352 3.98174C4.03713 3.95298 4.01902 3.92582 3.99939 3.90032L6.33896 4.52213C6.71259 4.62143 7.09598 4.39904 7.19528 4.02541C7.29458 3.65178 7.07219 3.2684 6.69857 3.1691L2.85395 2.14729C2.48032 2.04799 2.09693 2.27037 1.99763 2.644L0.95414 6.5702C0.854838 6.94383 1.07722 7.32721 1.45085 7.42651C1.82448 7.52582 2.20787 7.30343 2.30717 6.9298ZM3.17671 3.68167L3.16965 3.68466L3.17086 3.68012L3.17671 3.68167ZM21.4363 5.25204C21.4589 5.2227 21.4788 5.19214 21.4961 5.16065L21.8656 7.55313C21.9246 7.9352 22.2822 8.19708 22.6643 8.13807C23.0463 8.07905 23.3082 7.72148 23.2492 7.33941L22.6419 3.40795C22.5829 3.02588 22.2254 2.76399 21.8433 2.82301L17.8284 3.44317C17.4463 3.50218 17.1844 3.85975 17.2435 4.24182C17.3025 4.62389 17.66 4.88577 18.0421 4.82676L20.2607 4.48407L16.3895 9.51037C16.1536 9.81665 16.2106 10.2562 16.5169 10.4921C16.8232 10.728 17.2627 10.6709 17.4986 10.3646L21.4363 5.25204ZM21.3652 4.31346L21.3661 4.31952L21.3605 4.31419L21.3652 4.31346ZM23.5397 12.1545C23.7443 12.2997 23.8861 12.5305 23.8861 12.7863C23.8861 12.9036 23.8557 13.0208 23.8173 13.1136C23.7973 13.1618 23.7714 13.2125 23.7387 13.2599C23.7128 13.2975 23.6709 13.3501 23.6094 13.3936L13.721 21.3763L13.6963 21.3912C13.6657 21.4096 13.6235 21.4351 13.5836 21.4558C13.5622 21.4668 13.5342 21.4804 13.5029 21.4919C13.477 21.5014 13.4208 21.5204 13.3511 21.5204H6.77469C6.50841 21.5204 6.2166 21.3567 6.13453 21.024L4.28871 15.7994C4.25343 15.7096 4.24099 15.6152 4.24099 15.5335C4.24099 15.4548 4.25251 15.3645 4.28481 15.2777C4.34258 15.0894 4.70403 14.1074 5.98901 13.2146C7.3298 12.283 9.63739 11.4752 13.5658 11.721C13.9342 11.7261 14.356 11.9618 14.6661 12.336L14.6759 12.3478L14.6846 12.3604C14.9201 12.7015 14.9489 13.1707 14.9489 13.4581V13.4734L14.9476 13.4885C14.9077 13.9463 14.7339 14.349 14.4137 14.6422C14.0969 14.9322 13.6693 15.0853 13.173 15.1097C12.8488 15.1387 12.2509 15.1279 11.7556 15.1189L11.7321 15.1185C11.6429 15.1169 11.5568 15.1154 11.4752 15.114V15.4887H14.2752L14.2945 15.4735L14.2954 15.4728L14.2955 15.4727C14.7954 15.0782 16.0005 14.1273 17.244 13.2449C17.8658 12.8037 18.5022 12.376 19.0678 12.0426C19.6192 11.7176 20.1479 11.4546 20.5397 11.3837L20.5452 11.3827C21.5977 11.2095 22.678 11.5539 23.5397 12.1545ZM21.8342 12.9751C21.5224 12.8839 21.1763 12.8409 20.8153 12.9239L20.8018 12.927C20.6012 12.9648 20.2212 13.1425 19.7018 13.4504C19.199 13.7485 18.6097 14.1409 18.0082 14.5633C16.8057 15.4077 15.5725 16.3594 14.9195 16.8847L14.9011 16.8995L14.876 16.9146C14.8456 16.9331 14.7963 16.9628 14.7432 16.9868C14.6861 17.0127 14.6007 17.0434 14.4978 17.0434H10.7205C10.5177 17.0434 10.3336 16.9582 10.2065 16.8048C10.0842 16.6572 10.0333 16.4705 10.0333 16.2864V14.3535C10.0333 14.1465 10.0977 13.9868 10.215 13.8453C10.3455 13.6878 10.5436 13.5965 10.7205 13.5965H13.0476C13.2477 13.5965 13.3371 13.5939 13.4075 13.5743C13.4426 13.5646 13.4816 13.5483 13.5354 13.4982L13.5394 13.4842L13.5402 13.4812C13.5574 13.4208 13.567 13.3829 13.5687 13.3473C13.5702 13.318 13.5652 13.3049 13.559 13.2948C13.5375 13.2598 13.5223 13.2431 13.5153 13.2364C13.4995 13.2348 13.4836 13.2348 13.4678 13.2349C13.4551 13.2349 13.4423 13.235 13.4296 13.2341C10.341 13.0337 8.43593 13.5528 7.27942 14.1626C6.2943 14.6821 5.83348 15.2773 5.64175 15.5869L7.25557 20.0064H13.1263L21.8342 12.9751ZM0.399565 16.2595C0.0872636 16.3703 -0.076097 16.7133 0.0346895 17.0256L2.15216 22.9947C2.26295 23.307 2.60593 23.4704 2.91823 23.3596L5.30247 22.5138C5.61478 22.403 5.77814 22.06 5.66735 21.7477L3.54988 15.7786C3.43909 15.4663 3.09611 15.3029 2.78381 15.4137L0.399565 16.2595ZM2.50554 16.9425L1.56746 17.2752L3.18539 21.8362L4.12347 21.5034L2.50554 16.9425Z" />
  </symbol>
  <symbol id="team" viewBox="0 0 24 24">
    <path d="M21.9999 15.9479C21.9999 14.8275 21.6495 13.7457 20.9864 12.8194C20.5094 12.1531 19.8952 11.5998 19.1834 11.1886C20.0214 10.4289 20.5458 9.35509 20.5458 8.16558C20.5458 5.8687 18.5938 4 16.1946 4C14.7719 4 13.4392 4.67358 12.6297 5.77931C12.424 5.75063 12.2139 5.73515 12 5.73515C11.7861 5.73515 11.576 5.75068 11.3703 5.77931C10.5607 4.67358 9.22803 4 7.80542 4C5.40617 4 3.45419 5.8687 3.45419 8.16558C3.45419 9.35509 3.97851 10.4289 4.81656 11.1886C4.10474 11.5998 3.49054 12.1531 3.01363 12.8193C2.35051 13.7457 2 14.8275 2 15.9479V18.2649H6.19461V20H17.8054V18.2649H22V15.9479H21.9999ZM16.1946 5.02811C18.0017 5.02811 19.4719 6.43557 19.4719 8.16563C19.4719 9.8957 18.0017 11.3032 16.1946 11.3032C16.1622 11.3032 16.1298 11.3027 16.0974 11.3018C16.0999 11.2952 16.1019 11.2885 16.1043 11.2819C16.1603 11.13 16.2069 10.9741 16.2444 10.8148C16.247 10.8035 16.25 10.7923 16.2525 10.7809C16.2622 10.7379 16.2708 10.6945 16.2791 10.6511C16.283 10.6305 16.287 10.61 16.2906 10.5894C16.2974 10.5506 16.3035 10.5116 16.3092 10.4725C16.3131 10.4453 16.3166 10.4181 16.32 10.3909C16.3243 10.3563 16.3284 10.3217 16.3318 10.2869C16.3352 10.2514 16.3378 10.2158 16.3403 10.1802C16.3422 10.1521 16.3446 10.1242 16.3459 10.096C16.3489 10.0355 16.3506 9.97486 16.3508 9.9142C16.3508 9.90973 16.3512 9.90536 16.3512 9.90084C16.3512 9.89842 16.3509 9.89601 16.3509 9.89359C16.3508 9.83165 16.349 9.77007 16.3461 9.70869C16.3452 9.69086 16.3441 9.67307 16.343 9.65529C16.3398 9.60311 16.3357 9.5512 16.3306 9.49954C16.3294 9.48782 16.3284 9.4761 16.3272 9.46443C16.1649 7.963 15.1741 6.67788 13.7448 6.08346C14.3607 5.42103 15.2516 5.02811 16.1946 5.02811ZM10.866 6.95684C10.8765 6.95319 10.8871 6.94975 10.8975 6.94615C10.9301 6.935 10.963 6.92441 10.996 6.91418C11.021 6.90652 11.0462 6.89912 11.0716 6.89203C11.09 6.88683 11.1084 6.88185 11.127 6.87691C11.16 6.86823 11.1933 6.85974 11.2268 6.85198C11.4749 6.79431 11.7336 6.763 11.9999 6.763C12.2663 6.76321 12.5252 6.79457 12.7733 6.85224C12.8066 6.85995 12.8396 6.86838 12.8726 6.87702C12.8913 6.882 12.9101 6.88704 12.9288 6.89233C12.9538 6.89938 12.9787 6.90667 13.0035 6.91423C13.0369 6.92456 13.0701 6.93525 13.1031 6.94656C13.1133 6.95001 13.1234 6.9533 13.1335 6.95684C14.2296 7.34488 15.0513 8.27872 15.2373 9.412C15.2388 9.42104 15.2402 9.43014 15.2416 9.43924C15.2475 9.47764 15.2525 9.51634 15.257 9.55515C15.2586 9.56944 15.2603 9.58368 15.2618 9.59802C15.2653 9.63344 15.2679 9.66911 15.2703 9.70489C15.2713 9.72021 15.2726 9.73547 15.2734 9.75084C15.2756 9.79654 15.2768 9.8425 15.277 9.88871C15.277 9.89272 15.2773 9.89662 15.2773 9.90063C15.2773 9.90248 15.2772 9.90438 15.2772 9.90623C15.2771 9.95096 15.2757 9.99537 15.2736 10.0396C15.273 10.0536 15.2723 10.0675 15.2715 10.0814C15.269 10.1241 15.2656 10.1667 15.2613 10.2089C15.2597 10.2253 15.2574 10.2416 15.2555 10.2579C15.2522 10.2852 15.2486 10.3125 15.2446 10.3397C15.2415 10.3608 15.2383 10.382 15.2348 10.403C15.2294 10.435 15.2234 10.4668 15.2169 10.4985C15.2112 10.5268 15.2049 10.5549 15.1983 10.583C15.1944 10.5999 15.1903 10.6168 15.1861 10.6336C15.1756 10.6753 15.1641 10.7167 15.1519 10.758C15.147 10.7744 15.1425 10.7909 15.1373 10.8071C15.1298 10.8308 15.1218 10.8542 15.1138 10.8776C15.1073 10.8964 15.1007 10.9151 15.0939 10.9337C15.0862 10.9548 15.0786 10.976 15.0704 10.997C15.0565 11.0326 15.0419 11.0679 15.0267 11.1029C15.0199 11.1185 15.0127 11.134 15.0057 11.1496C14.9924 11.1787 14.9788 11.2077 14.9646 11.2364C14.963 11.2398 14.9613 11.2432 14.9596 11.2466C14.9545 11.2567 14.9495 11.267 14.9443 11.2771C14.9284 11.3082 14.9118 11.3389 14.8949 11.3693C14.8883 11.3811 14.8819 11.3931 14.8751 11.4049C14.8747 11.4057 14.8743 11.4064 14.8738 11.4071C14.8552 11.4395 14.8359 11.4713 14.8162 11.503C14.8083 11.5156 14.8006 11.5281 14.7926 11.5405C14.7711 11.5739 14.749 11.6069 14.7263 11.6394C14.7122 11.6596 14.6974 11.6794 14.6828 11.6993C14.6704 11.7161 14.6581 11.733 14.6454 11.7496C14.6289 11.7711 14.6121 11.7924 14.595 11.8135C14.5834 11.8278 14.5717 11.8421 14.5599 11.8563C14.5418 11.8778 14.5236 11.8993 14.5051 11.9205C14.4935 11.9336 14.4816 11.9464 14.4699 11.9593C14.4506 11.9805 14.4313 12.0018 14.4114 12.0225C14.3996 12.0348 14.3874 12.0466 14.3753 12.0588C14.343 12.0914 14.3099 12.1233 14.2762 12.1546C14.2562 12.1732 14.2363 12.1918 14.2158 12.2099C14.2016 12.2223 14.187 12.2345 14.1726 12.2468C14.1491 12.2668 14.1254 12.2865 14.1013 12.3059C14.089 12.3157 14.0767 12.3254 14.0643 12.3351C14.0351 12.3578 14.0056 12.38 13.9756 12.4018C13.9674 12.4078 13.9594 12.4138 13.9511 12.4196C13.4056 12.8079 12.7304 13.038 11.9999 13.038C11.2694 13.038 10.5941 12.8078 10.0485 12.4195C10.0405 12.4137 10.0326 12.4078 10.0246 12.402C9.99446 12.3801 9.96477 12.3577 9.9355 12.3349C9.92321 12.3253 9.91091 12.3157 9.89878 12.3059C9.87456 12.2865 9.85083 12.2666 9.8272 12.2466C9.81287 12.2343 9.79837 12.2223 9.78425 12.2099C9.76368 12.1918 9.74371 12.1731 9.72363 12.1545C9.68975 12.1231 9.65662 12.0911 9.62419 12.0584C9.61232 12.0464 9.60019 12.0347 9.58853 12.0226C9.56861 12.0018 9.54934 11.9805 9.53001 11.9593C9.51825 11.9464 9.50644 11.9336 9.49489 11.9205C9.47626 11.8993 9.45811 11.8778 9.44007 11.8563C9.42826 11.8421 9.4165 11.8279 9.4049 11.8135C9.38788 11.7924 9.37108 11.7712 9.35459 11.7497C9.34187 11.733 9.32946 11.7161 9.31706 11.6992C9.30245 11.6793 9.28774 11.6596 9.27367 11.6394C9.25085 11.6068 9.22868 11.5737 9.20715 11.5402C9.19926 11.5279 9.19163 11.5156 9.1839 11.5032C9.16387 11.471 9.14427 11.4388 9.12543 11.4059C9.1185 11.3938 9.11195 11.3815 9.10513 11.3694C9.08816 11.3389 9.07157 11.3081 9.05562 11.277C9.04993 11.2659 9.0444 11.2548 9.03887 11.2437C9.03801 11.242 9.03721 11.2403 9.0364 11.2386C9.02153 11.2086 9.0073 11.1782 8.99339 11.1477C8.98679 11.1331 8.98008 11.1186 8.97374 11.104C8.95817 11.0682 8.9433 11.0322 8.92907 10.9958C8.92139 10.9761 8.9143 10.9563 8.90705 10.9365C8.89959 10.9162 8.89239 10.8957 8.88536 10.8752C8.87779 10.853 8.87017 10.8308 8.86308 10.8085C8.8525 10.7751 8.84251 10.7416 8.83312 10.7078C8.82651 10.6841 8.82055 10.6602 8.81449 10.6364C8.80976 10.6176 8.8052 10.5988 8.80085 10.58C8.79548 10.5568 8.79006 10.5338 8.78522 10.5105C8.77776 10.4743 8.77094 10.4379 8.76482 10.4013C8.76149 10.3816 8.75859 10.3618 8.75564 10.3421C8.75129 10.3128 8.74737 10.2834 8.74388 10.2539C8.74216 10.2394 8.74017 10.2248 8.73862 10.2103C8.73416 10.1669 8.73078 10.1233 8.7282 10.0795C8.72745 10.0669 8.72686 10.0543 8.72627 10.0417C8.72407 9.9949 8.72251 9.94792 8.72251 9.90063C8.72251 9.84995 8.72401 9.79963 8.72654 9.74951C8.72723 9.73589 8.72841 9.72237 8.72922 9.7088C8.73158 9.67117 8.73443 9.63365 8.73819 9.59633C8.73948 9.58332 8.74103 9.57037 8.74248 9.55742C8.7471 9.51701 8.75231 9.47682 8.75854 9.43688C8.75972 9.42911 8.7609 9.4213 8.76219 9.41354C8.94759 8.27959 9.76954 7.34514 10.866 6.95684ZM4.52806 8.16563C4.52806 6.43562 5.99825 5.02811 7.80542 5.02811C8.74844 5.02811 9.63928 5.42108 10.2552 6.08336C8.82539 6.67798 7.83436 7.96372 7.67258 9.46576C7.67145 9.47594 7.67065 9.48617 7.66963 9.4964C7.66426 9.54991 7.66002 9.60363 7.6568 9.65765C7.65583 9.6741 7.65475 9.6905 7.65395 9.707C7.65089 9.7713 7.64879 9.83581 7.64879 9.90079C7.64879 9.96638 7.65078 10.0318 7.654 10.0972C7.65529 10.1235 7.65755 10.1496 7.65932 10.1757C7.66195 10.2134 7.66463 10.251 7.66829 10.2885C7.67151 10.3219 7.67548 10.355 7.67956 10.3882C7.68311 10.4171 7.68686 10.4459 7.69105 10.4746C7.69653 10.5124 7.70243 10.5501 7.70893 10.5875C7.71285 10.6098 7.71715 10.632 7.72139 10.6542C7.72944 10.6961 7.73766 10.738 7.747 10.7795C7.75011 10.7931 7.75366 10.8067 7.75688 10.8203C7.79334 10.9747 7.8386 11.1258 7.89251 11.2732C7.89595 11.2827 7.89895 11.2923 7.90244 11.3018C7.87007 11.3027 7.83764 11.3032 7.80531 11.3032C5.99825 11.3031 4.52806 9.89565 4.52806 8.16563ZM7.09489 14.7195C7.08308 14.7374 7.0718 14.7555 7.0602 14.7735C7.03567 14.8114 7.01134 14.8494 6.98782 14.8878C6.97467 14.9093 6.962 14.9309 6.94922 14.9524C6.92806 14.9881 6.90718 15.0238 6.88688 15.0598C6.8741 15.0825 6.86154 15.1053 6.84908 15.128C6.82954 15.1639 6.81047 15.1999 6.79179 15.236C6.78003 15.2588 6.76833 15.2814 6.75694 15.3042C6.73793 15.3423 6.71962 15.3807 6.70153 15.4192C6.6917 15.4401 6.68161 15.4609 6.67211 15.4819C6.65117 15.528 6.63119 15.5744 6.61159 15.6209C6.60585 15.6346 6.59973 15.648 6.59414 15.6617C6.56928 15.7222 6.5455 15.7831 6.52294 15.8443C6.51779 15.8583 6.51317 15.8725 6.50807 15.8865C6.4911 15.9337 6.47457 15.9811 6.45894 16.0286C6.4518 16.0505 6.4452 16.0724 6.43832 16.0943C6.42571 16.1346 6.4133 16.175 6.40165 16.2156C6.39472 16.2397 6.38812 16.2639 6.38152 16.2882C6.37088 16.3272 6.36068 16.3662 6.35102 16.4055C6.34484 16.4303 6.33883 16.4551 6.33308 16.48C6.32385 16.5197 6.3152 16.5596 6.30688 16.5995C6.30189 16.6236 6.29673 16.6476 6.29206 16.6717C6.28363 16.7152 6.27606 16.7588 6.2687 16.8026C6.26527 16.8232 6.26146 16.8436 6.25823 16.8642C6.24825 16.9284 6.23917 16.9928 6.23155 17.0575C6.23144 17.0583 6.23139 17.0591 6.23133 17.0599C6.22441 17.1187 6.21845 17.1777 6.21345 17.2368H3.07387V15.9479C3.07387 14.187 4.13132 12.6061 5.78798 11.8547C6.3915 12.1583 7.07755 12.3312 7.80537 12.3312C8.01585 12.3312 8.22697 12.3163 8.43648 12.2868C8.46913 12.3314 8.50231 12.3755 8.53667 12.4188C8.54827 12.4333 8.5603 12.4475 8.57211 12.4619C8.60605 12.5034 8.64046 12.5445 8.67601 12.5847C8.69056 12.6012 8.70549 12.6174 8.72031 12.6337C8.7536 12.6703 8.78742 12.7064 8.822 12.7418C8.84015 12.7605 8.85862 12.7788 8.87709 12.7972C8.90872 12.8284 8.94077 12.8591 8.97337 12.8894C8.98561 12.9008 8.99715 12.9128 9.0095 12.924C8.96284 12.951 8.91661 12.9787 8.87081 13.0069C8.86335 13.0115 8.85604 13.0163 8.84863 13.0209C8.80283 13.0494 8.75752 13.0785 8.71263 13.1082C8.69711 13.1184 8.68165 13.1288 8.66618 13.1392C8.62618 13.1662 8.58661 13.1937 8.54736 13.2216C8.53496 13.2304 8.52239 13.239 8.5101 13.248C8.46016 13.2841 8.41082 13.3209 8.36212 13.3586C8.35148 13.3668 8.34107 13.3753 8.33044 13.3836C8.29167 13.414 8.25328 13.4449 8.21537 13.4762C8.20066 13.4883 8.18605 13.5006 8.17145 13.5129C8.13349 13.5449 8.09601 13.5774 8.05891 13.6103C8.04924 13.6189 8.03936 13.6273 8.02975 13.636C7.98422 13.677 7.93939 13.7188 7.8952 13.7613C7.8837 13.7724 7.87248 13.7837 7.8611 13.7948C7.82727 13.8278 7.79382 13.8612 7.7608 13.8951C7.7477 13.9086 7.7346 13.922 7.7216 13.9356C7.68445 13.9745 7.64783 14.0139 7.6118 14.0538C7.60616 14.0601 7.60031 14.0662 7.59467 14.0725C7.5536 14.1184 7.51343 14.1652 7.47381 14.2124C7.46275 14.2256 7.45195 14.2389 7.44105 14.2522C7.41125 14.2885 7.38188 14.3251 7.353 14.362C7.34183 14.3763 7.33061 14.3905 7.3196 14.4049C7.2818 14.4543 7.24448 14.504 7.20824 14.5546C7.16931 14.609 7.13162 14.6641 7.09489 14.7195ZM7.26848 18.972V18.2649V17.6831C7.26848 17.626 7.26961 17.5692 7.27181 17.5125C7.27251 17.4938 7.27407 17.4753 7.27503 17.4567C7.27697 17.4189 7.27879 17.381 7.28169 17.3433C7.28346 17.3204 7.28615 17.2978 7.2883 17.2749C7.29141 17.2417 7.2942 17.2085 7.29807 17.1755C7.30091 17.1513 7.30462 17.1273 7.30784 17.1032C7.31203 17.0718 7.31595 17.0403 7.32078 17.0091C7.3247 16.9842 7.32942 16.9595 7.33372 16.9347C7.33898 16.9046 7.34387 16.8744 7.34977 16.8444C7.35477 16.8191 7.36057 16.794 7.36599 16.7688C7.37222 16.7397 7.37818 16.7105 7.385 16.6816C7.39101 16.6561 7.39788 16.6309 7.40433 16.6055C7.41158 16.5772 7.4185 16.5488 7.42629 16.5206C7.43338 16.4951 7.44121 16.4698 7.44873 16.4445C7.45689 16.4169 7.46484 16.3892 7.47354 16.3618C7.48165 16.3363 7.49056 16.311 7.4991 16.2857C7.50822 16.2588 7.51708 16.2319 7.5267 16.2052C7.53582 16.1799 7.54565 16.1549 7.55521 16.1299C7.5653 16.1035 7.57518 16.0769 7.58576 16.0507C7.59585 16.0258 7.60659 16.0012 7.61706 15.9764C7.62807 15.9505 7.63892 15.9245 7.65041 15.8989C7.66152 15.8742 7.67323 15.8497 7.68477 15.8252C7.69664 15.8 7.70839 15.7746 7.72074 15.7497C7.73283 15.7252 7.7455 15.7011 7.75801 15.6769C7.77079 15.6522 7.78341 15.6275 7.79661 15.6031C7.80966 15.579 7.82325 15.5553 7.83672 15.5315C7.85036 15.5074 7.86384 15.4833 7.87791 15.4594C7.89187 15.4358 7.90636 15.4125 7.9207 15.3891C7.9352 15.3656 7.94959 15.342 7.96457 15.3186C7.97944 15.2955 7.9948 15.2726 8.0101 15.2497C8.02546 15.2267 8.04071 15.2038 8.05649 15.181C8.07228 15.1583 8.08849 15.1359 8.10471 15.1135C8.12087 15.0911 8.13698 15.0688 8.15352 15.0467C8.17016 15.0245 8.18729 15.0026 8.20442 14.9806C8.22138 14.9589 8.2383 14.9371 8.25564 14.9157C8.27315 14.8941 8.29108 14.8727 8.30901 14.8513C8.32679 14.8302 8.34461 14.809 8.36276 14.7882C8.38107 14.7672 8.39976 14.7465 8.41844 14.7258C8.43707 14.7052 8.45576 14.6846 8.47482 14.6642C8.49388 14.6439 8.51337 14.6238 8.53281 14.6038C8.55225 14.5838 8.57168 14.5639 8.5915 14.5443C8.61136 14.5245 8.6316 14.5051 8.6519 14.4857C8.67214 14.4663 8.69249 14.4471 8.71311 14.428C8.73368 14.409 8.75456 14.3903 8.77556 14.3716C8.79661 14.3529 8.81776 14.3343 8.83918 14.3159C8.86055 14.2976 8.88214 14.2795 8.90389 14.2616C8.92569 14.2436 8.94765 14.2256 8.96982 14.2079C8.99189 14.1904 9.01417 14.173 9.03662 14.1558C9.05922 14.1384 9.08199 14.1212 9.10497 14.1042C9.12768 14.0874 9.15061 14.0709 9.17364 14.0544C9.19705 14.0377 9.22062 14.0212 9.24446 14.0049C9.26777 13.989 9.29129 13.9732 9.31496 13.9576C9.33923 13.9416 9.36361 13.9258 9.3882 13.9103C9.4121 13.8951 9.43621 13.8802 9.46042 13.8654C9.4855 13.8502 9.51073 13.8351 9.53613 13.8203C9.56061 13.806 9.58526 13.7919 9.61007 13.778C9.63584 13.7636 9.66183 13.7493 9.68798 13.7353C9.71305 13.7218 9.73829 13.7085 9.76368 13.6954C9.79026 13.6818 9.81705 13.6684 9.84401 13.6551C9.86957 13.6425 9.89523 13.6301 9.92111 13.6179C9.94146 13.6084 9.96203 13.5991 9.98259 13.5898C10.5861 13.8935 11.2722 14.0663 12 14.0663C12.7278 14.0663 13.4139 13.8935 14.0174 13.5898C14.0378 13.5991 14.0582 13.6083 14.0784 13.6177C14.1046 13.6301 14.1305 13.6426 14.1564 13.6553C14.183 13.6684 14.2095 13.6817 14.2358 13.6952C14.2615 13.7084 14.287 13.7219 14.3123 13.7355C14.3382 13.7494 14.3638 13.7634 14.3893 13.7777C14.4145 13.7918 14.4394 13.8061 14.4642 13.8206C14.4893 13.8353 14.5142 13.8501 14.5389 13.8651C14.5635 13.8801 14.5879 13.8952 14.6121 13.9106C14.6364 13.9259 14.6605 13.9416 14.6844 13.9573C14.7083 13.9731 14.7321 13.989 14.7557 14.0051C14.7793 14.0213 14.8026 14.0376 14.8258 14.0542C14.8491 14.0707 14.8722 14.0874 14.8951 14.1044C14.9179 14.1213 14.9405 14.1383 14.9629 14.1556C14.9855 14.1729 15.0079 14.1903 15.0301 14.208C15.0522 14.2256 15.074 14.2434 15.0957 14.2613C15.1175 14.2794 15.1393 14.2975 15.1608 14.316C15.182 14.3342 15.203 14.3527 15.2239 14.3713C15.2451 14.3901 15.2662 14.409 15.2869 14.4282C15.3074 14.4471 15.3275 14.4662 15.3476 14.4854C15.368 14.5049 15.3884 14.5245 15.4084 14.5443C15.428 14.5638 15.4474 14.5836 15.4667 14.6034C15.4864 14.6236 15.506 14.6439 15.5252 14.6644C15.5441 14.6845 15.5626 14.7049 15.5811 14.7254C15.5999 14.7462 15.6188 14.7671 15.6372 14.7883C15.6553 14.809 15.6729 14.83 15.6906 14.851C15.7087 14.8725 15.7267 14.894 15.7443 14.9157C15.7616 14.9371 15.7784 14.9587 15.7953 14.9804C15.8124 15.0024 15.8296 15.0244 15.8464 15.0467C15.8629 15.0687 15.8789 15.091 15.895 15.1132C15.9112 15.1358 15.9276 15.1583 15.9434 15.1811C15.9591 15.2037 15.9742 15.2265 15.9895 15.2493C16.0049 15.2724 16.0203 15.2954 16.0353 15.3187C16.0501 15.3418 16.0644 15.3653 16.0788 15.3886C16.0933 15.4121 16.1079 15.4356 16.1219 15.4594C16.1359 15.4832 16.1494 15.5072 16.163 15.5312C16.1765 15.5551 16.1901 15.5789 16.2032 15.6031C16.2164 15.6274 16.2289 15.6521 16.2417 15.6768C16.2542 15.701 16.267 15.7251 16.279 15.7496C16.2914 15.7746 16.3031 15.7998 16.3149 15.825C16.3265 15.8496 16.3383 15.8741 16.3494 15.8989C16.3608 15.9244 16.3715 15.9501 16.3825 15.9758C16.3931 16.0008 16.4039 16.0257 16.4141 16.0509C16.4246 16.0769 16.4344 16.1033 16.4445 16.1296C16.4541 16.1548 16.4639 16.1798 16.473 16.2051C16.4827 16.2319 16.4916 16.259 16.5007 16.286C16.5093 16.3112 16.5181 16.3364 16.5262 16.3618C16.5349 16.3892 16.5428 16.4169 16.5511 16.4445C16.5586 16.4699 16.5664 16.4951 16.5735 16.5206C16.5813 16.5488 16.5882 16.5771 16.5955 16.6055C16.602 16.6308 16.6088 16.6561 16.6148 16.6816C16.6216 16.7105 16.6275 16.7396 16.6338 16.7687C16.6392 16.7939 16.645 16.819 16.65 16.8444C16.6559 16.8741 16.6607 16.9041 16.666 16.934C16.6703 16.9591 16.6751 16.9839 16.6791 17.0091C16.6839 17.0401 16.6878 17.0714 16.6919 17.1025C16.6952 17.1268 16.699 17.151 16.7018 17.1754C16.7057 17.2084 16.7085 17.2417 16.7116 17.2749C16.7137 17.2977 16.7164 17.3204 16.7182 17.3432C16.7212 17.3809 16.7229 17.4189 16.7249 17.4567C16.7258 17.4753 16.7274 17.4938 16.7281 17.5124C16.7303 17.5691 16.7314 17.626 16.7314 17.683V18.2648V18.972H7.26848V18.972ZM17.7868 17.2368C17.7762 17.1116 17.7611 16.9872 17.7419 16.8635C17.7388 16.8439 17.7352 16.8245 17.7319 16.805C17.7244 16.7602 17.7166 16.7155 17.708 16.671C17.7034 16.6476 17.6984 16.6242 17.6935 16.6008C17.6851 16.5602 17.6763 16.5196 17.6669 16.4792C17.6612 16.4549 17.6553 16.4305 17.6493 16.4062C17.6395 16.3665 17.6292 16.327 17.6184 16.2876C17.6119 16.2637 17.6054 16.2398 17.5986 16.216C17.5868 16.175 17.5742 16.1341 17.5615 16.0934C17.5547 16.0719 17.5483 16.0504 17.5412 16.0289C17.5254 15.9807 17.5086 15.9326 17.4914 15.8847C17.4866 15.8714 17.4822 15.8579 17.4772 15.8445C17.4546 15.7831 17.4308 15.722 17.4058 15.6613C17.4004 15.6483 17.3946 15.6354 17.3891 15.6224C17.3693 15.5753 17.349 15.5283 17.3278 15.4816C17.3184 15.4609 17.3085 15.4404 17.2988 15.4198C17.2805 15.3809 17.2621 15.3422 17.2428 15.3038C17.2316 15.2813 17.22 15.2589 17.2085 15.2366C17.1896 15.2001 17.1704 15.1637 17.1507 15.1276C17.1383 15.105 17.1259 15.0824 17.1132 15.06C17.0928 15.0238 17.0719 14.988 17.0506 14.9522C17.0378 14.9307 17.0252 14.9092 17.0122 14.8879C16.9885 14.8493 16.9641 14.8111 16.9394 14.773C16.9279 14.7552 16.9168 14.7372 16.9051 14.7196C16.8683 14.6641 16.8306 14.6091 16.7916 14.5546C16.7553 14.504 16.718 14.4542 16.6802 14.4049C16.6692 14.3906 16.6581 14.3764 16.647 14.3622C16.618 14.3251 16.5885 14.2884 16.5586 14.252C16.5478 14.2389 16.5371 14.2256 16.5261 14.2126C16.4865 14.1652 16.4461 14.1183 16.405 14.0723C16.3996 14.0664 16.3941 14.0606 16.3887 14.0546C16.3524 14.0143 16.3154 13.9747 16.278 13.9355C16.2651 13.922 16.2522 13.9087 16.2392 13.8954C16.206 13.8613 16.1724 13.8276 16.1383 13.7944C16.1271 13.7834 16.1161 13.7724 16.1048 13.7615C16.0605 13.719 16.0155 13.677 15.9698 13.6359C15.9604 13.6274 15.9508 13.6192 15.9413 13.6108C15.904 13.5776 15.8663 13.545 15.8282 13.5128C15.8137 13.5006 15.7991 13.4884 15.7845 13.4763C15.7465 13.4449 15.7081 13.414 15.6692 13.3836C15.6587 13.3753 15.6483 13.3668 15.6377 13.3586C15.589 13.321 15.5397 13.2842 15.4898 13.2481C15.4773 13.2391 15.4647 13.2304 15.4522 13.2215C15.4131 13.1937 15.3737 13.1664 15.3339 13.1395C15.3182 13.129 15.3026 13.1185 15.2869 13.1081C15.2425 13.0788 15.1976 13.05 15.1523 13.0218C15.1444 13.0169 15.1366 13.0117 15.1287 13.0069C15.0829 12.9787 15.0368 12.9511 14.9902 12.9242C15.0023 12.9132 15.0135 12.9016 15.0254 12.8905C15.0587 12.8596 15.0914 12.8283 15.1236 12.7964C15.1416 12.7786 15.1595 12.7608 15.1771 12.7427C15.2123 12.7067 15.2465 12.67 15.2803 12.6328C15.2947 12.6171 15.3092 12.6014 15.3233 12.5853C15.3593 12.5445 15.3943 12.5028 15.4287 12.4606C15.44 12.4469 15.4516 12.4333 15.4626 12.4194C15.4972 12.3759 15.5305 12.3316 15.5633 12.2869C15.7728 12.3164 15.9839 12.3313 16.1944 12.3313C16.9222 12.3313 17.6083 12.1584 18.2118 11.8547C19.8685 12.6061 20.9259 14.187 20.9259 15.948V17.2368H17.7868V17.2368Z" fill="#027DBD"/>
  </symbol>
</svg>
