<svg width="20" height="20" viewBox="0 0 20 20" fill="none" xmlns="http://www.w3.org/2000/svg">
<mask id="path-1-outside-1" maskUnits="userSpaceOnUse" x="-1" y="-0.164551" width="22" height="20" fill="black">
<rect fill="white" x="-1" y="-0.164551" width="22" height="20"/>
<path fill-rule="evenodd" clip-rule="evenodd" d="M8.73404 6.16992C9.10939 5.51386 9.26587 4.64249 9.16337 3.77948C8.96509 2.09928 7.8063 0.691742 6.51165 0.847211C5.92704 0.916391 5.40727 1.30014 5.04786 1.92776C4.67274 2.58331 4.51626 3.45468 4.61852 4.31831C4.94239 7.06226 7.49681 8.33113 8.73404 6.16992ZM5.72591 2.31585C5.93973 1.94229 6.27329 1.61745 6.70325 1.61745C7.47204 1.61745 8.24337 2.64944 8.38759 3.87132C8.47079 4.57183 8.34994 5.2682 8.05603 5.78187C7.15575 7.35469 5.60708 6.02867 5.39434 4.22659C5.31134 3.52554 5.43223 2.82909 5.72591 2.31585ZM15.0471 13.0955C14.6809 12.7295 13.7929 11.739 13.0924 10.1326C12.5714 8.88266 11.3601 8.0752 10.0053 8.0752C8.65087 8.0752 7.4397 8.88278 6.91864 10.133C6.03973 12.1488 4.83903 13.2156 4.8275 13.2257L4.82336 13.2294C4.11516 13.8635 3.70898 14.7718 3.70898 15.7215C3.70898 16.8825 4.26184 17.8922 5.2209 18.5319C6.1145 19.1281 7.22204 19.3068 8.25935 19.0224C8.77919 18.88 9.38087 18.8047 9.99947 18.8047C10.6285 18.8047 11.2391 18.8825 11.7652 19.0297C12.7721 19.3115 13.8772 19.157 14.7895 18.5542C15.7596 17.9132 16.322 16.894 16.322 15.7215C16.322 14.6903 15.8577 13.7347 15.0471 13.0955ZM14.3587 17.9024C13.6547 18.3675 12.7861 18.5042 11.9757 18.2773C11.3819 18.1112 10.6985 18.0234 9.99935 18.0234C9.312 18.0234 8.63892 18.1083 8.0527 18.269C7.23372 18.4935 6.35958 18.3525 5.65434 17.882C4.91801 17.3908 4.49012 16.6229 4.49012 15.7215C4.49012 14.9944 4.8009 14.2988 5.34282 13.8128C5.42618 13.7397 6.69383 12.6048 7.63602 10.4421L7.6386 10.436C8.03735 9.47645 8.96626 8.85645 10.0052 8.85645C11.0445 8.85641 11.9736 9.47629 12.3722 10.4356L12.3748 10.4417C13.1399 12.1975 14.1249 13.2815 14.5129 13.6661C14.5241 13.6772 14.5359 13.6875 14.5482 13.6972C15.1789 14.1872 15.5406 14.9251 15.5406 15.7215C15.5407 16.6304 15.1058 17.4087 14.3587 17.9024ZM4.60539 8.20341C4.96797 8.90533 5.10539 9.67529 4.99231 10.3715C4.87231 11.1108 4.48777 11.6826 3.90957 11.9813C3.29496 12.2988 2.59863 12.2412 1.97011 11.9329C1.33679 11.6223 0.788273 11.0647 0.425499 10.3628C0.0629202 9.66084 -0.0745019 8.89091 0.0385842 8.19466C0.158663 7.45533 0.543116 6.88372 1.12124 6.58501C1.69937 6.28607 2.3882 6.3031 3.06082 6.63302C3.69414 6.94364 4.24266 7.50134 4.60539 8.20341ZM2.31417 11.2315C2.75906 11.4497 3.19828 11.4695 3.55101 11.2872C3.90379 11.1049 4.14183 10.7353 4.22121 10.2463C4.30762 9.71428 4.19754 9.11611 3.91133 8.56201C3.62496 8.00779 3.20074 7.57181 2.71679 7.33443C2.32195 7.14075 1.87015 7.07732 1.48007 7.279L1.47995 7.27907C1.12718 7.46134 0.889133 7.83091 0.809719 8.3199C0.723312 8.85197 0.833391 9.45006 1.1196 10.0042C1.40597 10.5582 1.83019 10.9941 2.31417 11.2315ZM12.9294 7.26841C14.1136 7.26841 15.1945 5.97552 15.3903 4.32493C15.5983 2.56657 14.7123 0.842773 13.3051 0.842773C12.1208 0.842773 11.0399 2.13571 10.8446 3.78626C10.6364 5.54782 11.5249 7.26841 12.9294 7.26841ZM11.6205 3.87801C11.7651 2.65621 12.5366 1.62399 13.3052 1.62399C13.3414 1.62399 13.3725 1.62574 13.4005 1.62938C13.817 1.67567 14.1394 2.03969 14.3293 2.41137C14.5877 2.91688 14.6916 3.58086 14.6145 4.23301C14.4644 5.4988 13.6254 6.58446 12.8341 6.48177L12.8298 6.48122C12.4746 6.43942 12.1377 6.15466 11.9055 5.69997C11.6472 5.19442 11.5434 4.53036 11.6205 3.87801ZM16.9387 6.63494C18.3387 5.94799 19.7139 6.67526 19.961 8.19658C20.1949 9.63737 19.3396 11.2922 18.0294 11.9349C16.6462 12.6135 15.2572 11.9128 15.0073 10.3735C14.7732 8.93252 15.629 7.27744 16.9387 6.63494ZM16.4486 11.2891C16.8013 11.4713 17.2405 11.4516 17.6854 11.2334C18.6902 10.7406 19.3681 9.41959 19.1898 8.32178C19.0255 7.30991 18.2019 6.88537 17.2828 7.33627C16.2798 7.82842 15.5998 9.14838 15.7784 10.2482C15.8577 10.7371 16.0958 11.1068 16.4486 11.2891V11.2891Z"/>
</mask>
<path fill-rule="evenodd" clip-rule="evenodd" d="M8.73404 6.16992C9.10939 5.51386 9.26587 4.64249 9.16337 3.77948C8.96509 2.09928 7.8063 0.691742 6.51165 0.847211C5.92704 0.916391 5.40727 1.30014 5.04786 1.92776C4.67274 2.58331 4.51626 3.45468 4.61852 4.31831C4.94239 7.06226 7.49681 8.33113 8.73404 6.16992ZM5.72591 2.31585C5.93973 1.94229 6.27329 1.61745 6.70325 1.61745C7.47204 1.61745 8.24337 2.64944 8.38759 3.87132C8.47079 4.57183 8.34994 5.2682 8.05603 5.78187C7.15575 7.35469 5.60708 6.02867 5.39434 4.22659C5.31134 3.52554 5.43223 2.82909 5.72591 2.31585ZM15.0471 13.0955C14.6809 12.7295 13.7929 11.739 13.0924 10.1326C12.5714 8.88266 11.3601 8.0752 10.0053 8.0752C8.65087 8.0752 7.4397 8.88278 6.91864 10.133C6.03973 12.1488 4.83903 13.2156 4.8275 13.2257L4.82336 13.2294C4.11516 13.8635 3.70898 14.7718 3.70898 15.7215C3.70898 16.8825 4.26184 17.8922 5.2209 18.5319C6.1145 19.1281 7.22204 19.3068 8.25935 19.0224C8.77919 18.88 9.38087 18.8047 9.99947 18.8047C10.6285 18.8047 11.2391 18.8825 11.7652 19.0297C12.7721 19.3115 13.8772 19.157 14.7895 18.5542C15.7596 17.9132 16.322 16.894 16.322 15.7215C16.322 14.6903 15.8577 13.7347 15.0471 13.0955ZM14.3587 17.9024C13.6547 18.3675 12.7861 18.5042 11.9757 18.2773C11.3819 18.1112 10.6985 18.0234 9.99935 18.0234C9.312 18.0234 8.63892 18.1083 8.0527 18.269C7.23372 18.4935 6.35958 18.3525 5.65434 17.882C4.91801 17.3908 4.49012 16.6229 4.49012 15.7215C4.49012 14.9944 4.8009 14.2988 5.34282 13.8128C5.42618 13.7397 6.69383 12.6048 7.63602 10.4421L7.6386 10.436C8.03735 9.47645 8.96626 8.85645 10.0052 8.85645C11.0445 8.85641 11.9736 9.47629 12.3722 10.4356L12.3748 10.4417C13.1399 12.1975 14.1249 13.2815 14.5129 13.6661C14.5241 13.6772 14.5359 13.6875 14.5482 13.6972C15.1789 14.1872 15.5406 14.9251 15.5406 15.7215C15.5407 16.6304 15.1058 17.4087 14.3587 17.9024ZM4.60539 8.20341C4.96797 8.90533 5.10539 9.67529 4.99231 10.3715C4.87231 11.1108 4.48777 11.6826 3.90957 11.9813C3.29496 12.2988 2.59863 12.2412 1.97011 11.9329C1.33679 11.6223 0.788273 11.0647 0.425499 10.3628C0.0629202 9.66084 -0.0745019 8.89091 0.0385842 8.19466C0.158663 7.45533 0.543116 6.88372 1.12124 6.58501C1.69937 6.28607 2.3882 6.3031 3.06082 6.63302C3.69414 6.94364 4.24266 7.50134 4.60539 8.20341ZM2.31417 11.2315C2.75906 11.4497 3.19828 11.4695 3.55101 11.2872C3.90379 11.1049 4.14183 10.7353 4.22121 10.2463C4.30762 9.71428 4.19754 9.11611 3.91133 8.56201C3.62496 8.00779 3.20074 7.57181 2.71679 7.33443C2.32195 7.14075 1.87015 7.07732 1.48007 7.279L1.47995 7.27907C1.12718 7.46134 0.889133 7.83091 0.809719 8.3199C0.723312 8.85197 0.833391 9.45006 1.1196 10.0042C1.40597 10.5582 1.83019 10.9941 2.31417 11.2315ZM12.9294 7.26841C14.1136 7.26841 15.1945 5.97552 15.3903 4.32493C15.5983 2.56657 14.7123 0.842773 13.3051 0.842773C12.1208 0.842773 11.0399 2.13571 10.8446 3.78626C10.6364 5.54782 11.5249 7.26841 12.9294 7.26841ZM11.6205 3.87801C11.7651 2.65621 12.5366 1.62399 13.3052 1.62399C13.3414 1.62399 13.3725 1.62574 13.4005 1.62938C13.817 1.67567 14.1394 2.03969 14.3293 2.41137C14.5877 2.91688 14.6916 3.58086 14.6145 4.23301C14.4644 5.4988 13.6254 6.58446 12.8341 6.48177L12.8298 6.48122C12.4746 6.43942 12.1377 6.15466 11.9055 5.69997C11.6472 5.19442 11.5434 4.53036 11.6205 3.87801ZM16.9387 6.63494C18.3387 5.94799 19.7139 6.67526 19.961 8.19658C20.1949 9.63737 19.3396 11.2922 18.0294 11.9349C16.6462 12.6135 15.2572 11.9128 15.0073 10.3735C14.7732 8.93252 15.629 7.27744 16.9387 6.63494ZM16.4486 11.2891C16.8013 11.4713 17.2405 11.4516 17.6854 11.2334C18.6902 10.7406 19.3681 9.41959 19.1898 8.32178C19.0255 7.30991 18.2019 6.88537 17.2828 7.33627C16.2798 7.82842 15.5998 9.14838 15.7784 10.2482C15.8577 10.7371 16.0958 11.1068 16.4486 11.2891V11.2891Z" fill="#5B5A60"/>
<path d="M9.16337 3.77948L8.96475 3.80292L8.96477 3.80307L9.16337 3.77948ZM8.73404 6.16992L8.90761 6.26928L8.90763 6.26924L8.73404 6.16992ZM6.51165 0.847211L6.53515 1.04583L6.5355 1.04578L6.51165 0.847211ZM5.04786 1.92776L4.8743 1.82837L4.87427 1.82843L5.04786 1.92776ZM4.61852 4.31831L4.81714 4.29487L4.81713 4.29479L4.61852 4.31831ZM5.72591 2.31585L5.55233 2.21649L5.55231 2.21652L5.72591 2.31585ZM8.38759 3.87132L8.18897 3.89476L8.18899 3.89491L8.38759 3.87132ZM8.05603 5.78187L8.2296 5.88122L8.22962 5.88119L8.05603 5.78187ZM5.39434 4.22659L5.59296 4.20315L5.59296 4.20308L5.39434 4.22659ZM13.0924 10.1326L12.9077 10.2095L12.909 10.2125L13.0924 10.1326ZM15.0471 13.0955L14.9057 13.237L14.914 13.2453L14.9233 13.2526L15.0471 13.0955ZM6.91864 10.133L7.102 10.2129L7.10325 10.2099L6.91864 10.133ZM4.8275 13.2257L4.69583 13.0752L4.6948 13.0761L4.8275 13.2257ZM4.82336 13.2294L4.69066 13.0797L4.68995 13.0804L4.82336 13.2294ZM5.2209 18.5319L5.3319 18.3655L5.33188 18.3655L5.2209 18.5319ZM8.25935 19.0224L8.2065 18.8295L8.20646 18.8295L8.25935 19.0224ZM11.7652 19.0297L11.8191 18.8371L11.8191 18.8371L11.7652 19.0297ZM14.7895 18.5542L14.8997 18.7211L14.8997 18.7211L14.7895 18.5542ZM11.9757 18.2773L12.0296 18.0847L12.0296 18.0847L11.9757 18.2773ZM14.3587 17.9024L14.2484 17.7355L14.2484 17.7355L14.3587 17.9024ZM8.0527 18.269L7.99985 18.0761L7.99982 18.0761L8.0527 18.269ZM5.65434 17.882L5.54335 18.0484L5.54335 18.0484L5.65434 17.882ZM5.34282 13.8128L5.21096 13.6624L5.20928 13.6639L5.34282 13.8128ZM7.63602 10.4421L7.81939 10.522L7.82021 10.52L7.63602 10.4421ZM7.6386 10.436L7.82279 10.5139L7.82329 10.5127L7.6386 10.436ZM10.0052 8.85645L10.0052 9.05645L10.0052 9.05645L10.0052 8.85645ZM12.3722 10.4356L12.1875 10.5123L12.188 10.5135L12.3722 10.4356ZM12.3748 10.4417L12.1906 10.5196L12.1914 10.5216L12.3748 10.4417ZM14.5129 13.6661L14.3721 13.8082L14.3725 13.8086L14.5129 13.6661ZM14.5482 13.6972L14.4254 13.855L14.4255 13.8551L14.5482 13.6972ZM15.5406 15.7215L15.3406 15.7215L15.3406 15.7215L15.5406 15.7215ZM4.99231 10.3715L4.79489 10.3394L4.79489 10.3395L4.99231 10.3715ZM4.60539 8.20341L4.78308 8.11162L4.78308 8.11161L4.60539 8.20341ZM3.90957 11.9813L3.81777 11.8036L3.81777 11.8036L3.90957 11.9813ZM1.97011 11.9329L2.05819 11.7533L2.05818 11.7533L1.97011 11.9329ZM0.425499 10.3628L0.247802 10.4546L0.247828 10.4547L0.425499 10.3628ZM0.0385842 8.19466L0.235997 8.22673L0.235997 8.22672L0.0385842 8.19466ZM1.12124 6.58501L1.21305 6.76269L1.21311 6.76267L1.12124 6.58501ZM3.06082 6.63302L2.97274 6.81258L2.97275 6.81258L3.06082 6.63302ZM3.55101 11.2872L3.45921 11.1095L3.45917 11.1095L3.55101 11.2872ZM2.31417 11.2315L2.2261 11.4111L2.2261 11.4111L2.31417 11.2315ZM4.22121 10.2463L4.0238 10.2142L4.02379 10.2143L4.22121 10.2463ZM3.91133 8.56201L4.08902 8.47022L4.08901 8.4702L3.91133 8.56201ZM2.71679 7.33443L2.80487 7.15487L2.80487 7.15486L2.71679 7.33443ZM1.48007 7.279L1.38822 7.10134L1.37828 7.10648L1.36898 7.11269L1.48007 7.279ZM1.47995 7.27907L1.57176 7.45676L1.58172 7.45161L1.59105 7.44538L1.47995 7.27907ZM0.809719 8.3199L0.612305 8.28784L0.612305 8.28784L0.809719 8.3199ZM1.1196 10.0042L0.941907 10.0959L0.941933 10.096L1.1196 10.0042ZM15.3903 4.32493L15.5889 4.34848L15.5889 4.34842L15.3903 4.32493ZM10.8446 3.78626L10.646 3.76276L10.646 3.76278L10.8446 3.78626ZM11.6205 3.87801L11.4219 3.85451L11.4219 3.85454L11.6205 3.87801ZM13.4005 1.62938L13.3747 1.82774L13.3784 1.82815L13.4005 1.62938ZM14.3293 2.41137L14.1512 2.50237L14.1513 2.50239L14.3293 2.41137ZM14.6145 4.23301L14.8131 4.25657L14.8131 4.2565L14.6145 4.23301ZM12.8341 6.48177L12.8599 6.28343L12.8592 6.28334L12.8341 6.48177ZM12.8298 6.48122L12.8548 6.28279L12.8532 6.28259L12.8298 6.48122ZM11.9055 5.69997L12.0836 5.60901L12.0836 5.60898L11.9055 5.69997ZM19.961 8.19658L19.7635 8.22864L19.7635 8.22864L19.961 8.19658ZM16.9387 6.63494L17.0268 6.8145L17.0268 6.81449L16.9387 6.63494ZM18.0294 11.9349L17.9414 11.7553L17.9414 11.7553L18.0294 11.9349ZM15.0073 10.3735L15.2047 10.3414L15.2047 10.3414L15.0073 10.3735ZM17.6854 11.2334L17.7734 11.413L17.7735 11.413L17.6854 11.2334ZM16.4486 11.2891L16.5403 11.1114L16.2486 10.9607V11.2891H16.4486ZM19.1898 8.32178L19.3872 8.28972L19.3872 8.28972L19.1898 8.32178ZM17.2828 7.33627L17.1947 7.15671L17.1947 7.15672L17.2828 7.33627ZM15.7784 10.2482L15.9758 10.2162L15.9758 10.2162L15.7784 10.2482ZM16.4486 11.2891L16.3567 11.4668L16.6486 11.6176V11.2891H16.4486ZM8.96477 3.80307C9.063 4.63013 8.9114 5.45719 8.56044 6.0706L8.90763 6.26924C9.30738 5.57054 9.46875 4.65485 9.36198 3.75589L8.96477 3.80307ZM6.5355 1.04578C7.09803 0.978233 7.65092 1.24734 8.09836 1.75693C8.54539 2.26606 8.86988 2.99904 8.96475 3.80292L9.362 3.75604C9.25858 2.87973 8.90454 2.06884 8.39894 1.49301C7.89375 0.917654 7.21992 0.560721 6.4878 0.648638L6.5355 1.04578ZM5.22141 2.02715C5.5574 1.44044 6.02798 1.10584 6.53515 1.04583L6.48815 0.648597C5.8261 0.72694 5.25714 1.15985 4.8743 1.82837L5.22141 2.02715ZM4.81713 4.29479C4.71911 3.46702 4.87075 2.63997 5.22145 2.02709L4.87427 1.82843C4.47473 2.52665 4.3134 3.44233 4.41991 4.34183L4.81713 4.29479ZM8.56047 6.07055C8.27032 6.57739 7.91379 6.86544 7.55028 6.98885C7.1869 7.11222 6.79499 7.07852 6.41852 6.9024C5.66109 6.54804 4.9729 5.61451 4.81714 4.29487L4.4199 4.34175C4.58801 5.76607 5.33896 6.83895 6.24902 7.26471C6.70629 7.47864 7.2052 7.52843 7.67887 7.36762C8.1524 7.20685 8.57914 6.84306 8.90761 6.26928L8.56047 6.07055ZM6.70325 1.41745C6.16438 1.41745 5.77834 1.82166 5.55233 2.21649L5.89948 2.4152C6.10113 2.06293 6.3822 1.81745 6.70325 1.81745V1.41745ZM8.58621 3.84788C8.51025 3.20432 8.26918 2.60714 7.93984 2.16645C7.61487 1.73161 7.17767 1.41745 6.70325 1.41745V1.81745C6.99762 1.81745 7.33049 2.01928 7.61943 2.40591C7.904 2.78669 8.12071 3.31644 8.18897 3.89476L8.58621 3.84788ZM8.22962 5.88119C8.54868 5.32356 8.67346 4.58242 8.5862 3.84773L8.18899 3.89491C8.26813 4.56124 8.15119 5.21284 7.88244 5.68254L8.22962 5.88119ZM5.19572 4.25004C5.30696 5.19235 5.76854 6.03393 6.35441 6.43487C6.6511 6.6379 6.99388 6.73596 7.33871 6.64985C7.68282 6.56391 7.98702 6.30503 8.2296 5.88122L7.88245 5.68251C7.6749 6.04512 7.44791 6.21029 7.24179 6.26177C7.03639 6.31306 6.80991 6.26189 6.58031 6.10476C6.11359 5.78537 5.69446 5.06291 5.59296 4.20315L5.19572 4.25004ZM5.55231 2.21652C5.23347 2.77375 5.10868 3.51495 5.19573 4.25011L5.59296 4.20308C5.51399 3.53612 5.63099 2.88443 5.8995 2.41517L5.55231 2.21652ZM12.909 10.2125C13.6221 11.8477 14.5269 12.8584 14.9057 13.237L15.1885 12.9541C14.8349 12.6007 13.9637 11.6303 13.2757 10.0526L12.909 10.2125ZM10.0053 8.2752C11.2793 8.2752 12.4179 9.03414 12.9078 10.2095L13.277 10.0556C12.725 8.73118 11.4408 7.8752 10.0053 7.8752V8.2752ZM7.10325 10.2099C7.59325 9.03422 8.73162 8.2752 10.0053 8.2752V7.8752C8.57011 7.8752 7.28614 8.73133 6.73403 10.056L7.10325 10.2099ZM4.95917 13.3763C4.98449 13.3541 6.20749 12.2645 7.10197 10.2129L6.73531 10.053C5.87198 12.0332 4.69357 13.0772 4.69584 13.0752L4.95917 13.3763ZM4.95606 13.379L4.9602 13.3753L4.6948 13.0761L4.69066 13.0797L4.95606 13.379ZM3.90898 15.7215C3.90898 14.8288 4.2909 13.9746 4.95677 13.3784L4.68995 13.0804C3.93942 13.7524 3.50898 14.7149 3.50898 15.7215H3.90898ZM5.33188 18.3655C4.42736 17.7622 3.90898 16.8144 3.90898 15.7215H3.50898C3.50898 16.9507 4.09632 18.0222 5.10992 18.6983L5.33188 18.3655ZM8.20646 18.8295C7.22495 19.0986 6.17721 18.9295 5.3319 18.3655L5.1099 18.6983C6.05179 19.3267 7.21913 19.515 8.31223 19.2153L8.20646 18.8295ZM9.99947 18.6047C9.36558 18.6047 8.74587 18.6817 8.2065 18.8295L8.31219 19.2153C8.81251 19.0782 9.39616 19.0047 9.99947 19.0047V18.6047ZM11.8191 18.8371C11.273 18.6843 10.644 18.6047 9.99947 18.6047V19.0047C10.613 19.0047 11.2051 19.0807 11.7113 19.2223L11.8191 18.8371ZM14.6792 18.3873C13.8163 18.9575 12.7713 19.1036 11.8191 18.8371L11.7113 19.2223C12.7728 19.5194 13.938 19.3565 14.8997 18.7211L14.6792 18.3873ZM16.122 15.7215C16.122 16.8255 15.5945 17.7826 14.6792 18.3873L14.8997 18.7211C15.9247 18.0438 16.522 16.9626 16.522 15.7215H16.122ZM14.9233 13.2526C15.6859 13.8539 16.122 14.7517 16.122 15.7215H16.522C16.522 14.6289 16.0295 13.6154 15.1709 12.9385L14.9233 13.2526ZM11.9218 18.4699C12.7882 18.7124 13.7167 18.5663 14.4689 18.0692L14.2484 17.7355C13.5927 18.1688 12.784 18.2959 12.0296 18.0847L11.9218 18.4699ZM9.99935 18.2234C10.6827 18.2234 11.3477 18.3093 11.9218 18.4699L12.0296 18.0847C11.4161 17.9131 10.7143 17.8234 9.99935 17.8234V18.2234ZM8.10556 18.4619C8.67248 18.3065 9.32758 18.2234 9.99935 18.2234V17.8234C9.29643 17.8234 8.60536 17.9102 7.99985 18.0761L8.10556 18.4619ZM5.54335 18.0484C6.29688 18.5511 7.23083 18.7017 8.10559 18.4618L7.99982 18.0761C7.23661 18.2854 6.42227 18.1539 5.76533 17.7156L5.54335 18.0484ZM4.29012 15.7215C4.29012 16.6917 4.75311 17.5212 5.54335 18.0484L5.76533 17.7156C5.08291 17.2604 4.69012 16.554 4.69012 15.7215H4.29012ZM5.20928 13.6639C4.62513 14.1878 4.29012 14.9375 4.29012 15.7215H4.69012C4.69012 15.0513 4.97667 14.4098 5.47635 13.9617L5.20928 13.6639ZM7.45267 10.3622C6.52603 12.4892 5.28062 13.6013 5.21097 13.6624L5.47467 13.9632C5.57173 13.8781 6.86164 12.7203 7.81938 10.522L7.45267 10.3622ZM7.45441 10.358L7.45184 10.3641L7.82021 10.52L7.82279 10.5139L7.45441 10.358ZM10.0052 8.65645C8.88543 8.65645 7.88367 9.3251 7.45391 10.3592L7.82329 10.5127C8.19104 9.6278 9.04709 9.05645 10.0052 9.05645V8.65645ZM12.5569 10.3588C12.1272 9.32488 11.1252 8.6564 10.0052 8.65645L10.0052 9.05645C10.9637 9.05641 11.8199 9.6277 12.1875 10.5123L12.5569 10.3588ZM12.559 10.3638L12.5564 10.3577L12.188 10.5135L12.1906 10.5196L12.559 10.3638ZM14.6537 13.5241C14.2782 13.1518 13.3104 12.0882 12.5581 10.3618L12.1914 10.5216C12.9693 12.3069 13.9717 13.4112 14.3721 13.8082L14.6537 13.5241ZM14.6711 13.5393C14.6651 13.5347 14.6592 13.5295 14.6533 13.5237L14.3725 13.8086C14.389 13.8248 14.4066 13.8404 14.4254 13.855L14.6711 13.5393ZM15.7406 15.7215C15.7406 14.8631 15.3502 14.067 14.6709 13.5392L14.4255 13.8551C15.0076 14.3074 15.3406 14.987 15.3406 15.7215H15.7406ZM14.4689 18.0692C15.2705 17.5397 15.7407 16.6995 15.7406 15.7215L15.3406 15.7215C15.3407 16.5612 14.9412 17.2778 14.2484 17.7355L14.4689 18.0692ZM5.18972 10.4036C5.3105 9.65998 5.16287 8.84684 4.78308 8.11162L4.4277 8.2952C4.77307 8.96381 4.90028 9.6906 4.79489 10.3394L5.18972 10.4036ZM4.00137 12.159C4.6449 11.8265 5.06132 11.1946 5.18972 10.4035L4.79489 10.3395C4.68329 11.027 4.33065 11.5386 3.81777 11.8036L4.00137 12.159ZM1.88204 12.1125C2.55318 12.4417 3.31774 12.5122 4.00137 12.159L3.81777 11.8036C3.27218 12.0855 2.64407 12.0407 2.05819 11.7533L1.88204 12.1125ZM0.247828 10.4547C0.627811 11.1898 1.20564 11.7807 1.88204 12.1125L2.05818 11.7533C1.46794 11.4639 0.948735 10.9396 0.60317 10.271L0.247828 10.4547ZM-0.158829 8.1626C-0.279609 8.90622 -0.131974 9.71932 0.247802 10.4546L0.603196 10.2711C0.257814 9.60235 0.130605 8.87561 0.235997 8.22673L-0.158829 8.1626ZM1.02944 6.40733C0.385988 6.73979 -0.0303466 7.37152 -0.158829 8.1626L0.235997 8.22672C0.347672 7.53913 0.700245 7.02766 1.21305 6.76269L1.02944 6.40733ZM3.14889 6.45346C2.42918 6.10044 1.67284 6.07463 1.02938 6.40736L1.21311 6.76267C1.7259 6.4975 2.34721 6.50576 2.97274 6.81258L3.14889 6.45346ZM4.78308 8.11161C4.40314 7.37624 3.82531 6.78522 3.14889 6.45345L2.97275 6.81258C3.56297 7.10207 4.08217 7.62644 4.42771 8.29522L4.78308 8.11161ZM3.45917 11.1095C3.17664 11.2556 2.80595 11.2499 2.40225 11.0519L2.2261 11.4111C2.71217 11.6495 3.21992 11.6835 3.64286 11.4648L3.45917 11.1095ZM4.02379 10.2143C3.95178 10.6579 3.74184 10.9635 3.45921 11.1095L3.64282 11.4649C4.06574 11.2463 4.33189 10.8127 4.41863 10.2784L4.02379 10.2143ZM3.73363 8.65379C4.00338 9.17602 4.10228 9.73097 4.0238 10.2142L4.41862 10.2784C4.51295 9.69758 4.3917 9.0562 4.08902 8.47022L3.73363 8.65379ZM2.62872 7.51399C3.0683 7.72961 3.46374 8.13147 3.73364 8.65382L4.08901 8.4702C3.78617 7.88411 3.33317 7.41401 2.80487 7.15487L2.62872 7.51399ZM1.57193 7.45666C1.88601 7.29427 2.26737 7.33675 2.62872 7.51399L2.80487 7.15486C2.37652 6.94476 1.85429 6.86037 1.38822 7.10134L1.57193 7.45666ZM1.59105 7.44538L1.59117 7.4453L1.36898 7.11269L1.36886 7.11277L1.59105 7.44538ZM1.00713 8.35196C1.07918 7.90831 1.28912 7.60279 1.57176 7.45676L1.38815 7.10139C0.965239 7.31989 0.699083 7.75351 0.612305 8.28784L1.00713 8.35196ZM1.2973 9.91237C1.02755 9.39015 0.928644 8.83527 1.00713 8.35196L0.612305 8.28784C0.517981 8.86867 0.639231 9.50997 0.941907 10.0959L1.2973 9.91237ZM2.40225 11.0519C1.96261 10.8363 1.56717 10.4345 1.29727 9.91232L0.941933 10.096C1.24477 10.6819 1.69777 11.1519 2.2261 11.4111L2.40225 11.0519ZM15.1917 4.30138C15.098 5.09151 14.7928 5.79011 14.3771 6.28736C13.9603 6.78584 13.4457 7.06841 12.9294 7.06841V7.46841C13.5972 7.46841 14.2152 7.10454 14.6839 6.54392C15.1537 5.98207 15.4868 5.20894 15.5889 4.34848L15.1917 4.30138ZM13.3051 1.04277C13.9162 1.04277 14.4323 1.41486 14.7797 2.0236C15.1276 2.63311 15.2912 3.45984 15.1917 4.30143L15.5889 4.34842C15.6973 3.43166 15.522 2.5173 15.1271 1.82533C14.7318 1.13259 14.1013 0.642773 13.3051 0.642773V1.04277ZM11.0432 3.80975C11.1367 3.01966 11.4418 2.32107 11.8574 1.82383C12.2741 1.32536 12.7887 1.04277 13.3051 1.04277V0.642773C12.6372 0.642773 12.0192 1.00665 11.5505 1.56729C11.0808 2.12915 10.7478 2.90231 10.646 3.76276L11.0432 3.80975ZM12.9294 7.06841C12.3196 7.06841 11.8036 6.69705 11.4559 6.08868C11.1078 5.47959 10.9436 4.6529 11.0432 3.80973L10.646 3.76278C10.5374 4.68118 10.7134 5.59557 11.1086 6.28716C11.5043 6.97947 12.1347 7.46841 12.9294 7.46841V7.06841ZM13.3052 1.42399C12.8308 1.42399 12.3937 1.73824 12.0686 2.17309C11.7392 2.61381 11.498 3.211 11.4219 3.85451L11.8191 3.90152C11.8875 3.32323 12.1044 2.79341 12.389 2.41256C12.6781 2.02585 13.0109 1.82399 13.3052 1.82399V1.42399ZM13.4263 1.43105C13.3878 1.42604 13.3477 1.42399 13.3052 1.42399V1.82399C13.3351 1.82399 13.3573 1.82545 13.3747 1.82771L13.4263 1.43105ZM14.5074 2.32037C14.3081 1.93034 13.9418 1.4883 13.4226 1.4306L13.3784 1.82815C13.6922 1.86303 13.9707 2.14903 14.1512 2.50237L14.5074 2.32037ZM14.8131 4.2565C14.8941 3.57134 14.7865 2.86644 14.5074 2.32035L14.1513 2.50239C14.3889 2.96732 14.4891 3.59039 14.4159 4.20953L14.8131 4.2565ZM12.8084 6.68011C13.3066 6.74477 13.7762 6.43434 14.122 5.99412C14.4736 5.54653 14.734 4.9235 14.8131 4.25657L14.4159 4.20946C14.3449 4.80831 14.1107 5.36101 13.8075 5.74702C13.4984 6.14041 13.1529 6.32147 12.8599 6.28343L12.8084 6.68011ZM12.8048 6.67965L12.8091 6.6802L12.8592 6.28334L12.8548 6.28279L12.8048 6.67965ZM11.7274 5.79093C11.9759 6.27765 12.3593 6.62723 12.8064 6.67985L12.8532 6.28259C12.59 6.25162 12.2995 6.03167 12.0836 5.60901L11.7274 5.79093ZM11.4219 3.85454C11.3409 4.53987 11.4484 5.24483 11.7274 5.79096L12.0836 5.60898C11.8461 5.14401 11.7459 4.52084 11.8191 3.90149L11.4219 3.85454ZM20.1584 8.16453C20.026 7.34947 19.587 6.72904 18.9745 6.41025C18.3618 6.0913 17.6005 6.08742 16.8506 6.4554L17.0268 6.81449C17.6769 6.49551 18.3033 6.5118 18.7899 6.76507C19.2768 7.01851 19.6489 7.52237 19.7635 8.22864L20.1584 8.16453ZM18.1175 12.1144C19.5067 11.433 20.4065 9.69225 20.1584 8.16452L19.7635 8.22864C19.9834 9.58248 19.1724 11.1515 17.9414 11.7553L18.1175 12.1144ZM14.8099 10.4055C14.9437 11.2301 15.3874 11.8486 16.0021 12.1638C16.6164 12.4789 17.3764 12.478 18.1175 12.1144L17.9414 11.7553C17.2992 12.0703 16.6731 12.0584 16.1846 11.8079C15.6965 11.5576 15.3207 11.0562 15.2047 10.3414L14.8099 10.4055ZM16.8507 6.45539C15.4619 7.13665 14.5617 8.87763 14.8099 10.4055L15.2047 10.3414C14.9848 8.98741 15.7961 7.41824 17.0268 6.8145L16.8507 6.45539ZM17.5973 11.0538C17.1937 11.2518 16.823 11.2574 16.5403 11.1114L16.3568 11.4668C16.7797 11.6852 17.2874 11.6514 17.7734 11.413L17.5973 11.0538ZM18.9924 8.35384C19.0734 8.85259 18.9607 9.41405 18.7035 9.91282C18.4464 10.4116 18.0539 10.8299 17.5973 11.0539L17.7735 11.413C18.3216 11.1441 18.7706 10.6556 19.059 10.0961C19.3474 9.53674 19.4845 8.88878 19.3872 8.28972L18.9924 8.35384ZM17.3709 7.51583C17.787 7.31173 18.1546 7.3172 18.4276 7.45819C18.7006 7.59917 18.918 7.89576 18.9924 8.35384L19.3872 8.28972C19.2973 7.73592 19.0208 7.31432 18.6111 7.10278C18.2015 6.89126 17.6978 6.90992 17.1947 7.15671L17.3709 7.51583ZM15.9758 10.2162C15.8946 9.71645 16.0078 9.15478 16.2652 8.6561C16.5226 8.15744 16.9151 7.73946 17.3709 7.51582L17.1947 7.15672C16.6475 7.42523 16.1985 7.91331 15.9098 8.47262C15.6211 9.03192 15.4835 9.68015 15.5809 10.2803L15.9758 10.2162ZM16.5404 11.1114C16.2577 10.9654 16.0478 10.6597 15.9758 10.2162L15.5809 10.2803C15.6677 10.8145 15.9338 11.2482 16.3567 11.4668L16.5404 11.1114ZM16.2486 11.2891V11.2891H16.6486V11.2891H16.2486Z" mask="url(#path-1-outside-1)"/>
</svg>
