<svg width="20" height="20" viewBox="0 0 20 20" fill="none" xmlns="http://www.w3.org/2000/svg">
<path fill-rule="evenodd" clip-rule="evenodd" d="M0 10C0 4.48578 4.48578 0 10 0C15.5142 0 20 4.48578 20 10C20 15.5142 15.5142 20 10 20C4.48578 20 0 15.5142 0 10ZM13.6817 13.6817C14.0075 13.3558 14.0075 12.8292 13.6817 12.5033L11.1774 9.99915L13.6817 7.49503C14.0075 7.16911 14.0075 6.64252 13.6817 6.3166C13.3558 5.99082 12.8292 5.99082 12.5033 6.3166L9.99915 8.82087L7.49503 6.3166C7.16911 5.99082 6.64252 5.99082 6.3166 6.3166C5.99082 6.64252 5.99082 7.16911 6.3166 7.49503L8.82087 9.99915L6.3166 12.5033C5.99082 12.8292 5.99082 13.3558 6.3166 13.6817C6.4791 13.8442 6.69242 13.9258 6.90589 13.9258C7.11921 13.9258 7.33253 13.8442 7.49503 13.6817L9.99915 11.1774L12.5033 13.6817C12.6658 13.8442 12.8791 13.9258 13.0924 13.9258C13.3059 13.9258 13.5192 13.8442 13.6817 13.6817Z" />
</svg>
