<svg width="20" height="20" viewBox="0 0 20 20" fill="none" xmlns="http://www.w3.org/2000/svg">
<path fill-rule="evenodd" clip-rule="evenodd" d="M17.541 10.3467V3.021C17.541 2.621 17.385 2.24541 17.1018 1.96338C16.8196 1.68236 16.4456 1.52783 16.048 1.52783H16.0416C15.6995 1.52924 15.3654 1.64955 15.1008 1.86658L14.7988 2.11439C15.2244 2.92511 15.0968 3.9527 14.4161 4.63342L13.5322 5.51732C13.4224 5.62717 13.2733 5.68892 13.1179 5.68892C12.9625 5.68892 12.8134 5.6272 12.7036 5.51728L10.4939 3.30756C10.2651 3.07877 10.265 2.70776 10.4938 2.47893L11.3777 1.59502C12.0844 0.888436 13.1648 0.777877 13.9884 1.26341L14.3575 0.960605C14.8296 0.573223 15.426 0.358457 16.0368 0.355957H16.0481C16.7579 0.355957 17.4254 0.63166 17.9288 1.13307C18.4344 1.63658 18.7129 2.30705 18.7129 3.021V10.3467H19.4141C19.7377 10.3467 20 10.609 20 10.9326C20 11.2562 19.7377 11.5186 19.4141 11.5186H18.6142L18.1513 14.0645C17.7798 16.1079 16.2635 17.695 14.3359 18.2137V19.0576C14.3359 19.3812 14.0736 19.6436 13.75 19.6436C13.4264 19.6436 13.1641 19.3812 13.1641 19.0576V18.3908C13.0973 18.3933 13.0302 18.3946 12.9629 18.3946H7.03708C6.96977 18.3946 6.90271 18.3933 6.83594 18.3908V19.0576C6.83594 19.3812 6.57359 19.6436 6.25 19.6436C5.92641 19.6436 5.66406 19.3812 5.66406 19.0576V18.2137C3.7365 17.695 2.22024 16.1079 1.84872 14.0645L1.38582 11.5186H0.585938C0.262344 11.5186 0 11.2562 0 10.9326C0 10.609 0.262344 10.3467 0.585938 10.3467H17.541ZM3.00169 13.8548L2.57708 11.5196H17.4229L16.9984 13.8548C16.6436 15.8063 14.9464 17.2227 12.9629 17.2227H7.03708C5.0536 17.2227 3.35649 15.8063 3.00169 13.8548ZM11.7368 2.89326L13.1179 4.27436L13.5875 3.80479C13.9683 3.42401 13.9683 2.80447 13.5875 2.42369C13.2067 2.04291 12.5871 2.04291 12.2064 2.42369L11.7368 2.89326ZM7.71068 6.34645C7.82506 6.4609 7.97502 6.51809 8.12498 6.51809C8.27494 6.51809 8.4249 6.46087 8.53931 6.34645L8.85181 6.03395C9.08064 5.80512 9.08064 5.43414 8.85181 5.20531C8.62299 4.97648 8.25197 4.97648 8.02318 5.20531L7.71068 5.51781C7.48186 5.74664 7.48186 6.11762 7.71068 6.34645ZM10.625 6.8301C10.475 6.8301 10.3251 6.77292 10.2107 6.65846C9.98186 6.42963 9.98186 6.05866 10.2107 5.82983L10.5232 5.51732C10.752 5.2885 11.123 5.2885 11.3518 5.51732C11.5807 5.74615 11.5807 6.11713 11.3518 6.34596L11.0393 6.65846C10.9249 6.77288 10.7749 6.8301 10.625 6.8301ZM7.71068 8.84645C7.82506 8.9609 7.97502 9.01809 8.12498 9.01809C8.27494 9.01809 8.4249 8.96087 8.53931 8.84645L8.85181 8.53395C9.08064 8.30512 9.08064 7.93414 8.85181 7.70531C8.62299 7.47648 8.25197 7.47648 8.02318 7.70531L7.71068 8.01781C7.48186 8.24664 7.48186 8.61762 7.71068 8.84645Z"/>
</svg>
