<svg width="18" height="16" viewBox="0 0 18 16" fill="none" xmlns="http://www.w3.org/2000/svg">
<path d="M15.6963 7.12784V2.40732C15.6963 1.44743 14.899 0.666504 13.9189 0.666504H4.08237C3.10235 0.666504 2.30512 1.44743 2.30512 2.40732V7.12784C1.17587 7.39391 0.333984 8.3909 0.333984 9.57743V13.0984C0.333984 13.3777 0.565175 13.6041 0.850364 13.6041H2.30508V14.8274C2.30508 15.1067 2.53627 15.3332 2.82146 15.3332C3.10665 15.3332 3.33784 15.1067 3.33784 14.8274V13.6041H14.6635V14.8274C14.6635 15.1067 14.8947 15.3332 15.1798 15.3332C15.465 15.3332 15.6962 15.1067 15.6962 14.8274V13.6041H17.1509C17.4361 13.6041 17.6673 13.3777 17.6673 13.0984V9.57743C17.6674 8.3909 16.8255 7.39391 15.6963 7.12784ZM3.33788 2.40732C3.33788 2.00523 3.67188 1.67809 4.08237 1.67809H13.919C14.3295 1.67809 14.6635 2.00523 14.6635 2.40732V7.05761H12.9571V6.25967C12.9571 4.93762 11.8589 3.86207 10.5092 3.86207H7.49224C6.14247 3.86207 5.04437 4.93765 5.04437 6.25967V7.05757H3.33788V2.40732ZM11.9243 6.25967V7.05757H6.07706V6.25967C6.07706 5.49539 6.71186 4.87362 7.49217 4.87362H10.5092C11.2894 4.87359 11.9243 5.49542 11.9243 6.25967ZM1.36674 12.5926V9.57743C1.36674 8.74577 2.05754 8.06916 2.90664 8.06916H15.0947C15.9438 8.06916 16.6346 8.74577 16.6346 9.57743V12.5926H1.36674Z" fill="#45434E"/>
</svg>
