<svg width="20" height="16" viewBox="0 0 20 16" fill="none" xmlns="http://www.w3.org/2000/svg">
<path d="M18.1444 7.07787V2.62404C18.1444 1.64213 17.3455 0.843262 16.3636 0.843262H3.63641C2.65449 0.843262 1.85563 1.64213 1.85563 2.62404V7.07787C0.787031 7.37369 0 8.35416 0 9.51557V12.8997C0 13.2276 0.265859 13.4934 0.59375 13.4934H1.85563V14.5615C1.85563 14.8894 2.12148 15.1553 2.44937 15.1553C2.77727 15.1553 3.04312 14.8894 3.04312 14.5615V13.4934H16.9569V14.5615C16.9569 14.8894 17.2227 15.1553 17.5506 15.1553C17.8785 15.1553 18.1444 14.8894 18.1444 14.5615V13.4934H19.4062C19.7341 13.4934 20 13.2276 20 12.8997V9.51557C20 8.35416 19.2129 7.37369 18.1444 7.07787ZM3.04312 2.62404C3.04312 2.29693 3.3093 2.03076 3.63641 2.03076H16.3636C16.6907 2.03076 16.9569 2.29693 16.9569 2.62404V6.986H15.5657V5.79416C15.5657 4.75779 14.7226 3.91467 13.6862 3.91467H11.2858C10.7887 3.91467 10.3365 4.10893 10 4.42514C9.66359 4.10896 9.21133 3.91467 8.7143 3.91467H6.31387C5.2775 3.91467 4.43437 4.75783 4.43437 5.79416V6.986H3.04312V2.62404ZM14.3782 5.79416V6.986H10.5938V5.79416C10.5938 5.41256 10.9042 5.10217 11.2857 5.10217H13.6862C14.0678 5.10217 14.3782 5.4126 14.3782 5.79416ZM9.40621 5.79416V6.986H5.62176V5.79416C5.62176 5.41256 5.93223 5.10217 6.31375 5.10217H8.71418C9.09578 5.10217 9.40621 5.4126 9.40621 5.79416ZM18.8125 12.3059H1.1875V9.51557C1.1875 8.77557 1.78953 8.1735 2.52957 8.1735H17.4704C18.2104 8.1735 18.8125 8.77553 18.8125 9.51557V12.3059Z" fill="#45434E"/>
</svg>
