<svg width="16" height="20" viewBox="0 0 16 20" fill="none" xmlns="http://www.w3.org/2000/svg">
<path fill-rule="evenodd" clip-rule="evenodd" d="M3.87891 18.8281V16.875V15.2734H14.582V18.8281H3.87891ZM14.582 14.1016H3.87891V12.7734H14.582V14.1016ZM14.582 11.6016H3.87891V1.81641C3.87891 1.76681 3.87691 1.71767 3.87299 1.66906C3.85898 1.49534 3.82043 1.32846 3.76082 1.17188H13.9961C14.3192 1.17188 14.582 1.43473 14.582 1.75781V11.6016ZM2.70703 17.4609H0.832031C0.508437 17.4609 0.246094 17.1986 0.246094 16.875V1.81641C0.246094 0.82999 1.03648 0.0246871 2.01719 0.000556845C2.02574 0.000186889 2.03433 0 2.04297 0H2.0625H13.9961C14.9654 0 15.7539 0.788555 15.7539 1.75781V12.1875V14.6875V19.4141C15.7539 19.7377 15.4916 20 15.168 20H3.29297C2.96938 20 2.70703 19.7377 2.70703 19.4141V17.4609ZM2.0625 1.17188C1.70711 1.17188 1.41797 1.46102 1.41797 1.81641V16.2891H2.70703V14.6875V12.1875V1.81641C2.70703 1.46102 2.41789 1.17188 2.0625 1.17188Z"/>
</svg>
