<svg width="14" height="20" viewBox="0 0 14 20" fill="none" xmlns="http://www.w3.org/2000/svg">
<path fill-rule="evenodd" clip-rule="evenodd" d="M7.1172 3.49398C7.64294 3.58488 8.05368 4.02781 8.08723 4.57703L8.9911 19.3784C9.01165 19.7151 8.74391 20 8.40626 20H0.906263C0.568958 20 0.300873 19.7154 0.321419 19.3784L1.22525 4.57691C1.25884 4.0277 1.66962 3.5848 2.19532 3.49395V0.585938C2.19532 0.262344 2.45767 0 2.78126 0H6.53126C6.85485 0 7.1172 0.262344 7.1172 0.585938V3.49398ZM7.08927 7.46094H2.22271L1.684 16.2891H7.62841L7.08927 7.46094ZM2.39441 4.6484C2.39441 4.64842 2.39445 4.64845 2.39431 4.64848L2.29423 6.28906H7.0177L6.91751 4.64844C2.42313 4.64844 2.39444 4.64775 2.39441 4.6484ZM5.94532 1.17188H3.3672V3.47656H5.94532V1.17188ZM1.61251 17.4609L1.52907 18.8281H7.78348L7.70001 17.4609H1.61251ZM10.2819 0H11.9225C12.8917 0 13.6803 0.788555 13.6803 1.75781V5.70312C13.6803 6.67238 12.8917 7.46094 11.9225 7.46094H11.1322C12.2012 10.4004 12.7428 13.4737 12.7428 16.6111V19.4141C12.7428 19.7377 12.4805 20 12.1569 20C11.8333 20 11.5709 19.7377 11.5709 19.4141V16.6111C11.5709 13.3454 10.9577 10.1517 9.74824 7.11863C9.74153 7.10368 9.73562 7.09482 9.73041 7.08557C9.67934 6.99481 9.69594 6.86597 9.69594 0.585938C9.69594 0.262344 9.95828 0 10.2819 0ZM11.9225 6.28906C12.2456 6.28906 12.5084 6.02621 12.5084 5.70312V1.75781C12.5084 1.43473 12.2456 1.17188 11.9225 1.17188H10.8678V6.28906H11.9225Z" />
</svg>
