<svg width="20" height="20" viewBox="0 0 20 20" fill="none" xmlns="http://www.w3.org/2000/svg">
<path fill-rule="evenodd" clip-rule="evenodd" d="M3.21318 6.97798C2.91857 7.11309 2.571 6.98337 2.43631 6.6897C2.30139 6.39556 2.43045 6.04775 2.72459 5.91283L6.98448 3.95882L6.98182 3.953C6.4414 2.7791 6.95679 1.38439 8.13072 0.843963C9.30462 0.303537 10.6994 0.818963 11.2398 1.99286L11.2451 2.00446L15.4984 0.0535002C15.7926 -0.0814206 16.1403 0.0476409 16.2753 0.341779C16.4102 0.635918 16.2812 0.983727 15.987 1.11865L3.21318 6.97798ZM8.62076 1.90845C8.03381 2.17864 7.77612 2.87602 8.04631 3.46297L8.04963 3.47023L10.18 2.49305L10.1753 2.4829C9.90504 1.89595 9.20771 1.63825 8.62076 1.90845ZM1.7578 8.20312H18.242C19.2113 8.20312 19.9998 8.99167 19.9998 9.96089C19.9998 11.3757 18.9917 12.5594 17.6561 12.8316V17.0702C17.6561 18.6857 16.3419 19.9999 14.7264 19.9999H5.2734C3.65798 19.9999 2.34373 18.6857 2.34373 17.0702V12.8316C1.00812 12.5594 0 11.3757 0 9.96092C0 8.99167 0.788549 8.20312 1.7578 8.20312ZM1.7578 9.37499C1.43472 9.37499 1.17187 9.63784 1.17187 9.96092C1.17187 10.7247 1.66174 11.376 2.34373 11.6179V9.37499H1.7578ZM14.7264 18.828C15.6957 18.828 16.4842 18.0395 16.4842 17.0702V9.37499H3.5156V17.0702C3.5156 18.0395 4.30415 18.828 5.2734 18.828H14.7264ZM17.6561 9.37495V11.6179C18.3381 11.376 18.828 10.7247 18.828 9.96089C18.828 9.6378 18.5651 9.37495 18.242 9.37495H17.6561ZM16.2442 3.13037C16.2442 2.80678 15.9819 2.54443 15.6583 2.54443C15.5486 2.54443 14.5705 2.56088 14.001 3.13037C13.4315 3.69986 13.4151 4.67799 13.4151 4.78768C13.4151 4.99197 13.3439 5.44482 13.1724 5.61631C13.0101 5.77861 12.5806 5.85709 12.3438 5.859C12.0202 5.859 11.7578 6.12135 11.7578 6.44494C11.7578 6.76853 12.0202 7.03088 12.3438 7.03088C12.4534 7.03088 13.4316 7.01443 14.001 6.44494C14.5705 5.87545 14.587 4.89732 14.587 4.78994C14.5889 4.55076 14.6674 4.12131 14.8297 3.959C14.9919 3.79678 15.4211 3.7183 15.6603 3.71631C15.983 3.71521 16.2442 3.4533 16.2442 3.13037ZM17.5166 6.44494C16.9471 7.01443 15.969 7.03088 15.8593 7.03088C15.5357 7.03088 15.2734 6.76853 15.2734 6.44494C15.2734 6.12135 15.5358 5.859 15.8594 5.859C16.0963 5.85709 16.5257 5.77861 16.688 5.61631C16.8595 5.44482 16.9307 4.99197 16.9307 4.78768C16.9307 4.67799 16.9471 3.69986 17.5166 3.13037C18.0861 2.56088 19.0643 2.54443 19.1739 2.54443C19.4975 2.54443 19.7598 2.80678 19.7598 3.13037C19.7598 3.4533 19.4986 3.71521 19.1759 3.71631C18.9367 3.7183 18.5075 3.79678 18.3453 3.959C18.183 4.12131 18.1045 4.55076 18.1025 4.78994C18.1025 4.89732 18.0861 5.87545 17.5166 6.44494Z"/>
</svg>
