<svg width="20" height="20" viewBox="0 0 20 20" fill="none" xmlns="http://www.w3.org/2000/svg">
<path d="M4.80605 13.572L4.72103 13.6246C4.63429 13.4846 4.62636 13.3096 4.70017 13.1624M4.80605 13.572L4.70017 13.1624M4.80605 13.572L4.72103 13.6246C4.77804 13.7167 4.8629 13.778 4.95667 13.8114M4.80605 13.572L4.95667 13.8114M4.70017 13.1624L4.77234 13.0181M4.70017 13.1624L4.77234 13.0181M4.77234 13.0181C3.6716 12.786 2.7194 12.0481 2.03645 11.1003C1.32636 10.1148 0.9 8.89282 0.9 7.74999C0.9 5.21333 2.96334 3.15 5.5 3.15C5.5452 3.15 5.593 3.15316 5.63639 3.15603C5.63791 3.15613 5.63943 3.15623 5.64094 3.15633C6.61117 1.7931 8.20211 0.9 10 0.9C12.3973 0.9 14.4275 2.48579 15.1058 4.66195C15.1134 4.66095 15.1214 4.65994 15.1296 4.65892C15.1667 4.65432 15.208 4.64997 15.25 4.64997C17.3729 4.64997 19.1 6.3771 19.1 8.49997C19.1 9.4464 18.7485 10.4745 18.1696 11.3161C17.6169 12.1198 16.8493 12.7636 15.9678 12.9983L16.0499 13.1625L4.77234 13.0181ZM8.45022 13.5876L8.45012 13.5874C8.36992 13.4266 8.38699 13.2341 8.49512 13.0902L8.45022 13.5876ZM8.45022 13.5876C8.53087 13.7484 8.69503 13.85 8.87507 13.85H9.47554C9.42049 14.0861 9.32464 14.2558 9.21268 14.4519C9.01067 14.8055 8.775 15.2182 8.775 16C8.775 16.7817 9.01063 17.1944 9.21255 17.548L9.2126 17.5481L9.21261 17.5481M8.45022 13.5876L9.21261 17.5481M9.12263 12.2534C8.80446 12.1877 8.49821 12.0872 8.20476 11.9571C7.6082 12.504 6.93045 12.867 6.22712 13.0169L6.29986 13.1624L6.29992 13.1625L9.12263 12.2534ZM9.12263 12.2534L8.49518 13.0901L9.12263 12.2534ZM9.21261 17.5481C9.30044 17.7019 9.37708 17.8365 9.43312 18.0001C9.48868 18.1623 9.52499 18.3563 9.52499 18.625C9.52499 18.8875 9.73749 19.1 10 19.1C10.2625 19.1 10.475 18.8875 10.475 18.625C10.475 17.8433 10.2394 17.4306 10.0375 17.077L10.0374 17.0769L10.0374 17.0769M9.21261 17.5481L10.0374 17.0769M10.0374 17.0769C9.94957 16.9231 9.87293 16.7884 9.81689 16.6249C9.76133 16.4627 9.72502 16.2687 9.72502 16C9.72502 15.7313 9.76134 15.5372 9.8169 15.3751C9.87295 15.2115 9.94959 15.0769 10.0374 14.9231L10.0374 14.9231M10.0374 17.0769L10.0374 14.9231M10.0374 14.9231C10.1924 14.6516 10.362 14.3342 10.434 13.85H11.125C11.305 13.85 11.4692 13.7484 11.5498 13.5875L11.55 13.5873M10.0374 14.9231L11.55 13.5873M11.55 13.5873C11.6301 13.4265 11.6131 13.2341 11.505 13.0901L11.55 13.5873ZM15.254 14.6094L15.2539 14.6093C15.1074 14.4259 14.927 14.1963 14.8357 13.8484C14.6862 13.8359 14.5507 13.7533 14.4711 13.6246C14.3843 13.4846 14.3764 13.3096 14.4502 13.1624M15.254 14.6094L14.4502 13.1624M15.254 14.6094C15.3438 14.7215 15.4093 14.8041 15.4547 14.8981C15.4984 14.9887 15.525 15.0942 15.525 15.25C15.525 15.4058 15.4984 15.5113 15.4547 15.6019C15.4093 15.6959 15.3438 15.7785 15.254 15.8906L15.2539 15.8907M15.254 14.6094L15.2539 15.8907M14.4502 13.1624L14.5316 12.9996M14.4502 13.1624L14.5316 12.9996M14.5316 12.9996C13.7721 12.8031 13.0605 12.3059 12.5013 11.5793C12.0064 11.9018 11.4604 12.1339 10.8775 12.2535L11.5049 13.09L14.5316 12.9996ZM15.2539 15.8907L15.253 15.8919C15.0463 16.1506 14.775 16.4902 14.775 17.125C14.775 17.3875 14.9875 17.6 15.2501 17.6C15.5126 17.6 15.7251 17.3875 15.7251 17.125C15.7251 16.9691 15.7517 16.8637 15.7954 16.7731C15.8408 16.6791 15.9063 16.5965 15.9961 16.4844L15.9962 16.4843M15.2539 15.8907L15.9962 16.4843M15.9962 16.4843L15.9971 16.4831C16.2038 16.2244 16.4751 15.8848 16.4751 15.25C16.4751 14.6152 16.2038 14.2756 15.9971 14.0169L15.9962 14.0157L15.9961 14.0156M15.9962 16.4843L15.9961 14.0156M15.9961 14.0156C15.9291 13.932 15.8759 13.8622 15.8345 13.7921M15.9961 14.0156L15.8345 13.7921M4.95667 13.8114C4.90526 13.9652 4.82738 14.0901 4.7298 14.2365C4.53132 14.534 4.275 14.9188 4.275 15.625C4.275 16.3311 4.53133 16.716 4.72977 17.0135C4.81776 17.1455 4.88977 17.2541 4.94151 17.3833C4.99242 17.5105 5.02499 17.6616 5.02499 17.875C5.02499 18.1375 5.23749 18.35 5.5 18.35C5.76251 18.35 5.97501 18.1375 5.97501 17.875C5.97501 17.1688 5.71868 16.784 5.52024 16.4865L4.95667 13.8114ZM15.8345 13.7921C15.9107 13.7577 15.9801 13.7036 16.029 13.6247C16.1157 13.4846 16.1237 13.3097 16.0499 13.1626L15.8345 13.7921ZM5.52022 16.4865C5.43224 16.3545 5.36024 16.2458 5.3085 16.1166C5.25759 15.9894 5.22502 15.8384 5.22502 15.625C5.22502 15.4116 5.25759 15.2605 5.3085 15.1333C5.36024 15.0041 5.43225 14.8955 5.52024 14.7635C5.66776 14.5423 5.84387 14.2648 5.9254 13.8473L5.52022 16.4865ZM5.5 12.15C4.50251 12.15 3.59121 11.5582 2.92496 10.7029C2.25901 9.84799 1.84999 8.74417 1.84999 7.74999C1.84999 5.87853 3.27121 4.34571 5.09006 4.14003C4.80972 4.78779 4.64998 5.49972 4.64998 6.24998C4.64998 8.19742 5.69333 10.2965 7.316 11.4542C6.74456 11.9021 6.11767 12.15 5.5 12.15ZM10.175 12.9H9.825L10 12.6667L10.175 12.9ZM10 11.4C8.7719 11.4 7.67313 10.7159 6.87774 9.72297C6.08225 8.72988 5.6 7.43902 5.6 6.25001C5.6 3.82381 7.57379 1.85002 10 1.85002C12.4262 1.85002 14.4 3.82381 14.4 6.25001C14.4 7.43902 13.9178 8.72988 13.1223 9.72297C12.3269 10.7159 11.2281 11.4 10 11.4ZM15.25 12.15C14.539 12.15 13.8093 11.7294 13.2455 10.9903C14.5407 9.78726 15.35 7.96263 15.35 6.24998C15.35 6.02849 15.332 5.81238 15.3048 5.60047C16.8786 5.62978 18.15 6.9193 18.15 8.49994C18.15 9.31913 17.813 10.2359 17.2761 10.9477C16.7382 11.6608 16.0144 12.15 15.25 12.15Z" fill="#5B5A60" stroke="#5B5A60" stroke-width="0.2"/>
</svg>
