<svg width="20" height="14" viewBox="0 0 20 14" fill="none" xmlns="http://www.w3.org/2000/svg">
  <mask id="path-1-outside-1" maskUnits="userSpaceOnUse" x="0" y="0.166016" width="20" height="13" fill="black">
  <rect fill="white" y="0.166016" width="20" height="13"/>
  <path fill-rule="evenodd" clip-rule="evenodd" d="M11.5007 3.66602H17.334C18.2532 3.66602 19.0007 4.41344 19.0007 5.33266C19.0007 6.25187 18.2532 6.99934 17.334 6.99934H16.5007C16.0413 6.99934 15.6673 7.37328 15.6673 7.83266V8.24934C15.6673 8.47965 15.481 8.66602 15.2507 8.66602C15.0204 8.66602 14.834 8.47965 14.834 8.24934V7.83266C14.834 6.91344 15.5815 6.16598 16.5007 6.16598H17.334C17.7934 6.16598 18.1673 5.79203 18.1673 5.33266C18.1673 4.87328 17.7934 4.49934 17.334 4.49934H11.5007C10.5815 4.49934 9.83398 3.75191 9.83398 2.8327C9.83398 1.91348 10.5815 1.16602 11.5007 1.16602H16.9173C17.1477 1.16602 17.334 1.35238 17.334 1.5827C17.334 1.81301 17.1477 1.99938 16.9173 1.99938H11.5007C11.0413 1.99938 10.6673 2.37332 10.6673 2.8327C10.6673 3.29207 11.0413 3.66602 11.5007 3.66602ZM1.83332 9.5H17.6667C17.7773 9.5 17.8831 9.54395 17.9613 9.62207C18.0166 9.67699 18.5 10.1889 18.5 11.1663C18.5 12.1445 18.0166 12.6563 17.9613 12.7113C17.8832 12.7894 17.7773 12.8333 17.6667 12.8333H1.83336C1.72266 12.8333 1.61687 12.7894 1.53875 12.7113C1.4834 12.6563 1 12.1445 1 11.1663C1 10.1889 1.4834 9.67699 1.53871 9.62207C1.61684 9.54395 1.72266 9.5 1.83332 9.5ZM1.83332 11.1663C1.83332 11.5764 1.95379 11.8527 2.04207 12H4.89469C4.81563 11.7717 4.75 11.5078 4.75 11.1663C4.75 10.8251 4.81555 10.5614 4.89461 10.3333H2.04125C1.95457 10.479 1.83332 10.7557 1.83332 11.1663ZM5.58332 11.1663C5.58332 11.5884 5.70805 11.8561 5.79676 12H16.5613C16.4823 11.7717 16.4166 11.5078 16.4166 11.1663C16.4166 10.8251 16.4822 10.5614 16.5613 10.3333H5.79602C5.70875 10.4753 5.58332 10.7433 5.58332 11.1663Z"/>
  </mask>
  <path fill-rule="evenodd" clip-rule="evenodd" d="M11.5007 3.66602H17.334C18.2532 3.66602 19.0007 4.41344 19.0007 5.33266C19.0007 6.25187 18.2532 6.99934 17.334 6.99934H16.5007C16.0413 6.99934 15.6673 7.37328 15.6673 7.83266V8.24934C15.6673 8.47965 15.481 8.66602 15.2507 8.66602C15.0204 8.66602 14.834 8.47965 14.834 8.24934V7.83266C14.834 6.91344 15.5815 6.16598 16.5007 6.16598H17.334C17.7934 6.16598 18.1673 5.79203 18.1673 5.33266C18.1673 4.87328 17.7934 4.49934 17.334 4.49934H11.5007C10.5815 4.49934 9.83398 3.75191 9.83398 2.8327C9.83398 1.91348 10.5815 1.16602 11.5007 1.16602H16.9173C17.1477 1.16602 17.334 1.35238 17.334 1.5827C17.334 1.81301 17.1477 1.99938 16.9173 1.99938H11.5007C11.0413 1.99938 10.6673 2.37332 10.6673 2.8327C10.6673 3.29207 11.0413 3.66602 11.5007 3.66602ZM1.83332 9.5H17.6667C17.7773 9.5 17.8831 9.54395 17.9613 9.62207C18.0166 9.67699 18.5 10.1889 18.5 11.1663C18.5 12.1445 18.0166 12.6563 17.9613 12.7113C17.8832 12.7894 17.7773 12.8333 17.6667 12.8333H1.83336C1.72266 12.8333 1.61687 12.7894 1.53875 12.7113C1.4834 12.6563 1 12.1445 1 11.1663C1 10.1889 1.4834 9.67699 1.53871 9.62207C1.61684 9.54395 1.72266 9.5 1.83332 9.5ZM1.83332 11.1663C1.83332 11.5764 1.95379 11.8527 2.04207 12H4.89469C4.81563 11.7717 4.75 11.5078 4.75 11.1663C4.75 10.8251 4.81555 10.5614 4.89461 10.3333H2.04125C1.95457 10.479 1.83332 10.7557 1.83332 11.1663ZM5.58332 11.1663C5.58332 11.5884 5.70805 11.8561 5.79676 12H16.5613C16.4823 11.7717 16.4166 11.5078 16.4166 11.1663C16.4166 10.8251 16.4822 10.5614 16.5613 10.3333H5.79602C5.70875 10.4753 5.58332 10.7433 5.58332 11.1663Z" fill="#5B5A60"/>
  <path d="M17.9613 9.62207L17.8199 9.76353L17.8204 9.76404L17.9613 9.62207ZM17.9613 12.7113L17.8204 12.5693L17.8199 12.5698L17.9613 12.7113ZM1.53875 12.7113L1.68017 12.5698L1.67962 12.5693L1.53875 12.7113ZM1.53871 9.62207L1.67963 9.76399L1.68013 9.76349L1.53871 9.62207ZM2.04207 12L1.87052 12.1028L1.92877 12.2H2.04207V12ZM4.89469 12V12.2H5.17561L5.08367 11.9345L4.89469 12ZM4.89461 10.3333L5.08358 10.3988L5.17561 10.1333H4.89461V10.3333ZM2.04125 10.3333V10.1333H1.92753L1.86938 10.231L2.04125 10.3333ZM5.79676 12L5.62649 12.1049L5.68508 12.2H5.79676V12ZM16.5613 12V12.2H16.8423L16.7503 11.9345L16.5613 12ZM16.5613 10.3333L16.7502 10.3988L16.8422 10.1333H16.5613V10.3333ZM5.79602 10.3333V10.1333H5.68418L5.62562 10.2286L5.79602 10.3333ZM17.334 3.46602H11.5007V3.86602H17.334V3.46602ZM19.2007 5.33266C19.2007 4.30297 18.3637 3.46602 17.334 3.46602V3.86602C18.1428 3.86602 18.8007 4.5239 18.8007 5.33266H19.2007ZM17.334 7.19934C18.3637 7.19934 19.2007 6.36233 19.2007 5.33266H18.8007C18.8007 6.14142 18.1427 6.79934 17.334 6.79934V7.19934ZM16.5007 7.19934H17.334V6.79934H16.5007V7.19934ZM15.8673 7.83266C15.8673 7.48374 16.1517 7.19934 16.5007 7.19934V6.79934C15.9308 6.79934 15.4673 7.26283 15.4673 7.83266H15.8673ZM15.8673 8.24934V7.83266H15.4673V8.24934H15.8673ZM15.2507 8.86602C15.5914 8.86602 15.8673 8.59011 15.8673 8.24934H15.4673C15.4673 8.36919 15.3705 8.46602 15.2507 8.46602V8.86602ZM14.634 8.24934C14.634 8.59011 14.9099 8.86602 15.2507 8.86602V8.46602C15.1308 8.46602 15.034 8.36919 15.034 8.24934H14.634ZM14.634 7.83266V8.24934H15.034V7.83266H14.634ZM16.5007 5.96598C15.471 5.96598 14.634 6.80298 14.634 7.83266H15.034C15.034 7.0239 15.6919 6.36598 16.5007 6.36598V5.96598ZM17.334 5.96598H16.5007V6.36598H17.334V5.96598ZM17.9673 5.33266C17.9673 5.68157 17.6829 5.96598 17.334 5.96598V6.36598C17.9038 6.36598 18.3673 5.90249 18.3673 5.33266H17.9673ZM17.334 4.69934C17.6829 4.69934 17.9673 4.98374 17.9673 5.33266H18.3673C18.3673 4.76282 17.9038 4.29934 17.334 4.29934V4.69934ZM11.5007 4.69934H17.334V4.29934H11.5007V4.69934ZM9.63398 2.8327C9.63398 3.86238 10.471 4.69934 11.5007 4.69934V4.29934C10.6919 4.29934 10.034 3.64145 10.034 2.8327H9.63398ZM11.5007 0.966016C10.471 0.966016 9.63398 1.80302 9.63398 2.8327H10.034C10.034 2.02394 10.6919 1.36602 11.5007 1.36602V0.966016ZM16.9173 0.966016H11.5007V1.36602H16.9173V0.966016ZM17.534 1.5827C17.534 1.24193 17.2581 0.966016 16.9173 0.966016V1.36602C17.0372 1.36602 17.134 1.46284 17.134 1.5827H17.534ZM16.9173 2.19938C17.2581 2.19938 17.534 1.92346 17.534 1.5827H17.134C17.134 1.70255 17.0372 1.79938 16.9173 1.79938V2.19938ZM11.5007 2.19938H16.9173V1.79938H11.5007V2.19938ZM10.8673 2.8327C10.8673 2.48378 11.1517 2.19938 11.5007 2.19938V1.79938C10.9308 1.79938 10.4673 2.26286 10.4673 2.8327H10.8673ZM11.5007 3.46602C11.1517 3.46602 10.8673 3.18161 10.8673 2.8327H10.4673C10.4673 3.40253 10.9308 3.86602 11.5007 3.86602V3.46602ZM17.6667 9.3H1.83332V9.7H17.6667V9.3ZM18.1027 9.48061C17.9871 9.3651 17.8305 9.3 17.6667 9.3V9.7C17.7242 9.7 17.7791 9.72279 17.8199 9.76353L18.1027 9.48061ZM18.7 11.1663C18.7 10.1178 18.1806 9.55792 18.1022 9.4801L17.8204 9.76404C17.8527 9.79606 18.3 10.2599 18.3 11.1663H18.7ZM18.1022 12.8532C18.1806 12.7754 18.7 12.2154 18.7 11.1663H18.3C18.3 12.0735 17.8527 12.5373 17.8204 12.5693L18.1022 12.8532ZM17.6667 13.0333C17.8305 13.0333 17.9871 12.9682 18.1027 12.8527L17.8199 12.5698C17.7792 12.6105 17.7242 12.6333 17.6667 12.6333V13.0333ZM1.83336 13.0333H17.6667V12.6333H1.83336V13.0333ZM1.39733 12.8527C1.51289 12.9682 1.66951 13.0333 1.83336 13.0333V12.6333C1.7758 12.6333 1.72086 12.6105 1.68017 12.5698L1.39733 12.8527ZM0.8 11.1663C0.8 12.2154 1.31941 12.7754 1.39788 12.8532L1.67962 12.5693C1.64739 12.5373 1.2 12.0735 1.2 11.1663H0.8ZM1.39779 9.48015C1.31946 9.55793 0.8 10.1178 0.8 11.1663H1.2C1.2 10.2599 1.64733 9.79606 1.67963 9.76399L1.39779 9.48015ZM1.83332 9.3C1.66952 9.3 1.51286 9.36508 1.39729 9.48065L1.68013 9.76349C1.72082 9.72281 1.77579 9.7 1.83332 9.7V9.3ZM2.21362 11.8972C2.14126 11.7764 2.03332 11.5353 2.03332 11.1663H1.63332C1.63332 11.6175 1.76632 11.9289 1.87052 12.1028L2.21362 11.8972ZM4.89469 11.8H2.04207V12.2H4.89469V11.8ZM4.55 11.1663C4.55 11.5358 4.62148 11.8223 4.7057 12.0655L5.08367 11.9345C5.00977 11.7212 4.95 11.4798 4.95 11.1663H4.55ZM4.70564 10.2678C4.6214 10.5108 4.55 10.7971 4.55 11.1663H4.95C4.95 10.8531 5.00969 10.612 5.08358 10.3988L4.70564 10.2678ZM2.04125 10.5333H4.89461V10.1333H2.04125V10.5333ZM2.03332 11.1663C2.03332 10.797 2.14192 10.5552 2.21312 10.4356L1.86938 10.231C1.76722 10.4027 1.63332 10.7144 1.63332 11.1663H2.03332ZM5.96702 11.8951C5.89447 11.7773 5.78332 11.5455 5.78332 11.1663H5.38332C5.38332 11.6312 5.52162 11.9348 5.62649 12.1049L5.96702 11.8951ZM16.5613 11.8H5.79676V12.2H16.5613V11.8ZM16.2166 11.1663C16.2166 11.5358 16.2881 11.8223 16.3723 12.0655L16.7503 11.9345C16.6764 11.7212 16.6166 11.4798 16.6166 11.1663H16.2166ZM16.3723 10.2678C16.2881 10.5108 16.2166 10.7971 16.2166 11.1663H16.6166C16.6166 10.8531 16.6764 10.612 16.7502 10.3988L16.3723 10.2678ZM5.79602 10.5333H16.5613V10.1333H5.79602V10.5333ZM5.78332 11.1663C5.78332 10.7863 5.89512 10.554 5.96641 10.438L5.62562 10.2286C5.52238 10.3966 5.38332 10.7004 5.38332 11.1663H5.78332Z" fill="#5B5A60" mask="url(#path-1-outside-1)"/>
</svg>
