<svg width="20" height="20" viewBox="0 0 20 20" fill="none" xmlns="http://www.w3.org/2000/svg">
<path fill-rule="evenodd" clip-rule="evenodd" d="M0 10C0 4.48578 4.48578 0 10 0C15.5142 0 20 4.48578 20 10C20 15.5142 15.5142 20 10 20C4.48578 20 0 15.5142 0 10ZM9.6525 13.2973L15.0692 7.88074C15.395 7.55481 15.395 7.02823 15.0692 6.70245C14.7433 6.37653 14.2167 6.37653 13.8909 6.70245L9.06335 11.5299L6.94421 9.41074C6.61829 9.08481 6.09171 9.08481 5.76593 9.41074C5.44 9.73651 5.44 10.2632 5.76593 10.589L8.47421 13.2973C8.63672 13.4598 8.85004 13.5416 9.06335 13.5416C9.27667 13.5416 9.48999 13.4598 9.6525 13.2973Z" />
</svg>
