<svg width="10" height="10" viewBox="0 0 10 10" fill="none" xmlns="http://www.w3.org/2000/svg">
<path fill-rule="evenodd" clip-rule="evenodd" d="M5 0C2.23627 0 0 2.23646 0 5C0 7.76373 2.23646 10 5 10C7.76373 10 10 7.76354 10 5C10 2.23627 7.76352 0 5 0ZM5 9.21875C2.66811 9.21875 0.78125 7.33174 0.78125 5C0.78125 2.66811 2.66826 0.78125 5 0.78125C7.33189 0.78125 9.21875 2.66826 9.21875 5C9.21875 7.33189 7.33172 9.21875 5 9.21875ZM5 4.18604C4.78426 4.18604 4.60938 4.36092 4.60938 4.57666V7.09216C4.60938 7.3079 4.78426 7.48279 5 7.48279C5.21574 7.48279 5.39062 7.30789 5.39062 7.09214V4.57666C5.39062 4.36092 5.21574 4.18604 5 4.18604ZM5.52734 3.18066C5.52734 3.47191 5.29124 3.70801 5 3.70801C4.70876 3.70801 4.47266 3.47191 4.47266 3.18066C4.47266 2.88942 4.70876 2.65332 5 2.65332C5.29124 2.65332 5.52734 2.88942 5.52734 3.18066Z" />
</svg>
