<svg width="18" height="20" viewBox="0 0 18 20" fill="none" xmlns="http://www.w3.org/2000/svg">
<path fill-rule="evenodd" clip-rule="evenodd" d="M0.601562 18.2422C0.601562 19.2114 1.39012 20 2.35938 20H15.6406C16.6099 20 17.3984 19.2114 17.3984 18.2422V4.99963V1.75781C17.3984 0.788594 16.6099 0 15.6406 0H5.5625H2.35938C1.39012 0 0.601562 0.788555 0.601562 1.75781V4.99963V18.2422ZM15.6406 1.17188H6.14844V4.41369H16.2266V1.75781C16.2266 1.43473 15.9637 1.17188 15.6406 1.17188ZM2.35938 1.17188H4.97656V4.41369H1.77344V1.75781C1.77344 1.43473 2.03629 1.17188 2.35938 1.17188ZM1.77344 5.58556H5.5414C5.5484 5.58581 5.55544 5.58594 5.5625 5.58594C5.56956 5.58594 5.5766 5.58581 5.5836 5.58556H16.2266V18.2422C16.2266 18.5653 15.9637 18.8281 15.6406 18.8281H2.35938C2.03629 18.8281 1.77344 18.5653 1.77344 18.2422V5.58556ZM13.6875 3.39844H14.3125C14.6361 3.39844 14.8984 3.13609 14.8984 2.8125C14.8984 2.48891 14.6361 2.22656 14.3125 2.22656H13.6875C13.3639 2.22656 13.1016 2.48891 13.1016 2.8125C13.1016 3.13609 13.3639 3.39844 13.6875 3.39844ZM11.1875 3.39844H10.5625C10.2389 3.39844 9.97656 3.13609 9.97656 2.8125C9.97656 2.48891 10.2389 2.22656 10.5625 2.22656H11.1875C11.5111 2.22656 11.7734 2.48891 11.7734 2.8125C11.7734 3.13609 11.5111 3.39844 11.1875 3.39844ZM3.72656 12.1875C3.72656 15.0953 6.09223 17.4609 9 17.4609C11.9078 17.4609 14.2734 15.0953 14.2734 12.1875C14.2734 9.27977 11.9078 6.91406 9 6.91406C6.09223 6.91406 3.72656 9.27977 3.72656 12.1875ZM4.89844 12.1875C4.89844 9.92594 6.7384 8.08594 9 8.08594C11.2616 8.08594 13.1016 9.9259 13.1016 12.1875C13.1016 14.4491 11.2616 16.2891 9 16.2891C6.7384 16.2891 4.89844 14.4491 4.89844 12.1875Z" />
</svg>
