<svg width="20" height="20" viewBox="0 0 20 20" fill="none" xmlns="http://www.w3.org/2000/svg">
<path fill-rule="evenodd" clip-rule="evenodd" d="M18.2422 0H1.75781C0.788555 0 0 0.788555 0 1.75781V18.2422C0 19.2114 0.788555 20 1.75781 20H18.2422C19.2114 20 20 19.2114 20 18.2422V1.75781C20 0.788555 19.2114 0 18.2422 0ZM18.8281 18.2422C18.8281 18.5653 18.5653 18.8281 18.2422 18.8281H1.75781C1.43473 18.8281 1.17188 18.5653 1.17188 18.2422V1.75781C1.17188 1.43473 1.43473 1.17188 1.75781 1.17188H18.2422C18.5653 1.17188 18.8281 1.43473 18.8281 1.75781V18.2422ZM2.96875 3.51562C3.29235 3.51562 3.55469 3.25329 3.55469 2.92969C3.55469 2.60608 3.29235 2.34375 2.96875 2.34375C2.64515 2.34375 2.38281 2.60608 2.38281 2.92969C2.38281 3.25329 2.64515 3.51562 2.96875 3.51562ZM5.3125 3.51562C5.6361 3.51562 5.89844 3.25329 5.89844 2.92969C5.89844 2.60608 5.6361 2.34375 5.3125 2.34375C4.9889 2.34375 4.72656 2.60608 4.72656 2.92969C4.72656 3.25329 4.9889 3.51562 5.3125 3.51562ZM8.24219 2.92969C8.24219 3.25329 7.97985 3.51562 7.65625 3.51562C7.33265 3.51562 7.07031 3.25329 7.07031 2.92969C7.07031 2.60608 7.33265 2.34375 7.65625 2.34375C7.97985 2.34375 8.24219 2.60608 8.24219 2.92969ZM2.96875 4.6875H17.0312C17.3548 4.6875 17.6172 4.94984 17.6172 5.27344V17.0312C17.6172 17.3548 17.3548 17.6172 17.0312 17.6172H2.96875C2.64516 17.6172 2.38281 17.3548 2.38281 17.0312V5.27344C2.38281 4.94984 2.64516 4.6875 2.96875 4.6875ZM6.48438 14.6875C6.48438 15.6568 7.27293 16.4453 8.24219 16.4453C9.21144 16.4453 10 15.6568 10 14.6875C10 13.7182 9.21144 12.9297 8.24219 12.9297C7.27293 12.9297 6.48438 13.7182 6.48438 14.6875ZM10.7803 16.1479C11.067 16.3397 11.4066 16.4453 11.7578 16.4453C12.7271 16.4453 13.5156 15.6568 13.5156 14.6875C13.5156 13.7182 12.7271 12.9297 11.7578 12.9297C11.4066 12.9297 11.067 13.0353 10.7803 13.2271C11.0288 13.6574 11.1719 14.1559 11.1719 14.6875C11.1719 15.2191 11.0288 15.7176 10.7803 16.1479ZM14.1 16.4453H16.4453V5.85938H3.55469V16.4453H5.90004C5.53137 15.9553 5.3125 15.3465 5.3125 14.6875C5.3125 13.0721 6.62676 11.7578 8.24219 11.7578C8.90102 11.7578 9.50961 11.9765 9.99953 12.345C10.5028 11.9675 11.1188 11.7578 11.7578 11.7578C13.3732 11.7578 14.6875 13.0721 14.6875 14.6875C14.6875 15.3465 14.4686 15.9553 14.1 16.4453ZM10 7.03125C9.67641 7.03125 9.41406 7.29359 9.41406 7.61719V8.78906C9.41406 9.11266 9.67641 9.375 10 9.375C10.3236 9.375 10.5859 9.11266 10.5859 8.78906V7.61719C10.5859 7.29359 10.3236 7.03125 10 7.03125ZM7.24193 7.20238C7.47076 6.97355 7.84178 6.97355 8.07056 7.20238C8.29939 7.43121 8.29939 7.80219 8.07056 8.03102L6.89869 9.20289C6.6699 9.43176 6.29885 9.43172 6.07006 9.20289C5.84123 8.97407 5.84123 8.60309 6.07006 8.37426L7.24193 7.20238ZM13.9299 8.37426L12.7581 7.20238C12.5293 6.97355 12.1583 6.97355 11.9294 7.20238C11.7006 7.43121 11.7006 7.80219 11.9294 8.03102L13.1013 9.20289C13.3301 9.43172 13.7011 9.43176 13.9299 9.20289C14.1588 8.97407 14.1588 8.60309 13.9299 8.37426ZM14.6875 2.34375H17.0312C17.3548 2.34375 17.6172 2.60609 17.6172 2.92969C17.6172 3.25328 17.3548 3.51562 17.0312 3.51562H14.6875C14.3639 3.51562 14.1016 3.25328 14.1016 2.92969C14.1016 2.60609 14.3639 2.34375 14.6875 2.34375Z" />
</svg>
