<svg width="20" height="21" viewBox="0 0 20 21" fill="none" xmlns="http://www.w3.org/2000/svg">
<path d="M17.3324 0H2.66753C1.19667 0 0 1.19663 0 2.66753V18.0773C0 19.5482 1.19663 20.7448 2.66753 20.7448H17.3325C18.8033 20.7448 20 19.5482 20 18.0773V2.66753C20 1.19663 18.8033 0 17.3324 0ZM7.39993 10.7642C7.73327 11.1246 7.91689 11.5934 7.91689 12.0844V12.5673H4.32752V12.0844C4.32752 11.5935 4.5111 11.1246 4.84448 10.7642C5.38672 10.178 5.68533 9.41546 5.68533 8.61695V6.15233H6.55908V8.61695C6.55908 9.4155 6.85769 10.178 7.39993 10.7642ZM7.91689 13.7854V16.4206H4.32752V13.7854H7.91689ZM7.91693 19.5268H4.32756V17.6385H7.91693V19.5268ZM15.6724 19.5268H12.0831V17.6385H15.6724V19.5268ZM15.1554 10.7642C15.4888 11.1246 15.6724 11.5935 15.6724 12.0844V12.5673H12.0831V12.0844C12.0831 11.5934 12.2667 11.1246 12.6001 10.7642C13.1423 10.178 13.4409 9.41542 13.4409 8.61695V6.15233H14.3146V8.61695C14.3147 9.4155 14.6133 10.178 15.1554 10.7642ZM15.6724 13.7854V16.4206H12.0831V13.7854H15.6724ZM18.782 18.0773C18.782 18.8766 18.1318 19.5268 17.3324 19.5268H16.8904V12.0844C16.8904 11.2859 16.5918 10.5234 16.0495 9.9372C15.7162 9.5768 15.5326 9.10793 15.5326 8.61699V5.5434C15.5326 5.20706 15.2599 4.93442 14.9236 4.93442H12.8319C12.4955 4.93442 12.2229 5.20706 12.2229 5.5434V8.61699C12.2229 9.10793 12.0393 9.5768 11.7059 9.9372C11.1637 10.5234 10.8651 11.2859 10.8651 12.0844V19.5268H9.13484V12.0844C9.13484 11.2859 8.83623 10.5233 8.29403 9.9372C7.96065 9.5768 7.77707 9.10793 7.77707 8.61699V5.5434C7.77707 5.20706 7.50439 4.93442 7.16809 4.93442H5.07635C4.74002 4.93442 4.46738 5.20706 4.46738 5.5434V8.61699C4.46738 9.10793 4.2838 9.5768 3.95042 9.9372C3.40822 10.5234 3.10957 11.2859 3.10957 12.0844V19.5268H2.66753C1.86821 19.5268 1.21795 18.8765 1.21795 18.0772V2.66753C1.21799 1.86825 1.86825 1.21795 2.66753 1.21795H17.3325C18.1318 1.21795 18.7821 1.86821 18.7821 2.66753V18.0773H18.782Z" />
</svg>
