<svg width="20" height="18" viewBox="0 0 20 18" fill="none" xmlns="http://www.w3.org/2000/svg">
<path fill-rule="evenodd" clip-rule="evenodd" d="M0.740386 15.7152C0.701561 15.7226 0.662165 15.7263 0.622778 15.7263C0.463243 15.7263 0.303709 15.6657 0.182499 15.5436C-0.0114708 15.3497 -0.0508194 15.0596 0.0644531 14.8266V2.99245C0.0644531 2.72995 0.229615 2.49499 0.477206 2.40617C6.81693 0.13284 13.2456 0.13284 19.5853 2.40617C19.8329 2.49499 19.9982 2.72995 19.9982 2.99245V13.3309C20.0003 13.36 20.0003 13.3892 19.9982 13.4183V15.0359C19.9982 15.2982 19.8329 15.5333 19.5853 15.6221C16.4159 16.7593 13.224 17.3273 10.0313 17.3273C6.92688 17.3273 3.82328 16.7894 0.740386 15.7152ZM18.7524 13.6315V14.5939C13.1382 16.5147 7.45591 16.573 1.83772 14.7688L5.73077 10.8758C5.83617 10.7711 5.92346 10.7704 6.02886 10.8758L7.51562 12.3625C7.75895 12.6058 8.1536 12.6058 8.39693 12.3625L12.7906 7.96794C12.8961 7.8633 12.9833 7.86254 13.0888 7.96794L18.7524 13.6315ZM18.7524 11.869L13.97 7.08677C13.4219 6.53775 12.4585 6.53851 11.9102 7.08677L7.95665 11.0403L6.91017 9.99459C6.36192 9.44557 5.39847 9.44633 4.85037 9.99459L1.31032 13.5345V3.4344C7.10011 1.45337 12.9624 1.45337 18.7524 3.4344V11.869ZM4.21964 8.18372C3.30349 8.18372 2.55859 7.43867 2.55859 6.52253C2.55859 5.60638 3.30349 4.86133 4.21964 4.86133C5.13579 4.86133 5.88084 5.60638 5.88084 6.52253C5.88084 7.43867 5.13579 8.18372 4.21964 8.18372ZM4.21964 6.10719C3.99121 6.10719 3.80445 6.29334 3.80445 6.52253C3.80445 6.75171 3.99121 6.93786 4.21964 6.93786C4.44807 6.93786 4.63498 6.75171 4.63498 6.52253C4.63498 6.29334 4.44807 6.10719 4.21964 6.10719Z"/>
</svg>
