<svg width="20" height="20" viewBox="0 0 20 20" fill="none" xmlns="http://www.w3.org/2000/svg">
<path fill-rule="evenodd" clip-rule="evenodd" d="M16.7753 0H3.22473C1.4466 0 0 1.4466 0 3.22473V16.7753C0 18.5534 1.4466 20 3.22473 20H16.7753C18.5534 20 20 18.5534 20 16.7753V3.22473C20 1.4466 18.5534 0 16.7753 0ZM18.8189 16.7753C18.8189 17.9021 17.9021 18.8189 16.7753 18.8189H3.22473C2.09789 18.8189 1.18109 17.9021 1.18109 16.7753V3.22473C1.18109 2.09789 2.09785 1.18109 3.22473 1.18109H16.7753C17.9021 1.18109 18.8189 2.09785 18.8189 3.22473V16.7753ZM10.4123 3.28906H7.58765C6.50222 3.28906 5.61914 4.17215 5.61914 5.25758V16.1232C5.61914 16.4493 5.88355 16.7137 6.20969 16.7137H8.96558C9.29171 16.7137 9.55613 16.4493 9.55613 16.1232V12.7967H10.4123C13.0335 12.7967 15.166 10.6641 15.166 8.04285C15.166 5.4216 13.0335 3.28906 10.4123 3.28906ZM10.4123 11.6155H8.96562C8.63949 11.6155 8.37507 11.88 8.37507 12.2061V15.5326H6.80027V5.25754C6.80027 4.82336 7.15351 4.47016 7.58765 4.47016H10.4123C12.3823 4.47016 13.985 6.07285 13.985 8.04285C13.985 10.0129 12.3823 11.6155 10.4123 11.6155ZM8.96673 6.04472H10.4134C11.515 6.04472 12.4113 6.94097 12.4113 8.04261C12.4113 9.14425 11.515 10.0405 10.4134 10.0405H8.96673C8.6406 10.0405 8.37618 9.77609 8.37618 9.44995V6.63527C8.37618 6.30913 8.6406 6.04472 8.96673 6.04472ZM9.55728 8.85941H10.4134C10.8638 8.85941 11.2302 8.49296 11.2302 8.04261C11.2302 7.59222 10.8638 7.22581 10.4134 7.22581H9.55728V8.85941Z" fill="#5B5A60"/>
</svg>
