<svg width="20" height="14" viewBox="0 0 20 14" fill="none" xmlns="http://www.w3.org/2000/svg">
<path fill-rule="evenodd" clip-rule="evenodd" d="M15.0391 12.5859H4.96094V13.25C4.96094 13.5736 4.69859 13.8359 4.375 13.8359C4.05141 13.8359 3.78906 13.5736 3.78906 13.25V12.5859H1.75781C0.788555 12.5859 0 11.7974 0 10.8281V1.92188C0 0.952617 0.788555 0.164062 1.75781 0.164062H18.2422C19.2114 0.164062 20 0.952656 20 1.92188V10.8281C20 11.7974 19.2114 12.5859 18.2422 12.5859H16.2109V13.25C16.2109 13.5736 15.9486 13.8359 15.625 13.8359C15.3014 13.8359 15.0391 13.5736 15.0391 13.25V12.5859ZM15.625 11.4141H18.2422C18.5653 11.4141 18.8281 11.1512 18.8281 10.8281V1.92188C18.8281 1.59879 18.5653 1.33594 18.2422 1.33594H1.75781C1.43473 1.33594 1.17188 1.59879 1.17188 1.92188V10.8281C1.17188 11.1512 1.43473 11.4141 1.75781 11.4141H4.375H15.625ZM5.9375 9.46057C4.2359 9.46057 2.85156 8.07627 2.85156 6.37463C2.85156 4.67303 4.2359 3.28869 5.9375 3.28869C7.6391 3.28869 9.02344 4.67303 9.02344 6.37463C9.02344 8.07623 7.6391 9.46057 5.9375 9.46057ZM5.9375 4.46056C4.88207 4.46056 4.02344 5.3192 4.02344 6.37463C4.02344 7.4301 4.88207 8.28869 5.9375 8.28869C6.99293 8.28869 7.85156 7.4301 7.85156 6.37463C7.85156 5.3192 6.99293 4.46056 5.9375 4.46056ZM11.8361 3.87454C11.8361 4.19819 11.5737 4.46056 11.2501 4.46056C10.9264 4.46056 10.6641 4.19819 10.6641 3.87454C10.6641 3.55089 10.9264 3.28852 11.2501 3.28852C11.5737 3.28852 11.8361 3.55089 11.8361 3.87454ZM13.7499 4.46056C14.0735 4.46056 14.3359 4.19819 14.3359 3.87454C14.3359 3.55089 14.0735 3.28852 13.7499 3.28852C13.4263 3.28852 13.1639 3.55089 13.1639 3.87454C13.1639 4.19819 13.4263 4.46056 13.7499 4.46056ZM16.8358 3.87454C16.8358 4.19819 16.5735 4.46056 16.2498 4.46056C15.9262 4.46056 15.6638 4.19819 15.6638 3.87454C15.6638 3.55089 15.9262 3.28852 16.2498 3.28852C16.5735 3.28852 16.8358 3.55089 16.8358 3.87454ZM11.2501 6.961C11.5737 6.961 11.8361 6.69863 11.8361 6.37499C11.8361 6.05134 11.5737 5.78897 11.2501 5.78897C10.9264 5.78897 10.6641 6.05134 10.6641 6.37499C10.6641 6.69863 10.9264 6.961 11.2501 6.961ZM14.3359 6.37499C14.3359 6.69863 14.0735 6.961 13.7499 6.961C13.4263 6.961 13.1639 6.69863 13.1639 6.37499C13.1639 6.05134 13.4263 5.78897 13.7499 5.78897C14.0735 5.78897 14.3359 6.05134 14.3359 6.37499ZM16.2498 6.961C16.5735 6.961 16.8358 6.69863 16.8358 6.37499C16.8358 6.05134 16.5735 5.78897 16.2498 5.78897C15.9262 5.78897 15.6638 6.05134 15.6638 6.37499C15.6638 6.69863 15.9262 6.961 16.2498 6.961ZM11.8361 8.87486C11.8361 9.19851 11.5737 9.46088 11.2501 9.46088C10.9264 9.46088 10.6641 9.19851 10.6641 8.87486C10.6641 8.55121 10.9264 8.28885 11.2501 8.28885C11.5737 8.28885 11.8361 8.55121 11.8361 8.87486ZM13.7499 9.46088C14.0735 9.46088 14.3359 9.19851 14.3359 8.87486C14.3359 8.55121 14.0735 8.28885 13.7499 8.28885C13.4263 8.28885 13.1639 8.55121 13.1639 8.87486C13.1639 9.19851 13.4263 9.46088 13.7499 9.46088ZM16.8358 8.87486C16.8358 9.19851 16.5735 9.46088 16.2498 9.46088C15.9262 9.46088 15.6638 9.19851 15.6638 8.87486C15.6638 8.55121 15.9262 8.28885 16.2498 8.28885C16.5735 8.28885 16.8358 8.55121 16.8358 8.87486Z"/>
</svg>
