<svg width="20" height="20" viewBox="0 0 20 20" fill="none" xmlns="http://www.w3.org/2000/svg">
<path d="M10 6.76598L4.32407 1.0901C3.33426 0.100139 1.89146 -0.248454 0.558601 0.180364L0.272423 0.272424L0.180364 0.558602C-0.248454 1.89134 0.100138 3.33422 1.0901 4.32407L6.76601 10L0.000267235 16.7657L3.23427 19.9997L10.0002 13.2338L16.7658 19.9998L19.9998 16.7657L13.2342 9.99979L18.9099 4.32407C19.8999 3.33414 20.2484 1.89134 19.8196 0.558602L19.7275 0.272424L19.4414 0.180364C19.0729 0.0618227 18.6901 0.00171239 18.3037 0.00171239C17.311 0.00171239 16.3778 0.388231 15.676 1.0901L10 6.76598ZM10.4672 11.1097L8.89026 9.53281L11.0052 7.41785C11.44 6.98388 12.1469 6.98408 12.5814 7.4186C13.0162 7.85335 13.0162 8.56077 12.5814 8.99553L10.4672 11.1097ZM8.06172 10.3613L9.63869 11.9383L5.39433 16.1826L3.81741 14.6057L8.06172 10.3613ZM13.4099 6.59006C13.1293 6.30943 12.7883 6.11132 12.4165 6.00653L15.0742 3.34887L16.6511 4.9258L13.9924 7.58451C13.8899 7.22014 13.6961 6.87624 13.4099 6.59006ZM18.3036 1.17341C18.4644 1.17341 18.6242 1.18865 18.7815 1.21876C18.9404 2.0421 18.6851 2.89181 18.0813 3.49553L17.4796 4.09726L15.9027 2.52033L16.5044 1.9186C16.985 1.43807 17.6239 1.17341 18.3036 1.17341ZM6.00653 7.5835L3.34887 4.92584L4.92579 3.34891L7.58346 6.00657C7.21162 6.11132 6.87069 6.30943 6.59002 6.5901C6.30935 6.87077 6.11128 7.21167 6.00653 7.5835ZM1.21856 1.21856C2.0421 1.05952 2.89185 1.31492 3.49557 1.91864L4.0973 2.52037L2.52037 4.0973L1.9186 3.49553C1.31484 2.89177 1.05956 2.04195 1.21856 1.21856ZM7.41855 8.99553C6.98384 8.56077 6.98384 7.85331 7.41855 7.41856C7.85327 6.98388 8.56069 6.9838 8.99548 7.41856L9.17144 7.59451L7.59447 9.17148L7.41855 8.99553ZM1.65734 16.7657L2.98887 15.4342L4.5658 17.0111L3.23427 18.3427L1.65734 16.7657ZM16.7657 18.3426L15.4343 17.0111L17.0112 15.4342L18.3426 16.7657L16.7657 18.3426ZM16.1827 14.6056L14.6058 16.1825L10.8288 12.4052L12.4056 10.8283L16.1827 14.6056Z" fill="#5B5A60"/>
</svg>
