<svg width="20" height="14" viewBox="0 0 20 14" fill="none" xmlns="http://www.w3.org/2000/svg">
<path d="M19.4141 3.68037H18.2491V2.70049C18.2491 1.3501 17.1505 0.251465 15.8001 0.251465H11.8634C11.118 0.251465 10.4498 0.586582 10.0003 1.11357C9.55074 0.586582 8.88254 0.251465 8.13719 0.251465H4.20035C2.84996 0.251465 1.75133 1.3501 1.75133 2.70049V3.68037H0.585938C0.262344 3.68037 0 3.94271 0 4.26631V12.1909C0 12.5145 0.262344 12.7769 0.585938 12.7769H2.57812V13.1607C2.57812 13.4843 2.84047 13.7467 3.16406 13.7467C3.48766 13.7467 3.75 13.4843 3.75 13.1607V12.7769H16.25V13.1607C16.25 13.4843 16.5123 13.7467 16.8359 13.7467C17.1595 13.7467 17.4219 13.4843 17.4219 13.1607V12.7769H19.4141C19.7377 12.7769 20 12.5145 20 12.1909V4.26631C20 3.94271 19.7377 3.68037 19.4141 3.68037ZM3.81895 9.01033V7.84389H9.41434V9.01033H3.81895ZM10.5862 7.84385H16.1811V9.01029H10.5862V7.84385ZM11.8634 1.42334H15.8002C16.5044 1.42334 17.0773 1.99627 17.0773 2.70049V3.97252C16.5395 4.31064 16.1811 4.909 16.1811 5.58982V6.67193H10.5862V2.70045C10.5862 1.99627 11.1591 1.42334 11.8634 1.42334ZM4.20035 1.42334H8.13715C8.84137 1.42334 9.4143 1.99627 9.4143 2.70049V6.67197H3.81895V5.58982C3.81895 4.90924 3.46074 4.31107 2.92324 3.97283V2.70049C2.9232 1.99627 3.49613 1.42334 4.20035 1.42334ZM18.8281 11.605H16.8631C16.8541 11.6046 16.8451 11.6037 16.8359 11.6037C16.8268 11.6037 16.8178 11.6046 16.8088 11.605H3.19125C3.18219 11.6046 3.17324 11.6037 3.16406 11.6037C3.15488 11.6037 3.14594 11.6046 3.13688 11.605H1.17188V4.85229H1.90945C2.31617 4.85229 2.64703 5.18318 2.64703 5.58986V9.59627C2.64703 9.91986 2.90937 10.1822 3.23297 10.1822H16.767C17.0906 10.1822 17.3529 9.91986 17.3529 9.59627V5.58986C17.3529 5.18314 17.6838 4.85225 18.0905 4.85225H18.8281V11.605Z" fill="#45434E"/>
</svg>
