<svg width="20" height="20" viewBox="0 0 20 20" fill="none" xmlns="http://www.w3.org/2000/svg">
<path fill-rule="evenodd" clip-rule="evenodd" d="M3.22473 0H16.7753C18.5534 0 20 1.4466 20 3.22473V16.7753C20 18.5534 18.5534 20 16.7753 20H3.22473C1.4466 20 0 18.5534 0 16.7753V3.22473C0 1.4466 1.4466 0 3.22473 0ZM16.7753 18.8189C17.9021 18.8189 18.8189 17.9021 18.8189 16.7753V3.22473C18.8189 2.09785 17.9021 1.18109 16.7753 1.18109H3.22473C2.09785 1.18109 1.18109 2.09789 1.18109 3.22473V16.7753C1.18109 17.9021 2.09789 18.8189 3.22473 18.8189H16.7753ZM13.8384 10.2108C14.2768 10.3618 14.6786 10.6119 15.0161 10.9495L16.5312 12.4647C17.2514 13.1849 17.2504 14.3491 16.5311 15.0683C15.8133 15.7862 14.6453 15.786 13.9275 15.0685L13.3207 14.4617C12.5675 15.7059 11.0753 16.8628 9.06101 16.8628C6.3155 16.8628 4.08183 14.6292 4.08183 11.8837C4.08183 9.51448 5.74972 7.49597 8.02527 7.01276C8.09906 6.858 8.19519 6.71339 8.31156 6.58261C7.92941 6.21843 7.69054 5.70519 7.69054 5.1369C7.69054 4.03519 8.58687 3.13886 9.68859 3.13886C10.7903 3.13886 11.6866 4.03519 11.6866 5.1369C11.6866 5.70542 11.4476 6.21882 11.0652 6.583C11.297 6.84401 11.4559 7.17112 11.5096 7.5321H12.199C13.2142 7.5321 14.0401 8.35808 14.0401 9.37327C14.0401 9.67464 13.9673 9.95936 13.8384 10.2108ZM10.5147 5.1369C10.5147 4.68136 10.1441 4.31073 9.68855 4.31073C9.233 4.31073 8.86238 4.68136 8.86238 5.1369C8.86238 5.59245 9.233 5.96308 9.68855 5.96308C10.1441 5.96308 10.5147 5.59245 10.5147 5.1369ZM5.25363 11.8837C5.25363 13.983 6.9616 15.691 9.06093 15.691C10.6621 15.691 11.8354 14.7356 12.3941 13.7248H9.68851C8.67332 13.7248 7.84734 12.8989 7.84734 11.8837V8.27436C6.32144 8.78851 5.25363 10.2269 5.25363 11.8837ZM14.756 14.2397C15.0169 14.5006 15.4416 14.5007 15.7024 14.2397C15.9643 13.9779 15.9641 13.5549 15.7025 13.2933L14.1874 11.7781C13.824 11.4146 13.3407 11.2144 12.8266 11.2144H10.9437C10.6202 11.2144 10.3578 10.9521 10.3578 10.6285C10.3578 10.3049 10.6202 10.0425 10.9437 10.0425H12.199C12.568 10.0425 12.8683 9.7423 12.8683 9.37327C12.8683 9.00425 12.568 8.70398 12.199 8.70398H10.9438C10.6202 8.70398 10.3578 8.44163 10.3578 8.11804V7.80425C10.3578 7.43522 10.0576 7.13499 9.68859 7.13499C9.31839 7.13499 9.01929 7.43472 9.01929 7.80425V11.8837C9.01929 12.2546 9.3198 12.5529 9.68859 12.5529H12.8266C12.982 12.5529 13.131 12.6147 13.2409 12.7246L14.756 14.2397Z" />
</svg>
