<svg width="20" height="20" viewBox="0 0 20 20" fill="none" xmlns="http://www.w3.org/2000/svg">
<path fill-rule="evenodd" clip-rule="evenodd" d="M11.0577 3.84332H17.8037C19.0147 3.84332 20 4.82864 20 6.03968V17.2543C20 18.4653 19.0147 19.4506 17.8037 19.4506H2.1963C0.985253 19.4506 0 18.4653 0 17.2543V6.03968C0 4.82864 0.985253 3.84332 2.1963 3.84332H8.94229L6.78391 1.68501C6.52404 1.42507 6.52404 1.00359 6.78391 0.743727C7.04397 0.483862 7.46525 0.483862 7.72525 0.743727L10 3.01847L12.2747 0.743727C12.5348 0.483862 12.9561 0.483862 13.2161 0.743727C13.476 1.00366 13.476 1.42514 13.2161 1.68501L11.0577 3.84332ZM17.8036 18.1195C18.2807 18.1195 18.6689 17.7313 18.6689 17.2543H18.669V6.03968C18.669 5.56258 18.2807 5.17443 17.8037 5.17443H2.1963C1.71926 5.17443 1.33104 5.56258 1.33104 6.03968V17.2543C1.33104 17.7313 1.71926 18.1195 2.1963 18.1195H17.8036ZM8.68622 6.28711L14.2949 6.28717C14.5537 6.3337 14.7608 6.52832 14.8235 6.7838V16.5135C14.7609 16.7689 14.5538 16.9635 14.2949 17.0101H8.68622H3.07747C2.81861 16.9635 2.61148 16.7689 2.54885 16.5135V6.7838C2.61148 6.52832 2.81861 6.3337 3.07747 6.28717L8.68622 6.28711ZM8.68622 15.7743H13.6292V7.52293H8.68622H3.74319V15.7743H8.68622ZM17.0697 8.35235C17.5246 8.35235 17.8934 7.9836 17.8934 7.52872C17.8934 7.07383 17.5246 6.70508 17.0697 6.70508C16.6149 6.70508 16.2461 7.07383 16.2461 7.52872C16.2461 7.9836 16.6149 8.35235 17.0697 8.35235ZM17.8934 10.8236C17.8934 11.2785 17.5246 11.6473 17.0697 11.6473C16.6149 11.6473 16.2461 11.2785 16.2461 10.8236C16.2461 10.3688 16.6149 10 17.0697 10C17.5246 10 17.8934 10.3688 17.8934 10.8236Z" fill="#5B5A60"/>
</svg>
