<svg width="20" height="16" viewBox="0 0 20 16" fill="none" xmlns="http://www.w3.org/2000/svg">
  <path fill-rule="evenodd" clip-rule="evenodd" d="M0.130195 5.70173C2.4881 2.52715 6.24393 0.632812 10.1838 0.632812C13.9194 0.632812 17.4895 2.3359 19.8597 5.21839C20.0821 5.48879 20.0356 5.88953 19.7541 6.0976C19.4953 6.28885 19.1304 6.24689 18.9263 5.99808C16.786 3.39014 13.5595 1.84901 10.1839 1.84901C6.61801 1.84901 3.21833 3.56882 1.08998 6.44939C0.97069 6.61074 0.78674 6.69618 0.600357 6.69618C0.46465 6.69618 0.327624 6.65087 0.213403 6.55672C-0.041391 6.34692 -0.0666271 5.96666 0.130195 5.70173ZM7.96484 13.1506C7.96484 11.927 8.9603 10.9316 10.1838 10.9316C11.4073 10.9316 12.4028 11.927 12.4028 13.1506C12.4028 14.3742 11.4074 15.3695 10.1838 15.3695C8.9602 15.3695 7.96484 14.3742 7.96484 13.1506ZM9.18104 13.1505C9.18104 13.7035 9.63094 14.1532 10.1838 14.1532C10.7367 14.1532 11.1866 13.7035 11.1866 13.1505C11.1866 12.5975 10.7368 12.1477 10.1838 12.1477C9.63083 12.1477 9.18104 12.5975 9.18104 13.1505ZM10.1846 4C7.06289 4 4.17604 5.56758 2.46222 8.19336C2.27867 8.4746 2.35783 8.85142 2.63907 9.03497C2.92011 9.21861 3.29714 9.13946 3.48068 8.85811C4.96911 6.57774 7.47529 5.2162 10.1846 5.2162C12.8939 5.2162 15.4 6.57764 16.8885 8.85811C17.0051 9.03679 17.1997 9.13389 17.3983 9.13389C17.5123 9.13389 17.6275 9.10196 17.7301 9.03497C18.0113 8.85142 18.0905 8.4746 17.9069 8.19336C16.1931 5.56758 13.3062 4 10.1846 4ZM4.74185 10.5674C5.74856 8.50208 7.88532 7.16406 10.1828 7.16406C12.4803 7.16406 14.6171 8.50208 15.6265 10.5729C15.7454 10.8167 15.6881 11.1115 15.4864 11.293C15.3701 11.3976 15.2247 11.4491 15.0798 11.4491C14.9133 11.4491 14.7476 11.3812 14.6275 11.2478C14.5801 11.1951 14.5436 11.1366 14.5179 11.0746C13.7011 9.4345 12.005 8.38026 10.1828 8.38026C8.35863 8.38026 6.66102 9.43663 5.84788 11.0745C5.82204 11.1365 5.78555 11.1952 5.73812 11.2479C5.51333 11.4976 5.12881 11.5177 4.87928 11.2931C4.67597 11.1101 4.61952 10.812 4.74185 10.5674Z" fill="#5B5A60"/>
</svg>
